{
.formatVersion = 3;
axes = (
{
name = Weight;
tag = wght;
}
);
classes = (
{
code = "zero zero.zero one two three four five six seven eight nine";
name = Digit;
},
{
code = "a b c d e f A B C D E F";
name = DigitHex;
},
{
code = "braceleft braceright bracketleft bracketright parenleft parenright bar slash backslash";
name = NormalSeparator;
},
{
code = "space nbspace";
name = Space;
},
{
code = "space nbspace bullet periodcentered period";
name = SpaceExlusion;
},
{

glyphs = (
{
color = (153, 254, 255, 255);
glyphname = .notdef;
layers = (
{
layerId = "0892077F-E13C-4B35-A2A2-3732A46C3F7E";
shapes = (
{
closed = 1;
nodes = (
(125,650,ls),
(134,704,o),
(175,730,o),
(229,730,cs),
(469,730,ls),
(523,730,o),
(554,704,o),
(545,650,cs),
(444,80,ls),
(435,26,o),
(394,0,o),
(340,0,cs),
(100,0,ls),
(46,0,o),
(15,26,o),
(24,80,cs)
);
},
{
closed = 1;
nodes = (
(311,120,ls),
(338,120,o),
(342,123,o),
(346,150,cs),
(422,580,ls),
(427,607,o),
(425,610,o),
(398,610,cs),
(258,610,ls),
(231,610,o),
(227,607,o),
(222,580,cs),
(146,150,ls),
(142,123,o),
(144,120,o),
(171,120,cs)
);
},
{
closed = 1;
nodes = (
(64,52,l),
(405,680,l),
(505,680,l),
(164,52,l)
);
},
{
closed = 1;
nodes = (
(294,52,l),
(175,680,l),
(275,680,l),
(394,52,l)
);
}
);
width = 600;
},
{
layerId = "8BB99DCB-260E-4CD5-8804-53D8F723A4FE";
shapes = (
{
closed = 1;
nodes = (
(135,650,ls),
(144,704,o),
(175,730,o),
(229,730,cs),
(469,730,ls),
(523,730,o),
(544,704,o),
(535,650,cs),
(434,80,ls),
(425,26,o),
(394,0,o),
(340,0,cs),
(100,0,ls),
(46,0,o),
(25,26,o),
(34,80,cs)
);
},
{
closed = 1;
nodes = (
(306,90,ls),
(333,90,o),
(348,103,o),
(353,130,cs),
(436,600,ls),
(441,627,o),
(430,640,o),
(403,640,cs),
(263,640,ls),
(236,640,o),
(221,627,o),
(216,600,cs),
(133,130,ls),
(128,103,o),
(139,90,o),
(166,90,cs)
);
},
{
closed = 1;
nodes = (
(74,52,l),
(415,680,l),
(495,680,l),
(154,52,l)
);
},
{
closed = 1;
nodes = (
(304,52,l),
(185,680,l),
(265,680,l),
(384,52,l)
);
}
);
width = 600;
},
{
layerId = "4966EE82-C4DA-425A-8D74-1CF207294ED7";
shapes = (
{
closed = 1;
nodes = (
(146,660,ls),
(154,704,o),
(185,730,o),
(229,730,cs),
(469,730,ls),
(513,730,o),
(534,704,o),
(526,660,cs),
(422,70,ls),
(415,26,o),
(384,0,o),
(340,0,cs),
(100,0,ls),
(56,0,o),
(35,26,o),
(42,70,cs)
);
},
{
closed = 1;
nodes = (
(301,60,ls),
(338,60,o),
(365,83,o),
(371,120,cs),
(458,610,ls),
(464,647,o),
(445,670,o),
(408,670,cs),
(268,670,ls),
(231,670,o),
(204,647,o),
(198,610,cs),
(111,120,ls),
(105,83,o),
(124,60,o),
(161,60,cs)
);
},
{
closed = 1;
nodes = (
(72,42,l),
(437,690,l),
(497,690,l),
(132,42,l)
);
},
{
closed = 1;
nodes = (
(322,42,l),
(187,690,l),
(247,690,l),
(382,42,l)
);
}
);
width = 600;
}
);
},
{
color = (153, 254, 255, 255);
glyphname = A;
layers = (
{
anchors = (
{
name = bottom;
position = "{220, 0}";
},
{
name = ogonek;
position = "{402, 0}";
},
{
name = top;
position = "{349, 730}";
}
);
layerId = "0892077F-E13C-4B35-A2A2-3732A46C3F7E";
shapes = (
{
closed = 1;
nodes = (
(411.253,285,l),
(416.094,165,l),
(82.094,165,l),
(129.253,285,l)
);
},
{
closed = 1;
nodes = (
(319.511,536,ls),
(319.098,545,o),
(313.098,545,o),
(309.511,536,cs),
(105.877,39,ls),
(91.705,4,o),
(68.237,-10,o),
(27.237,-10,cs),
(-33.763,-10,o),
(-54.121,22,o),
(-25.66,87,cs),
(215.084,647,ls),
(242.192,710,o),
(286.482,740,o),
(350.482,740,cs),
(414.482,740,o),
(448.192,710,o),
(453.084,647,cs),
(496.34,87,ls),
(501.879,22,o),
(467.237,-10,o),
(408.237,-10,cs),
(367.237,-10,o),
(350.058,6,o),
(347.877,39,cs)
);
}
);
width = 600;
},
{
anchors = (
{
name = bottom;
position = "{220, 0}";
},
{
name = ogonek;
position = "{420, 0}";
},
{
name = top;
position = "{349, 730}";
}
);
layerId = "8BB99DCB-260E-4CD5-8804-53D8F723A4FE";
shapes = (
{
closed = 1;
nodes = (
(415,270,l),
(420,194,l),
(88,194,l),
(121,270,l)
);
},
{
closed = 1;
nodes = (
(333,611,ls),
(332,619,o),
(326,619,o),
(323,611,cs),
(60,19,ls),
(52,0,o),
(38,-10,o),
(13,-10,cs),
(-22,-10,o),
(-34,9,o),
(-17,48,cs),
(265,681,ls),
(283,720,o),
(309,740,o),
(350,740,cs),
(391,740,o),
(411,720,o),
(415,681,cs),
(473,48,ls),
(478,9,o),
(458,-10,o),
(423,-10,cs),
(398,-10,o),
(388,0,o),
(386,19,cs)
);
}
);
width = 600;
},
{
anchors = (
{
name = bottom;
position = "{220, 0}";
},
{
name = ogonek;
position = "{425, 0}";
},
{
name = top;
position = "{349, 730}";
}
);
layerId = "4966EE82-C4DA-425A-8D74-1CF207294ED7";
shapes = (
{
closed = 1;
nodes = (
(407,250,l),
(411,200,l),
(100,200,l),
(122,250,l)
);
},
{
closed = 1;
nodes = (
(340,660,ls),
(339,666,o),
(335,666,o),
(332,660,cs),
(37,7,ls),
(32,-4,o),
(25,-10,o),
(10,-10,cs),
(-10,-10,o),
(-17,1,o),
(-7,23,cs),
(307,711,ls),
(316,730,o),
(330,740,o),
(350,740,cs),
(370,740,o),
(382,730,o),
(383,711,cs),
(455,23,ls),
(457,1,o),
(446,-10,o),
(426,-10,cs),
(411,-10,o),
(406,-4,o),
(405,7,cs)
);
}
);
width = 600;
}
);
unicode = 65;
},
{
glyphname = Aacute;
layers = (
{
layerId = "0892077F-E13C-4B35-A2A2-3732A46C3F7E";
shapes = (
{
closed = 1;
nodes = (
(411.253,285,l),
(416.094,165,l),
(82.094,165,l),
(129.253,285,l)
);
},
{
closed = 1;
nodes = (
(319.511,536,ls),
(319.098,545,o),
(313.098,545,o),
(309.511,536,cs),
(105.877,39,ls),
(91.705,4,o),
(68.237,-10,o),
(27.237,-10,cs),
(-33.763,-10,o),
(-54.121,22,o),
(-25.66,87,cs),
(215.084,647,ls),
(242.192,710,o),
(286.482,740,o),
(350.482,740,cs),
(414.482,740,o),
(448.192,710,o),
(453.084,647,cs),
(496.34,87,ls),
(501.879,22,o),
(467.237,-10,o),
(408.237,-10,cs),
(367.237,-10,o),
(350.058,6,o),
(347.877,39,cs)
);
},
{
closed = 1;
nodes = (
(307,810,o),
(300,835,o),
(349,889,cs),
(367,910,ls),
(397,943,o),
(427,950,o),
(466,950,cs),
(533,950,o),
(540,924,o),
(488,873,cs),
(463,848,ls),
(437,822,o),
(407,810,o),
(374,810,cs)
);
}
);
width = 600;
},
{
layerId = "8BB99DCB-260E-4CD5-8804-53D8F723A4FE";
shapes = (
{
closed = 1;
nodes = (
(415,270,l),
(420,194,l),
(88,194,l),
(121,270,l)
);
},
{
closed = 1;
nodes = (
(333,611,ls),
(332,619,o),
(326,619,o),
(323,611,cs),
(60,19,ls),
(52,0,o),
(38,-10,o),
(13,-10,cs),
(-22,-10,o),
(-34,9,o),
(-17,48,cs),
(265,681,ls),
(283,720,o),
(309,740,o),
(350,740,cs),
(391,740,o),
(411,720,o),
(415,681,cs),
(473,48,ls),
(478,9,o),
(458,-10,o),
(423,-10,cs),
(398,-10,o),
(388,0,o),
(386,19,cs)
);
},
{
closed = 1;
nodes = (
(325,810,o),
(320,826,o),
(350,859,cs),
(411,924,ls),
(427,941,o),
(446,950,o),
(468,950,cs),
(511,950,o),
(517,933,o),
(484,899,cs),
(420,834,ls),
(404,818,o),
(387,810,o),
(366,810,cs)
);
}
);
width = 600;
},
{
layerId = "4966EE82-C4DA-425A-8D74-1CF207294ED7";
shapes = (
{
closed = 1;
nodes = (
(407,250,l),
(411,200,l),
(100,200,l),
(122,250,l)
);
},
{
closed = 1;
nodes = (
(340,660,ls),
(339,666,o),
(335,666,o),
(332,660,cs),
(37,7,ls),
(32,-4,o),
(25,-10,o),
(10,-10,cs),
(-10,-10,o),
(-17,1,o),
(-7,23,cs),
(307,711,ls),
(316,730,o),
(330,740,o),
(350,740,cs),
(370,740,o),
(382,730,o),
(383,711,cs),
(455,23,ls),
(457,1,o),
(446,-10,o),
(426,-10,cs),
(411,-10,o),
(406,-4,o),
(405,7,cs)
);
},
{
closed = 1;
nodes = (
(338,810,o),
(335,819,o),
(353,838,cs),
(443,934,ls),
(453,945,o),
(465,950,o),
(478,950,cs),
(504,950,o),
(506,940,o),
(486,919,cs),
(393,824,ls),
(385,815,o),
(374,810,o),
(362,810,cs)
);
}
);
width = 600;
}
);
unicode = 193;
},
{
glyphname = Abreve;
layers = (
{
layerId = "0892077F-E13C-4B35-A2A2-3732A46C3F7E";
shapes = (
{
closed = 1;
nodes = (
(411.253,285,l),
(416.094,165,l),
(82.094,165,l),
(129.253,285,l)
);
},
{
closed = 1;
nodes = (
(319.511,536,ls),
(319.098,545,o),
(313.098,545,o),
(309.511,536,cs),
(105.877,39,ls),
(91.705,4,o),
(68.237,-10,o),
(27.237,-10,cs),
(-33.763,-10,o),
(-54.121,22,o),
(-25.66,87,cs),
(215.084,647,ls),
(242.192,710,o),
(286.482,740,o),
(350.482,740,cs),
(414.482,740,o),
(448.192,710,o),
(453.084,647,cs),
(496.34,87,ls),
(501.879,22,o),
(467.237,-10,o),
(408.237,-10,cs),
(367.237,-10,o),
(350.058,6,o),
(347.877,39,cs)
);
},
{
closed = 1;
nodes = (
(195,927,o),
(219,950,o),
(260,950,cs),
(273,950,o),
(282,947,o),
(289,942,cs),
(305,931,o),
(314,912,o),
(333,898,cs),
(349,887,o),
(376,887,qs),
(403,887,o),
(423,898,qs),
(447,911,o),
(462,929,o),
(480,940,cs),
(490,946,o),
(501,950,o),
(515,950,cs),
(556,950,o),
(571,927,o),
(552,894,cs),
(533,864,o),
(502,842,qs),
(444,800,o),
(361,800,qs),
(278,801,o),
(234,842,qs),
(211,865,o),
(204,894,qs)
);
}
);
width = 600;
},
{
layerId = "8BB99DCB-260E-4CD5-8804-53D8F723A4FE";
shapes = (
{
closed = 1;
nodes = (
(415,270,l),
(420,194,l),
(88,194,l),
(121,270,l)
);
},
{
closed = 1;
nodes = (
(333,611,ls),
(332,619,o),
(326,619,o),
(323,611,cs),
(60,19,ls),
(52,0,o),
(38,-10,o),
(13,-10,cs),
(-22,-10,o),
(-34,9,o),
(-17,48,cs),
(265,681,ls),
(283,720,o),
(309,740,o),
(350,740,cs),
(391,740,o),
(411,720,o),
(415,681,cs),
(473,48,ls),
(478,9,o),
(458,-10,o),
(423,-10,cs),
(398,-10,o),
(388,0,o),
(386,19,cs)
);
},
{
closed = 1;
nodes = (
(224,937,o),
(238,950,o),
(263,950,cs),
(278,950,o),
(287,946,o),
(293,939,cs),
(303,927,o),
(305,909,o),
(313,895,cs),
(330,863,o),
(371,863,qs),
(412,863,o),
(442,895,qs),
(454,908,o),
(463,925,o),
(476,937,cs),
(486,945,o),
(496,950,o),
(512,950,cs),
(537,950,o),
(546,937,o),
(537,915,cs),
(521,874,o),
(485,845,qs),
(434,805,o),
(362,805,qs),
(290,805,o),
(253,845,qs),
(227,874,o),
(225,915,qs)
);
}
);
width = 600;
},
{
layerId = "4966EE82-C4DA-425A-8D74-1CF207294ED7";
shapes = (
{
closed = 1;
nodes = (
(407,250,l),
(411,200,l),
(100,200,l),
(122,250,l)
);
},
{
closed = 1;
nodes = (
(340,660,ls),
(339,666,o),
(335,666,o),
(332,660,cs),
(37,7,ls),
(32,-4,o),
(25,-10,o),
(10,-10,cs),
(-10,-10,o),
(-17,1,o),
(-7,23,cs),
(307,711,ls),
(316,730,o),
(330,740,o),
(350,740,cs),
(370,740,o),
(382,730,o),
(383,711,cs),
(455,23,ls),
(457,1,o),
(446,-10,o),
(426,-10,cs),
(411,-10,o),
(406,-4,o),
(405,7,cs)
);
},
{
closed = 1;
nodes = (
(240,943,o),
(250,950,o),
(265,950,cs),
(274,950,o),
(279,946,o),
(282,939,cs),
(288,924,o),
(286,896,o),
(300,876,cs),
(321,848,o),
(369,848,qs),
(416,848,o),
(447,876,qs),
(473,898,o),
(480,925,o),
(491,939,cs),
(496,946,o),
(501,950,o),
(510,950,cs),
(525,950,o),
(532,943,o),
(528,928,cs),
(513,879,o),
(475,847,qs),
(429,808,o),
(362,808,qs),
(295,808,o),
(263,847,qs),
(237,879,o),
(240,928,qs)
);
}
);
width = 600;
}
);
unicode = 258;
},
{
glyphname = Abreveacute;
layers = (
{
layerId = "0892077F-E13C-4B35-A2A2-3732A46C3F7E";
shapes = (
{
closed = 1;
nodes = (
(182,895,o),
(220,915,o),
(256,915,cs),
(271,915,o),
(287,913,o),
(300,891,cs),
(308,878,o),
(321,873,qs),
(343,865,o),
(372,865,qs),
(403,865,o),
(427,873,qs),
(441,878,o),
(454,891,qs),
(475,911,o),
(491,915,o),
(506,915,cs),
(542,915,o),
(572,893,o),
(559,866,cs),
(545,838,o),
(507,814,qs),
(445,775,o),
(357,775,qs),
(269,775,o),
(221,814,qs),
(192,838,o),
(187,866,qs)
);
},
{
closed = 1;
nodes = (
(335,900,o),
(320,934,o),
(371,962,cs),
(416,987,ls),
(443,1002,o),
(464,1020,o),
(493,1020,cs),
(551,1020,o),
(566,983,o),
(510,955,cs),
(461,930,ls),
(435,917,o),
(406,900,o),
(379,900,cs)
);
},
{
closed = 1;
nodes = (
(411.253,285,l),
(416.094,165,l),
(82.094,165,l),
(129.253,285,l)
);
},
{
closed = 1;
nodes = (
(319.511,536,ls),
(319.098,545,o),
(313.098,545,o),
(309.511,536,cs),
(105.877,39,ls),
(91.705,4,o),
(68.237,-10,o),
(27.237,-10,cs),
(-33.763,-10,o),
(-54.121,22,o),
(-25.66,87,cs),
(215.084,647,ls),
(242.192,710,o),
(286.482,740,o),
(350.482,740,cs),
(414.482,740,o),
(448.192,710,o),
(453.084,647,cs),
(496.34,87,ls),
(501.879,22,o),
(467.237,-10,o),
(408.237,-10,cs),
(367.237,-10,o),
(350.058,6,o),
(347.877,39,cs)
);
}
);
width = 600;
},
{
layerId = "8BB99DCB-260E-4CD5-8804-53D8F723A4FE";
shapes = (
{
closed = 1;
nodes = (
(207,896,o),
(220,910,o),
(245,910,cs),
(261,910,o),
(272,902,o),
(285,877,cs),
(289,868,o),
(299,860,qs),
(322,840,o),
(368,840,qs),
(412,840,o),
(444,860,qs),
(456,868,o),
(465,877,qs),
(486,902,o),
(499,910,o),
(515,910,cs),
(540,910,o),
(549,896,o),
(539,875,cs),
(522,840,o),
(487,816,qs),
(434,780,o),
(358,780,qs),
(282,780,o),
(241,816,qs),
(213,840,o),
(209,875,qs)
);
},
{
closed = 1;
nodes = (
(336,900,o),
(330,917,o),
(364,945,cs),
(427,996,ls),
(444,1011,o),
(463,1020,o),
(484,1020,cs),
(527,1020,o),
(534,1002,o),
(497,973,cs),
(432,922,ls),
(414,908,o),
(397,900,o),
(377,900,cs)
);
},
{
closed = 1;
nodes = (
(415,270,l),
(420,194,l),
(88,194,l),
(121,270,l)
);
},
{
closed = 1;
nodes = (
(333,611,ls),
(332,619,o),
(326,619,o),
(323,611,cs),
(60,19,ls),
(52,0,o),
(38,-10,o),
(13,-10,cs),
(-22,-10,o),
(-34,9,o),
(-17,48,cs),
(265,681,ls),
(283,720,o),
(309,740,o),
(350,740,cs),
(391,740,o),
(411,720,o),
(415,681,cs),
(473,48,ls),
(478,9,o),
(458,-10,o),
(423,-10,cs),
(398,-10,o),
(388,0,o),
(386,19,cs)
);
}
);
width = 600;
},
{
layerId = "4966EE82-C4DA-425A-8D74-1CF207294ED7";
shapes = (
{
closed = 1;
nodes = (
(228,897,o),
(236,905,o),
(252,905,cs),
(266,905,o),
(273,899,o),
(274,883,cs),
(276,860,o),
(293,844,qs),
(318,820,o),
(365,820,qs),
(412,820,o),
(445,844,qs),
(468,860,o),
(478,883,qs),
(485,899,o),
(493,905,o),
(507,905,cs),
(523,905,o),
(528,897,o),
(524,883,cs),
(510,843,o),
(473,815,qs),
(426,780,o),
(358,780,qs),
(290,780,o),
(255,815,qs),
(227,843,o),
(228,883,qs)
);
},
{
closed = 1;
nodes = (
(347,895,o),
(344,903,o),
(362,920,cs),
(452,1005,ls),
(463,1015,o),
(475,1020,o),
(488,1020,cs),
(515,1020,o),
(518,1010,o),
(496,991,cs),
(399,907,ls),
(390,899,o),
(380,895,o),
(369,895,cs)
);
},
{
closed = 1;
nodes = (
(407,250,l),
(411,200,l),
(100,200,l),
(122,250,l)
);
},
{
closed = 1;
nodes = (
(340,660,ls),
(339,666,o),
(335,666,o),
(332,660,cs),
(37,7,ls),
(32,-4,o),
(25,-10,o),
(10,-10,cs),
(-10,-10,o),
(-17,1,o),
(-7,23,cs),
(307,711,ls),
(316,730,o),
(330,740,o),
(350,740,cs),
(370,740,o),
(382,730,o),
(383,711,cs),
(455,23,ls),
(457,1,o),
(446,-10,o),
(426,-10,cs),
(411,-10,o),
(406,-4,o),
(405,7,cs)
);
}
);
width = 600;
}
);
unicode = 7854;
},
{
glyphname = Abrevedotbelow;
layers = (
{
layerId = "0892077F-E13C-4B35-A2A2-3732A46C3F7E";
shapes = (
{
closed = 1;
nodes = (
(195,927,o),
(219,950,o),
(260,950,cs),
(273,950,o),
(282,947,o),
(289,942,cs),
(305,931,o),
(314,912,o),
(333,898,cs),
(349,887,o),
(376,887,qs),
(403,887,o),
(423,898,qs),
(447,911,o),
(462,929,o),
(480,940,cs),
(490,946,o),
(501,950,o),
(515,950,cs),
(556,950,o),
(571,927,o),
(552,894,cs),
(533,864,o),
(502,842,qs),
(444,800,o),
(361,800,qs),
(278,801,o),
(234,842,qs),
(211,865,o),
(204,894,qs)
);
},
{
closed = 1;
nodes = (
(411.253,285,l),
(416.094,165,l),
(82.094,165,l),
(129.253,285,l)
);
},
{
closed = 1;
nodes = (
(319.511,536,ls),
(319.098,545,o),
(313.098,545,o),
(309.511,536,cs),
(105.877,39,ls),
(91.705,4,o),
(68.237,-10,o),
(27.237,-10,cs),
(-33.763,-10,o),
(-54.121,22,o),
(-25.66,87,cs),
(215.084,647,ls),
(242.192,710,o),
(286.482,740,o),
(350.482,740,cs),
(414.482,740,o),
(448.192,710,o),
(453.084,647,cs),
(496.34,87,ls),
(501.879,22,o),
(467.237,-10,o),
(408.237,-10,cs),
(367.237,-10,o),
(350.058,6,o),
(347.877,39,cs)
);
},
{
closed = 1;
nodes = (
(138,-233,o),
(96,-191,o),
(103,-155,qs),
(109,-119,o),
(165,-77,o),
(206,-77,qs),
(247,-77,o),
(289,-119,o),
(283,-155,qs),
(276,-191,o),
(220,-233,o),
(179,-233,qs)
);
}
);
width = 600;
},
{
layerId = "8BB99DCB-260E-4CD5-8804-53D8F723A4FE";
shapes = (
{
closed = 1;
nodes = (
(224,937,o),
(238,950,o),
(263,950,cs),
(278,950,o),
(287,946,o),
(293,939,cs),
(303,927,o),
(305,909,o),
(313,895,cs),
(330,863,o),
(371,863,qs),
(412,863,o),
(442,895,qs),
(454,908,o),
(463,925,o),
(476,937,cs),
(486,945,o),
(496,950,o),
(512,950,cs),
(537,950,o),
(546,937,o),
(537,915,cs),
(521,874,o),
(485,845,qs),
(434,805,o),
(362,805,qs),
(290,805,o),
(253,845,qs),
(227,874,o),
(225,915,qs)
);
},
{
closed = 1;
nodes = (
(415,270,l),
(420,194,l),
(88,194,l),
(121,270,l)
);
},
{
closed = 1;
nodes = (
(333,611,ls),
(332,619,o),
(326,619,o),
(323,611,cs),
(60,19,ls),
(52,0,o),
(38,-10,o),
(13,-10,cs),
(-22,-10,o),
(-34,9,o),
(-17,48,cs),
(265,681,ls),
(283,720,o),
(309,740,o),
(350,740,cs),
(391,740,o),
(411,720,o),
(415,681,cs),
(473,48,ls),
(478,9,o),
(458,-10,o),
(423,-10,cs),
(398,-10,o),
(388,0,o),
(386,19,cs)
);
},
{
closed = 1;
nodes = (
(149,-213,o),
(117,-179,o),
(123,-150,qs),
(128,-120,o),
(172,-85,o),
(205,-85,qs),
(238,-85,o),
(270,-120,o),
(265,-150,qs),
(259,-179,o),
(215,-213,o),
(182,-213,qs)
);
}
);
width = 600;
},
{
layerId = "4966EE82-C4DA-425A-8D74-1CF207294ED7";
shapes = (
{
closed = 1;
nodes = (
(240,943,o),
(250,950,o),
(265,950,cs),
(274,950,o),
(279,946,o),
(282,939,cs),
(288,924,o),
(286,896,o),
(300,876,cs),
(321,848,o),
(369,848,qs),
(416,848,o),
(447,876,qs),
(473,898,o),
(480,925,o),
(491,939,cs),
(496,946,o),
(501,950,o),
(510,950,cs),
(525,950,o),
(532,943,o),
(528,928,cs),
(513,879,o),
(475,847,qs),
(429,808,o),
(362,808,qs),
(295,808,o),
(263,847,qs),
(237,879,o),
(240,928,qs)
);
},
{
closed = 1;
nodes = (
(407,250,l),
(411,200,l),
(100,200,l),
(122,250,l)
);
},
{
closed = 1;
nodes = (
(340,660,ls),
(339,666,o),
(335,666,o),
(332,660,cs),
(37,7,ls),
(32,-4,o),
(25,-10,o),
(10,-10,cs),
(-10,-10,o),
(-17,1,o),
(-7,23,cs),
(307,711,ls),
(316,730,o),
(330,740,o),
(350,740,cs),
(370,740,o),
(382,730,o),
(383,711,cs),
(455,23,ls),
(457,1,o),
(446,-10,o),
(426,-10,cs),
(411,-10,o),
(406,-4,o),
(405,7,cs)
);
},
{
closed = 1;
nodes = (
(158,-205,o),
(131,-175,o),
(136,-150,qs),
(140,-125,o),
(177,-95,o),
(203,-95,qs),
(229,-95,o),
(256,-125,o),
(252,-150,qs),
(247,-175,o),
(210,-205,o),
(184,-205,qs)
);
}
);
width = 600;
}
);
unicode = 7862;
},
{
glyphname = Abrevegrave;
layers = (
{
layerId = "0892077F-E13C-4B35-A2A2-3732A46C3F7E";
shapes = (
{
closed = 1;
nodes = (
(411.253,285,l),
(416.094,165,l),
(82.094,165,l),
(129.253,285,l)
);
},
{
closed = 1;
nodes = (
(319.511,536,ls),
(319.098,545,o),
(313.098,545,o),
(309.511,536,cs),
(105.877,39,ls),
(91.705,4,o),
(68.237,-10,o),
(27.237,-10,cs),
(-33.763,-10,o),
(-54.121,22,o),
(-25.66,87,cs),
(215.084,647,ls),
(242.192,710,o),
(286.482,740,o),
(350.482,740,cs),
(414.482,740,o),
(448.192,710,o),
(453.084,647,cs),
(496.34,87,ls),
(501.879,22,o),
(467.237,-10,o),
(408.237,-10,cs),
(367.237,-10,o),
(350.058,6,o),
(347.877,39,cs)
);
},
{
closed = 1;
nodes = (
(352,900,o),
(329,917,o),
(307,930,cs),
(266,955,ls),
(220,983,o),
(249,1020,o),
(307,1020,cs),
(336,1020,o),
(351,1002,o),
(372,987,cs),
(409,962,ls),
(450,934,o),
(423,900,o),
(379,900,cs)
);
},
{
closed = 1;
nodes = (
(172,895,o),
(210,915,o),
(246,915,cs),
(261,915,o),
(277,913,o),
(290,891,cs),
(298,878,o),
(311,873,qs),
(333,865,o),
(372,865,qs),
(413,865,o),
(437,873,qs),
(451,878,o),
(464,891,qs),
(485,911,o),
(501,915,o),
(516,915,cs),
(552,915,o),
(582,893,o),
(569,866,cs),
(555,838,o),
(517,814,qs),
(455,775,o),
(357,775,qs),
(259,775,o),
(211,814,qs),
(182,838,o),
(177,866,qs)
);
}
);
width = 600;
},
{
layerId = "8BB99DCB-260E-4CD5-8804-53D8F723A4FE";
shapes = (
{
closed = 1;
nodes = (
(415,270,l),
(420,194,l),
(88,194,l),
(121,270,l)
);
},
{
closed = 1;
nodes = (
(333,611,ls),
(332,619,o),
(326,619,o),
(323,611,cs),
(60,19,ls),
(52,0,o),
(38,-10,o),
(13,-10,cs),
(-22,-10,o),
(-34,9,o),
(-17,48,cs),
(265,681,ls),
(283,720,o),
(309,740,o),
(350,740,cs),
(391,740,o),
(411,720,o),
(415,681,cs),
(473,48,ls),
(478,9,o),
(458,-10,o),
(423,-10,cs),
(398,-10,o),
(388,0,o),
(386,19,cs)
);
},
{
closed = 1;
nodes = (
(361,900,o),
(346,908,o),
(334,922,cs),
(287,973,ls),
(260,1002,o),
(273,1020,o),
(316,1020,cs),
(337,1020,o),
(352,1011,o),
(365,996,cs),
(410,945,ls),
(434,917,o),
(422,900,o),
(381,900,cs)
);
},
{
closed = 1;
nodes = (
(207,896,o),
(220,910,o),
(245,910,cs),
(261,910,o),
(272,902,o),
(285,877,cs),
(289,868,o),
(299,860,qs),
(322,840,o),
(368,840,qs),
(412,840,o),
(444,860,qs),
(456,868,o),
(465,877,qs),
(486,902,o),
(499,910,o),
(515,910,cs),
(540,910,o),
(549,896,o),
(539,875,cs),
(522,840,o),
(487,816,qs),
(434,780,o),
(358,780,qs),
(282,780,o),
(241,816,qs),
(213,840,o),
(209,875,qs)
);
}
);
width = 600;
},
{
layerId = "4966EE82-C4DA-425A-8D74-1CF207294ED7";
shapes = (
{
closed = 1;
nodes = (
(407,250,l),
(411,200,l),
(100,200,l),
(122,250,l)
);
},
{
closed = 1;
nodes = (
(340,660,ls),
(339,666,o),
(335,666,o),
(332,660,cs),
(37,7,ls),
(32,-4,o),
(25,-10,o),
(10,-10,cs),
(-10,-10,o),
(-17,1,o),
(-7,23,cs),
(307,711,ls),
(316,730,o),
(330,740,o),
(350,740,cs),
(370,740,o),
(382,730,o),
(383,711,cs),
(455,23,ls),
(457,1,o),
(446,-10,o),
(426,-10,cs),
(411,-10,o),
(406,-4,o),
(405,7,cs)
);
},
{
closed = 1;
nodes = (
(377,895,o),
(369,899,o),
(362,907,cs),
(295,991,ls),
(279,1010,o),
(286,1020,o),
(313,1020,cs),
(326,1020,o),
(336,1015,o),
(343,1005,cs),
(403,920,ls),
(415,904,o),
(410,895,o),
(388,895,cs)
);
},
{
closed = 1;
nodes = (
(228,897,o),
(236,905,o),
(252,905,cs),
(266,905,o),
(273,899,o),
(274,883,cs),
(276,860,o),
(293,844,qs),
(318,820,o),
(365,820,qs),
(412,820,o),
(445,844,qs),
(468,860,o),
(478,883,qs),
(485,899,o),
(493,905,o),
(507,905,cs),
(523,905,o),
(528,897,o),
(524,883,cs),
(510,843,o),
(473,815,qs),
(426,780,o),
(358,780,qs),
(290,780,o),
(255,815,qs),
(227,843,o),
(228,883,qs)
);
}
);
width = 600;
}
);
unicode = 7856;
},
{
glyphname = Abrevehookabove;
layers = (
{
layerId = "0892077F-E13C-4B35-A2A2-3732A46C3F7E";
shapes = (
{
closed = 1;
nodes = (
(411.253,285,l),
(416.094,165,l),
(82.094,165,l),
(129.253,285,l)
);
},
{
closed = 1;
nodes = (
(319.511,536,ls),
(319.098,545,o),
(313.098,545,o),
(309.511,536,cs),
(105.877,39,ls),
(91.705,4,o),
(68.237,-10,o),
(27.237,-10,cs),
(-33.763,-10,o),
(-54.121,22,o),
(-25.66,87,cs),
(215.084,647,ls),
(242.192,710,o),
(286.482,740,o),
(350.482,740,cs),
(414.482,740,o),
(448.192,710,o),
(453.084,647,cs),
(496.34,87,ls),
(501.879,22,o),
(467.237,-10,o),
(408.237,-10,cs),
(367.237,-10,o),
(350.058,6,o),
(347.877,39,cs)
);
},
{
closed = 1;
nodes = (
(358,890,o),
(338,892,o),
(358,921,cs),
(361,925,ls),
(367,933,o),
(368,938,qs),
(370,949,o),
(356,949,qs),
(323,949,ls),
(299,949,o),
(289,961,o),
(294,985,cs),
(298,1009,o),
(312,1020,o),
(336,1020,cs),
(400,1020,ls),
(441,1020,o),
(479,985,o),
(473,954,qs),
(470,938,o),
(461,925,qs),
(460,922,ls),
(444,901,o),
(429,890,o),
(381,890,cs)
);
},
{
closed = 1;
nodes = (
(172,888,o),
(197,915,o),
(243,915,cs),
(257,915,o),
(267,908,o),
(279,885,cs),
(282,880,o),
(286,875,qs),
(302,860,o),
(336,860,qs),
(407,860,ls),
(439,860,o),
(460,875,qs),
(467,880,o),
(472,885,qs),
(491,906,o),
(505,915,o),
(518,915,cs),
(564,915,o),
(581,888,o),
(556,853,cs),
(542,833,o),
(519,817,qs),
(468,781,o),
(393,780,qs),
(322,780,ls),
(245,781,o),
(207,817,qs),
(190,833,o),
(183,853,qs)
);
}
);
width = 600;
},
{
layerId = "8BB99DCB-260E-4CD5-8804-53D8F723A4FE";
shapes = (
{
closed = 1;
nodes = (
(415,270,l),
(420,194,l),
(88,194,l),
(121,270,l)
);
},
{
closed = 1;
nodes = (
(333,611,ls),
(332,619,o),
(326,619,o),
(323,611,cs),
(60,19,ls),
(52,0,o),
(38,-10,o),
(13,-10,cs),
(-22,-10,o),
(-34,9,o),
(-17,48,cs),
(265,681,ls),
(283,720,o),
(309,740,o),
(350,740,cs),
(391,740,o),
(411,720,o),
(415,681,cs),
(473,48,ls),
(478,9,o),
(458,-10,o),
(423,-10,cs),
(398,-10,o),
(388,0,o),
(386,19,cs)
);
},
{
closed = 1;
nodes = (
(355,880,o),
(341,892,o),
(367,917,cs),
(386,936,ls),
(394,944,o),
(396,952,qs),
(397,960,o),
(387,960,qs),
(344,960,ls),
(324,960,o),
(316,970,o),
(320,990,cs),
(323,1010,o),
(335,1020,o),
(355,1020,cs),
(422,1020,ls),
(448,1020,o),
(472,995,o),
(468,972,qs),
(463,942,o),
(443,920,qs),
(424,900,ls),
(410,886,o),
(395,880,o),
(378,880,cs)
);
},
{
closed = 1;
nodes = (
(212,897,o),
(225,910,o),
(250,910,cs),
(270,910,o),
(278,902,o),
(286,876,cs),
(290,867,o),
(295,859,qs),
(311,840,o),
(343,840,qs),
(392,840,ls),
(425,840,o),
(447,859,qs),
(456,867,o),
(462,876,qs),
(480,902,o),
(490,910,o),
(510,910,cs),
(535,910,o),
(544,897,o),
(535,875,cs),
(521,839,o),
(491,815,qs),
(447,780,o),
(382,780,qs),
(333,780,ls),
(269,780,o),
(237,815,qs),
(215,839,o),
(213,875,qs)
);
}
);
width = 600;
},
{
layerId = "4966EE82-C4DA-425A-8D74-1CF207294ED7";
shapes = (
{
closed = 1;
nodes = (
(407,250,l),
(411,200,l),
(100,200,l),
(122,250,l)
);
},
{
closed = 1;
nodes = (
(340,660,ls),
(339,666,o),
(335,666,o),
(332,660,cs),
(37,7,ls),
(32,-4,o),
(25,-10,o),
(10,-10,cs),
(-10,-10,o),
(-17,1,o),
(-7,23,cs),
(307,711,ls),
(316,730,o),
(330,740,o),
(350,740,cs),
(370,740,o),
(382,730,o),
(383,711,cs),
(455,23,ls),
(457,1,o),
(446,-10,o),
(426,-10,cs),
(411,-10,o),
(406,-4,o),
(405,7,cs)
);
},
{
closed = 1;
nodes = (
(359,880,o),
(352,887,o),
(368,903,cs),
(400,933,ls),
(421,954,o),
(423,966,qs),
(427,985,o),
(401,985,qs),
(345,985,ls),
(333,985,o),
(328,991,o),
(330,1003,cs),
(332,1015,o),
(338,1020,o),
(350,1020,cs),
(404,1020,ls),
(436,1020,o),
(467,994,o),
(463,971,qs),
(459,946,o),
(427,915,qs),
(402,891,ls),
(394,883,o),
(385,880,o),
(375,880,cs)
);
},
{
closed = 1;
nodes = (
(228,897,o),
(236,905,o),
(252,905,cs),
(266,905,o),
(273,899,o),
(273,883,cs),
(274,861,o),
(287,844,qs),
(306,821,o),
(345,820,qs),
(385,820,ls),
(422,821,o),
(450,844,qs),
(469,861,o),
(479,883,qs),
(485,899,o),
(493,905,o),
(507,905,cs),
(523,905,o),
(528,897,o),
(524,883,cs),
(511,843,o),
(478,815,qs),
(436,781,o),
(378,780,qs),
(338,780,ls),
(280,781,o),
(250,815,qs),
(227,843,o),
(228,883,qs)
);
}
);
width = 600;
}
);
unicode = 7858;
},
{
glyphname = Abrevetilde;
layers = (
{
layerId = "0892077F-E13C-4B35-A2A2-3732A46C3F7E";
shapes = (
{
closed = 1;
nodes = (
(411.253,285,l),
(416.094,165,l),
(82.094,165,l),
(129.253,285,l)
);
},
{
closed = 1;
nodes = (
(319.511,536,ls),
(319.098,545,o),
(313.098,545,o),
(309.511,536,cs),
(105.877,39,ls),
(91.705,4,o),
(68.237,-10,o),
(27.237,-10,cs),
(-33.763,-10,o),
(-54.121,22,o),
(-25.66,87,cs),
(215.084,647,ls),
(242.192,710,o),
(286.482,740,o),
(350.482,740,cs),
(414.482,740,o),
(448.192,710,o),
(453.084,647,cs),
(496.34,87,ls),
(501.879,22,o),
(467.237,-10,o),
(408.237,-10,cs),
(367.237,-10,o),
(350.058,6,o),
(347.877,39,cs)
);
},
{
closed = 1;
nodes = (
(190,870,o),
(210,890,o),
(244,890,cs),
(259,890,o),
(270,884,o),
(279,877,cs),
(291,867,o),
(307,860,o),
(324,860,cs),
(420,860,ls),
(436,860,o),
(452,866,o),
(465,874,cs),
(478,882,o),
(493,890,o),
(509,890,cs),
(543,890,o),
(556,870,o),
(540,843,cs),
(526,823,o),
(506,809,qs),
(464,780,o),
(403,780,qs),
(315,780,ls),
(252,780,o),
(220,809,qs),
(203,823,o),
(198,843,qs)
);
},
{
closed = 1;
nodes = (
(216,915,o),
(200,938,o),
(220,968,cs),
(229,982,o),
(242,993,qs),
(274,1020,o),
(320,1020,qs),
(348,1020,o),
(389,1009,o),
(421,996,o),
(449,985,o),
(464,985,qs),
(470,985,o),
(475,987,qs),
(494,993,o),
(504,1015,o),
(525,1015,cs),
(564,1015,o),
(580,992,o),
(561,962,cs),
(551,948,o),
(538,937,qs),
(506,910,o),
(460,910,qs),
(432,910,o),
(391,921,o),
(360,934,o),
(332,945,o),
(317,945,qs),
(311,945,o),
(305,943,qs),
(288,935,o),
(273,915,o),
(255,915,cs)
);
}
);
width = 600;
},
{
layerId = "8BB99DCB-260E-4CD5-8804-53D8F723A4FE";
shapes = (
{
closed = 1;
nodes = (
(415,270,l),
(420,194,l),
(88,194,l),
(121,270,l)
);
},
{
closed = 1;
nodes = (
(333,611,ls),
(332,619,o),
(326,619,o),
(323,611,cs),
(60,19,ls),
(52,0,o),
(38,-10,o),
(13,-10,cs),
(-22,-10,o),
(-34,9,o),
(-17,48,cs),
(265,681,ls),
(283,720,o),
(309,740,o),
(350,740,cs),
(391,740,o),
(411,720,o),
(415,681,cs),
(473,48,ls),
(478,9,o),
(458,-10,o),
(423,-10,cs),
(398,-10,o),
(388,0,o),
(386,19,cs)
);
},
{
closed = 1;
nodes = (
(210,887,o),
(224,900,o),
(249,900,cs),
(267,900,o),
(274,885,o),
(282,870,cs),
(291,855,o),
(309,840,o),
(343,840,cs),
(392,840,ls),
(424,840,o),
(446,852,o),
(461,867,cs),
(477,883,o),
(490,900,o),
(509,900,cs),
(534,900,o),
(542,887,o),
(534,865,cs),
(519,830,o),
(490,810,qs),
(447,780,o),
(382,780,qs),
(333,780,ls),
(269,780,o),
(236,810,qs),
(213,830,o),
(212,865,qs)
);
},
{
closed = 1;
nodes = (
(230,930,o),
(219,947,o),
(232,970,cs),
(241,986,o),
(255,998,qs),
(283,1021,o),
(325,1020,qs),
(357,1020,o),
(395,1006,o),
(421,987,o),
(445,973,o),
(462,973,qs),
(477,973,o),
(485,982,qs),
(496,992,o),
(507,1010,o),
(523,1010,cs),
(552,1010,o),
(564,993,o),
(551,970,cs),
(542,955,o),
(527,943,qs),
(499,921,o),
(459,920,qs),
(428,920,o),
(389,934,o),
(362,953,o),
(338,967,o),
(321,967,qs),
(306,968,o),
(297,959,qs),
(285,946,o),
(279,930,o),
(259,930,cs)
);
}
);
width = 600;
},
{
layerId = "4966EE82-C4DA-425A-8D74-1CF207294ED7";
shapes = (
{
closed = 1;
nodes = (
(407,250,l),
(411,200,l),
(100,200,l),
(122,250,l)
);
},
{
closed = 1;
nodes = (
(340,660,ls),
(339,666,o),
(335,666,o),
(332,660,cs),
(37,7,ls),
(32,-4,o),
(25,-10,o),
(10,-10,cs),
(-10,-10,o),
(-17,1,o),
(-7,23,cs),
(307,711,ls),
(316,730,o),
(330,740,o),
(350,740,cs),
(370,740,o),
(382,730,o),
(383,711,cs),
(455,23,ls),
(457,1,o),
(446,-10,o),
(426,-10,cs),
(411,-10,o),
(406,-4,o),
(405,7,cs)
);
},
{
closed = 1;
nodes = (
(227,892,o),
(235,900,o),
(251,900,cs),
(267,900,o),
(270,890,o),
(276,864,cs),
(283,835,o),
(313,820,o),
(345,820,cs),
(385,820,ls),
(415,820,o),
(451,835,o),
(468,864,cs),
(483,889,o),
(491,900,o),
(506,900,cs),
(522,900,o),
(527,892,o),
(523,878,cs),
(509,839,o),
(477,813,qs),
(436,780,o),
(378,780,qs),
(338,780,ls),
(280,780,o),
(249,813,qs),
(226,839,o),
(227,878,qs)
);
},
{
closed = 1;
nodes = (
(240,930,o),
(234,937,o),
(238,950,cs),
(244,981,o),
(267,1000,qs),
(292,1020,o),
(330,1020,qs),
(358,1020,o),
(394,1001,o),
(419,977,o),
(445,958,o),
(464,958,qs),
(494,958,o),
(505,990,qs),
(509,1003,o),
(515,1010,o),
(528,1010,cs),
(542,1010,o),
(548,1003,o),
(545,990,cs),
(538,960,o),
(516,941,qs),
(492,921,o),
(457,920,qs),
(429,920,o),
(394,939,o),
(368,963,o),
(342,982,o),
(323,982,qs),
(287,982,o),
(278,950,qs),
(273,937,o),
(267,930,o),
(254,930,cs)
);
}
);
width = 600;
}
);
unicode = 7860;
},
{
glyphname = Acaron;
layers = (
{
layerId = "0892077F-E13C-4B35-A2A2-3732A46C3F7E";
shapes = (
{
closed = 1;
nodes = (
(411.253,285,l),
(416.094,165,l),
(82.094,165,l),
(129.253,285,l)
);
},
{
closed = 1;
nodes = (
(319.511,536,ls),
(319.098,545,o),
(313.098,545,o),
(309.511,536,cs),
(105.877,39,ls),
(91.705,4,o),
(68.237,-10,o),
(27.237,-10,cs),
(-33.763,-10,o),
(-54.121,22,o),
(-25.66,87,cs),
(215.084,647,ls),
(242.192,710,o),
(286.482,740,o),
(350.482,740,cs),
(414.482,740,o),
(448.192,710,o),
(453.084,647,cs),
(496.34,87,ls),
(501.879,22,o),
(467.237,-10,o),
(408.237,-10,cs),
(367.237,-10,o),
(350.058,6,o),
(347.877,39,cs)
);
},
{
closed = 1;
nodes = (
(304,950,o),
(326,939,o),
(344,917,cs),
(345,916,ls),
(364,892,o),
(387,891,o),
(415,915,cs),
(420,919,ls),
(446,941,o),
(473,950,o),
(503,950,cs),
(563,950,o),
(569,928,o),
(519,885,cs),
(491,860,ls),
(452,826,o),
(400,810,o),
(363,810,cs),
(326,810,o),
(278,825,o),
(253,860,cs),
(234,885,ls),
(201,930,o),
(213,950,o),
(274,950,cs)
);
}
);
width = 600;
},
{
layerId = "8BB99DCB-260E-4CD5-8804-53D8F723A4FE";
shapes = (
{
closed = 1;
nodes = (
(415,270,l),
(420,194,l),
(88,194,l),
(121,270,l)
);
},
{
closed = 1;
nodes = (
(333,611,ls),
(332,619,o),
(326,619,o),
(323,611,cs),
(60,19,ls),
(52,0,o),
(38,-10,o),
(13,-10,cs),
(-22,-10,o),
(-34,9,o),
(-17,48,cs),
(265,681,ls),
(283,720,o),
(309,740,o),
(350,740,cs),
(391,740,o),
(411,720,o),
(415,681,cs),
(473,48,ls),
(478,9,o),
(458,-10,o),
(423,-10,cs),
(398,-10,o),
(388,0,o),
(386,19,cs)
);
},
{
closed = 1;
nodes = (
(298,950,o),
(315,942,o),
(328,926,cs),
(351,900,ls),
(366,881,o),
(387,882,o),
(409,900,cs),
(442,927,ls),
(461,942,o),
(482,950,o),
(504,950,cs),
(548,950,o),
(551,934,o),
(514,903,cs),
(439,839,ls),
(415,819,o),
(386,810,o),
(363,810,cs),
(340,810,o),
(314,819,o),
(298,839,cs),
(246,902,ls),
(220,934,o),
(230,950,o),
(275,950,cs)
);
}
);
width = 600;
},
{
layerId = "4966EE82-C4DA-425A-8D74-1CF207294ED7";
shapes = (
{
closed = 1;
nodes = (
(407,250,l),
(411,200,l),
(100,200,l),
(122,250,l)
);
},
{
closed = 1;
nodes = (
(340,660,ls),
(339,666,o),
(335,666,o),
(332,660,cs),
(37,7,ls),
(32,-4,o),
(25,-10,o),
(10,-10,cs),
(-10,-10,o),
(-17,1,o),
(-7,23,cs),
(307,711,ls),
(316,730,o),
(330,740,o),
(350,740,cs),
(370,740,o),
(382,730,o),
(383,711,cs),
(455,23,ls),
(457,1,o),
(446,-10,o),
(426,-10,cs),
(411,-10,o),
(406,-4,o),
(405,7,cs)
);
},
{
closed = 1;
nodes = (
(283,950,o),
(291,945,o),
(297,937,cs),
(352,863,ls),
(364,848,o),
(376,848,o),
(392,863,cs),
(475,938,ls),
(484,946,o),
(494,950,o),
(505,950,cs),
(527,950,o),
(529,942,o),
(512,925,cs),
(417,833,ls),
(401,818,o),
(378,810,o),
(363,810,cs),
(348,810,o),
(327,818,o),
(317,833,cs),
(255,924,ls),
(243,941,o),
(249,950,o),
(272,950,cs)
);
}
);
width = 600;
}
);
unicode = 461;
},
{
glyphname = Acircumflex;
layers = (
{
layerId = "0892077F-E13C-4B35-A2A2-3732A46C3F7E";
shapes = (
{
closed = 1;
nodes = (
(411.253,285,l),
(416.094,165,l),
(82.094,165,l),
(129.253,285,l)
);
},
{
closed = 1;
nodes = (
(319.511,536,ls),
(319.098,545,o),
(313.098,545,o),
(309.511,536,cs),
(105.877,39,ls),
(91.705,4,o),
(68.237,-10,o),
(27.237,-10,cs),
(-33.763,-10,o),
(-54.121,22,o),
(-25.66,87,cs),
(215.084,647,ls),
(242.192,710,o),
(286.482,740,o),
(350.482,740,cs),
(414.482,740,o),
(448.192,710,o),
(453.084,647,cs),
(496.34,87,ls),
(501.879,22,o),
(467.237,-10,o),
(408.237,-10,cs),
(367.237,-10,o),
(350.058,6,o),
(347.877,39,cs)
);
},
{
closed = 1;
nodes = (
(188,810,o),
(183,831,o),
(232,875,cs),
(260,900,ls),
(299,934,o),
(341,950,o),
(388,950,cs),
(435,950,o),
(471,934,o),
(498,900,cs),
(517,875,ls),
(552,832,o),
(538,810,o),
(478,810,cs),
(448,810,o),
(425,820,o),
(406,841,cs),
(403,845,ls),
(383,868,o),
(359,868,o),
(332,844,cs),
(331,843,ls),
(306,821,o),
(279,810,o),
(249,810,cs)
);
}
);
width = 600;
},
{
layerId = "8BB99DCB-260E-4CD5-8804-53D8F723A4FE";
shapes = (
{
closed = 1;
nodes = (
(415,270,l),
(420,194,l),
(88,194,l),
(121,270,l)
);
},
{
closed = 1;
nodes = (
(333,611,ls),
(332,619,o),
(326,619,o),
(323,611,cs),
(60,19,ls),
(52,0,o),
(38,-10,o),
(13,-10,cs),
(-22,-10,o),
(-34,9,o),
(-17,48,cs),
(265,681,ls),
(283,720,o),
(309,740,o),
(350,740,cs),
(391,740,o),
(411,720,o),
(415,681,cs),
(473,48,ls),
(478,9,o),
(458,-10,o),
(423,-10,cs),
(398,-10,o),
(388,0,o),
(386,19,cs)
);
},
{
closed = 1;
nodes = (
(205,810,o),
(201,826,o),
(238,858,cs),
(312,921,ls),
(336,941,o),
(360,950,o),
(388,950,cs),
(416,950,o),
(437,941,o),
(453,921,cs),
(506,857,ls),
(532,826,o),
(523,810,o),
(479,810,cs),
(457,810,o),
(439,818,o),
(426,833,cs),
(402,860,ls),
(386,878,o),
(366,879,o),
(344,860,cs),
(312,834,ls),
(293,818,o),
(273,810,o),
(250,810,cs)
);
}
);
width = 600;
},
{
layerId = "4966EE82-C4DA-425A-8D74-1CF207294ED7";
shapes = (
{
closed = 1;
nodes = (
(407,250,l),
(411,200,l),
(100,200,l),
(122,250,l)
);
},
{
closed = 1;
nodes = (
(340,660,ls),
(339,666,o),
(335,666,o),
(332,660,cs),
(37,7,ls),
(32,-4,o),
(25,-10,o),
(10,-10,cs),
(-10,-10,o),
(-17,1,o),
(-7,23,cs),
(307,711,ls),
(316,730,o),
(330,740,o),
(350,740,cs),
(370,740,o),
(382,730,o),
(383,711,cs),
(455,23,ls),
(457,1,o),
(446,-10,o),
(426,-10,cs),
(411,-10,o),
(406,-4,o),
(405,7,cs)
);
},
{
closed = 1;
nodes = (
(224,810,o),
(221,819,o),
(239,836,cs),
(333,927,ls),
(349,942,o),
(368,950,o),
(388,950,cs),
(408,950,o),
(423,942,o),
(433,927,cs),
(496,835,ls),
(507,818,o),
(502,810,o),
(480,810,cs),
(469,810,o),
(461,814,o),
(455,822,cs),
(398,897,ls),
(387,912,o),
(375,912,o),
(358,897,cs),
(277,823,ls),
(268,815,o),
(258,810,o),
(247,810,cs)
);
}
);
width = 600;
}
);
unicode = 194;
},
{
glyphname = Acircumflexacute;
layers = (
{
layerId = "0892077F-E13C-4B35-A2A2-3732A46C3F7E";
shapes = (
{
closed = 1;
nodes = (
(411.253,285,l),
(416.094,165,l),
(82.094,165,l),
(129.253,285,l)
);
},
{
closed = 1;
nodes = (
(319.511,536,ls),
(319.098,545,o),
(313.098,545,o),
(309.511,536,cs),
(105.877,39,ls),
(91.705,4,o),
(68.237,-10,o),
(27.237,-10,cs),
(-33.763,-10,o),
(-54.121,22,o),
(-25.66,87,cs),
(215.084,647,ls),
(242.192,710,o),
(286.482,740,o),
(350.482,740,cs),
(414.482,740,o),
(448.192,710,o),
(453.084,647,cs),
(496.34,87,ls),
(501.879,22,o),
(467.237,-10,o),
(408.237,-10,cs),
(367.237,-10,o),
(350.058,6,o),
(347.877,39,cs)
);
},
{
closed = 1;
nodes = (
(530,905,o),
(523,926,o),
(572,971,cs),
(586,984,ls),
(612,1008,o),
(641,1020,o),
(673,1020,cs),
(738,1020,o),
(744,998,o),
(690,952,cs),
(672,937,ls),
(648,916,o),
(620,905,o),
(590,905,cs)
);
},
{
closed = 1;
nodes = (
(183,780,o),
(177,801,o),
(227,845,cs),
(254,870,ls),
(293,904,o),
(335,920,o),
(382,920,cs),
(429,920,o),
(465,904,o),
(492,870,cs),
(511,845,ls),
(545,801,o),
(533,780,o),
(472,780,cs),
(442,780,o),
(417,790,o),
(400,812,cs),
(399,814,ls),
(379,838,o),
(357,838,o),
(329,814,cs),
(326,812,ls),
(301,790,o),
(274,780,o),
(244,780,cs)
);
}
);
width = 600;
},
{
layerId = "8BB99DCB-260E-4CD5-8804-53D8F723A4FE";
shapes = (
{
closed = 1;
nodes = (
(415,270,l),
(420,194,l),
(88,194,l),
(121,270,l)
);
},
{
closed = 1;
nodes = (
(333,611,ls),
(332,619,o),
(326,619,o),
(323,611,cs),
(60,19,ls),
(52,0,o),
(38,-10,o),
(13,-10,cs),
(-22,-10,o),
(-34,9,o),
(-17,48,cs),
(265,681,ls),
(283,720,o),
(309,740,o),
(350,740,cs),
(391,740,o),
(411,720,o),
(415,681,cs),
(473,48,ls),
(478,9,o),
(458,-10,o),
(423,-10,cs),
(398,-10,o),
(388,0,o),
(386,19,cs)
);
},
{
closed = 1;
nodes = (
(509,900,o),
(504,916,o),
(538,949,cs),
(586,994,ls),
(604,1011,o),
(624,1020,o),
(647,1020,cs),
(693,1020,o),
(697,1004,o),
(660,970,cs),
(610,924,ls),
(592,908,o),
(574,900,o),
(552,900,cs)
);
},
{
closed = 1;
nodes = (
(200,780,o),
(195,796,o),
(232,827,cs),
(306,890,ls),
(329,910,o),
(354,920,o),
(382,920,cs),
(410,920,o),
(432,910,o),
(449,890,cs),
(500,828,ls),
(526,796,o),
(517,780,o),
(472,780,cs),
(449,780,o),
(431,788,o),
(418,804,cs),
(395,830,ls),
(380,849,o),
(360,849,o),
(337,830,cs),
(305,803,ls),
(286,788,o),
(266,780,o),
(244,780,cs)
);
}
);
width = 600;
},
{
layerId = "4966EE82-C4DA-425A-8D74-1CF207294ED7";
shapes = (
{
closed = 1;
nodes = (
(407,250,l),
(411,200,l),
(100,200,l),
(122,250,l)
);
},
{
closed = 1;
nodes = (
(340,660,ls),
(339,666,o),
(335,666,o),
(332,660,cs),
(37,7,ls),
(32,-4,o),
(25,-10,o),
(10,-10,cs),
(-10,-10,o),
(-17,1,o),
(-7,23,cs),
(307,711,ls),
(316,730,o),
(330,740,o),
(350,740,cs),
(370,740,o),
(382,730,o),
(383,711,cs),
(455,23,ls),
(457,1,o),
(446,-10,o),
(426,-10,cs),
(411,-10,o),
(406,-4,o),
(405,7,cs)
);
},
{
closed = 1;
nodes = (
(494,895,o),
(491,904,o),
(508,921,cs),
(594,1005,ls),
(605,1015,o),
(617,1020,o),
(630,1020,cs),
(657,1020,o),
(659,1011,o),
(638,991,cs),
(546,907,ls),
(537,899,o),
(527,895,o),
(516,895,cs)
);
},
{
closed = 1;
nodes = (
(219,780,o),
(216,789,o),
(234,806,cs),
(328,897,ls),
(344,912,o),
(362,920,o),
(382,920,cs),
(402,920,o),
(418,912,o),
(428,897,cs),
(491,805,ls),
(502,788,o),
(497,780,o),
(475,780,cs),
(464,780,o),
(455,784,o),
(450,792,cs),
(393,867,ls),
(382,882,o),
(370,882,o),
(353,867,cs),
(272,793,ls),
(262,785,o),
(253,780,o),
(242,780,cs)
);
}
);
width = 600;
}
);
unicode = 7844;
},
{
glyphname = Acircumflexdotbelow;
layers = (
{
layerId = "0892077F-E13C-4B35-A2A2-3732A46C3F7E";
shapes = (
{
closed = 1;
nodes = (
(188,810,o),
(183,831,o),
(232,875,cs),
(260,900,ls),
(299,934,o),
(341,950,o),
(388,950,cs),
(435,950,o),
(471,934,o),
(498,900,cs),
(517,875,ls),
(552,832,o),
(538,810,o),
(478,810,cs),
(448,810,o),
(425,820,o),
(406,841,cs),
(403,845,ls),
(383,868,o),
(359,868,o),
(332,844,cs),
(331,843,ls),
(306,821,o),
(279,810,o),
(249,810,cs)
);
},
{
closed = 1;
nodes = (
(411.253,285,l),
(416.094,165,l),
(82.094,165,l),
(129.253,285,l)
);
},
{
closed = 1;
nodes = (
(319.511,536,ls),
(319.098,545,o),
(313.098,545,o),
(309.511,536,cs),
(105.877,39,ls),
(91.705,4,o),
(68.237,-10,o),
(27.237,-10,cs),
(-33.763,-10,o),
(-54.121,22,o),
(-25.66,87,cs),
(215.084,647,ls),
(242.192,710,o),
(286.482,740,o),
(350.482,740,cs),
(414.482,740,o),
(448.192,710,o),
(453.084,647,cs),
(496.34,87,ls),
(501.879,22,o),
(467.237,-10,o),
(408.237,-10,cs),
(367.237,-10,o),
(350.058,6,o),
(347.877,39,cs)
);
},
{
closed = 1;
nodes = (
(138,-233,o),
(96,-191,o),
(103,-155,qs),
(109,-119,o),
(165,-77,o),
(206,-77,qs),
(247,-77,o),
(289,-119,o),
(283,-155,qs),
(276,-191,o),
(220,-233,o),
(179,-233,qs)
);
}
);
width = 600;
},
{
layerId = "8BB99DCB-260E-4CD5-8804-53D8F723A4FE";
shapes = (
{
closed = 1;
nodes = (
(205,810,o),
(201,826,o),
(238,858,cs),
(312,921,ls),
(336,941,o),
(360,950,o),
(388,950,cs),
(416,950,o),
(437,941,o),
(453,921,cs),
(506,857,ls),
(532,826,o),
(523,810,o),
(479,810,cs),
(457,810,o),
(439,818,o),
(426,833,cs),
(402,860,ls),
(386,878,o),
(366,879,o),
(344,860,cs),
(312,834,ls),
(293,818,o),
(273,810,o),
(250,810,cs)
);
},
{
closed = 1;
nodes = (
(415,270,l),
(420,194,l),
(88,194,l),
(121,270,l)
);
},
{
closed = 1;
nodes = (
(333,611,ls),
(332,619,o),
(326,619,o),
(323,611,cs),
(60,19,ls),
(52,0,o),
(38,-10,o),
(13,-10,cs),
(-22,-10,o),
(-34,9,o),
(-17,48,cs),
(265,681,ls),
(283,720,o),
(309,740,o),
(350,740,cs),
(391,740,o),
(411,720,o),
(415,681,cs),
(473,48,ls),
(478,9,o),
(458,-10,o),
(423,-10,cs),
(398,-10,o),
(388,0,o),
(386,19,cs)
);
},
{
closed = 1;
nodes = (
(149,-213,o),
(117,-179,o),
(123,-150,qs),
(128,-120,o),
(172,-85,o),
(205,-85,qs),
(238,-85,o),
(270,-120,o),
(265,-150,qs),
(259,-179,o),
(215,-213,o),
(182,-213,qs)
);
}
);
width = 600;
},
{
layerId = "4966EE82-C4DA-425A-8D74-1CF207294ED7";
shapes = (
{
closed = 1;
nodes = (
(224,810,o),
(221,819,o),
(239,836,cs),
(333,927,ls),
(349,942,o),
(368,950,o),
(388,950,cs),
(408,950,o),
(423,942,o),
(433,927,cs),
(496,835,ls),
(507,818,o),
(502,810,o),
(480,810,cs),
(469,810,o),
(461,814,o),
(455,822,cs),
(398,897,ls),
(387,912,o),
(375,912,o),
(358,897,cs),
(277,823,ls),
(268,815,o),
(258,810,o),
(247,810,cs)
);
},
{
closed = 1;
nodes = (
(407,250,l),
(411,200,l),
(100,200,l),
(122,250,l)
);
},
{
closed = 1;
nodes = (
(340,660,ls),
(339,666,o),
(335,666,o),
(332,660,cs),
(37,7,ls),
(32,-4,o),
(25,-10,o),
(10,-10,cs),
(-10,-10,o),
(-17,1,o),
(-7,23,cs),
(307,711,ls),
(316,730,o),
(330,740,o),
(350,740,cs),
(370,740,o),
(382,730,o),
(383,711,cs),
(455,23,ls),
(457,1,o),
(446,-10,o),
(426,-10,cs),
(411,-10,o),
(406,-4,o),
(405,7,cs)
);
},
{
closed = 1;
nodes = (
(158,-205,o),
(131,-175,o),
(136,-150,qs),
(140,-125,o),
(177,-95,o),
(203,-95,qs),
(229,-95,o),
(256,-125,o),
(252,-150,qs),
(247,-175,o),
(210,-205,o),
(184,-205,qs)
);
}
);
width = 600;
}
);
unicode = 7852;
},
{
glyphname = Acircumflexgrave;
layers = (
{
layerId = "0892077F-E13C-4B35-A2A2-3732A46C3F7E";
shapes = (
{
closed = 1;
nodes = (
(411.253,285,l),
(416.094,165,l),
(82.094,165,l),
(129.253,285,l)
);
},
{
closed = 1;
nodes = (
(319.511,536,ls),
(319.098,545,o),
(313.098,545,o),
(309.511,536,cs),
(105.877,39,ls),
(91.705,4,o),
(68.237,-10,o),
(27.237,-10,cs),
(-33.763,-10,o),
(-54.121,22,o),
(-25.66,87,cs),
(215.084,647,ls),
(242.192,710,o),
(286.482,740,o),
(350.482,740,cs),
(414.482,740,o),
(448.192,710,o),
(453.084,647,cs),
(496.34,87,ls),
(501.879,22,o),
(467.237,-10,o),
(408.237,-10,cs),
(367.237,-10,o),
(350.058,6,o),
(347.877,39,cs)
);
},
{
closed = 1;
nodes = (
(550,905,o),
(526,916,o),
(508,937,cs),
(496,952,ls),
(458,998,o),
(472,1020,o),
(537,1020,cs),
(569,1020,o),
(594,1008,o),
(612,984,cs),
(620,971,ls),
(653,926,o),
(640,905,o),
(580,905,cs)
);
},
{
closed = 1;
nodes = (
(183,780,o),
(177,801,o),
(227,845,cs),
(254,870,ls),
(293,904,o),
(335,920,o),
(382,920,cs),
(429,920,o),
(465,904,o),
(492,870,cs),
(511,845,ls),
(545,801,o),
(533,780,o),
(472,780,cs),
(442,780,o),
(417,790,o),
(400,812,cs),
(399,814,ls),
(379,838,o),
(357,838,o),
(329,814,cs),
(326,812,ls),
(301,790,o),
(274,780,o),
(244,780,cs)
);
}
);
width = 600;
},
{
layerId = "8BB99DCB-260E-4CD5-8804-53D8F723A4FE";
shapes = (
{
closed = 1;
nodes = (
(415,270,l),
(420,194,l),
(88,194,l),
(121,270,l)
);
},
{
closed = 1;
nodes = (
(333,611,ls),
(332,619,o),
(326,619,o),
(323,611,cs),
(60,19,ls),
(52,0,o),
(38,-10,o),
(13,-10,cs),
(-22,-10,o),
(-34,9,o),
(-17,48,cs),
(265,681,ls),
(283,720,o),
(309,740,o),
(350,740,cs),
(391,740,o),
(411,720,o),
(415,681,cs),
(473,48,ls),
(478,9,o),
(458,-10,o),
(423,-10,cs),
(398,-10,o),
(388,0,o),
(386,19,cs)
);
},
{
closed = 1;
nodes = (
(535,900,o),
(518,907,o),
(506,922,cs),
(464,973,ls),
(437,1005,o),
(447,1020,o),
(492,1020,cs),
(514,1020,o),
(531,1012,o),
(544,996,cs),
(583,946,ls),
(606,915,o),
(598,900,o),
(556,900,cs)
);
},
{
closed = 1;
nodes = (
(200,780,o),
(195,796,o),
(232,827,cs),
(306,890,ls),
(329,910,o),
(354,920,o),
(382,920,cs),
(410,920,o),
(432,910,o),
(449,890,cs),
(500,828,ls),
(526,796,o),
(517,780,o),
(472,780,cs),
(449,780,o),
(431,788,o),
(418,804,cs),
(395,830,ls),
(380,849,o),
(360,849,o),
(337,830,cs),
(305,803,ls),
(286,788,o),
(266,780,o),
(244,780,cs)
);
}
);
width = 600;
},
{
layerId = "4966EE82-C4DA-425A-8D74-1CF207294ED7";
shapes = (
{
closed = 1;
nodes = (
(407,250,l),
(411,200,l),
(100,200,l),
(122,250,l)
);
},
{
closed = 1;
nodes = (
(340,660,ls),
(339,666,o),
(335,666,o),
(332,660,cs),
(37,7,ls),
(32,-4,o),
(25,-10,o),
(10,-10,cs),
(-10,-10,o),
(-17,1,o),
(-7,23,cs),
(307,711,ls),
(316,730,o),
(330,740,o),
(350,740,cs),
(370,740,o),
(382,730,o),
(383,711,cs),
(455,23,ls),
(457,1,o),
(446,-10,o),
(426,-10,cs),
(411,-10,o),
(406,-4,o),
(405,7,cs)
);
},
{
closed = 1;
nodes = (
(529,895,o),
(521,899,o),
(514,907,cs),
(449,991,ls),
(434,1010,o),
(439,1020,o),
(466,1020,cs),
(479,1020,o),
(489,1015,o),
(496,1005,cs),
(555,920,ls),
(567,903,o),
(562,895,o),
(540,895,cs)
);
},
{
closed = 1;
nodes = (
(219,780,o),
(216,789,o),
(234,806,cs),
(328,897,ls),
(344,912,o),
(362,920,o),
(382,920,cs),
(402,920,o),
(418,912,o),
(428,897,cs),
(491,805,ls),
(502,788,o),
(497,780,o),
(475,780,cs),
(464,780,o),
(455,784,o),
(450,792,cs),
(393,867,ls),
(382,882,o),
(370,882,o),
(353,867,cs),
(272,793,ls),
(262,785,o),
(253,780,o),
(242,780,cs)
);
}
);
width = 600;
}
);
unicode = 7846;
},
{
glyphname = Acircumflexhookabove;
layers = (
{
layerId = "0892077F-E13C-4B35-A2A2-3732A46C3F7E";
shapes = (
{
closed = 1;
nodes = (
(411.253,285,l),
(416.094,165,l),
(82.094,165,l),
(129.253,285,l)
);
},
{
closed = 1;
nodes = (
(319.511,536,ls),
(319.098,545,o),
(313.098,545,o),
(309.511,536,cs),
(105.877,39,ls),
(91.705,4,o),
(68.237,-10,o),
(27.237,-10,cs),
(-33.763,-10,o),
(-54.121,22,o),
(-25.66,87,cs),
(215.084,647,ls),
(242.192,710,o),
(286.482,740,o),
(350.482,740,cs),
(414.482,740,o),
(448.192,710,o),
(453.084,647,cs),
(496.34,87,ls),
(501.879,22,o),
(467.237,-10,o),
(408.237,-10,cs),
(367.237,-10,o),
(350.058,6,o),
(347.877,39,cs)
);
},
{
closed = 1;
nodes = (
(538,870,o),
(525,881,o),
(553,905,cs),
(554,906,ls),
(567,917,o),
(568,927,qs),
(571,944,o),
(546,944,qs),
(514,944,ls),
(489,944,o),
(479,957,o),
(483,982,cs),
(488,1007,o),
(503,1020,o),
(528,1020,cs),
(585,1020,ls),
(633,1020,o),
(683,978,o),
(676,938,qs),
(674,924,o),
(664,910,qs),
(660,904,ls),
(637,870,o),
(594,870,o),
(561,870,cs)
);
},
{
closed = 1;
nodes = (
(183,780,o),
(177,801,o),
(227,845,cs),
(254,870,ls),
(293,904,o),
(335,920,o),
(382,920,cs),
(429,920,o),
(465,904,o),
(492,870,cs),
(511,845,ls),
(545,801,o),
(533,780,o),
(472,780,cs),
(442,780,o),
(417,790,o),
(400,812,cs),
(399,814,ls),
(379,838,o),
(357,838,o),
(329,814,cs),
(326,812,ls),
(301,790,o),
(274,780,o),
(244,780,cs)
);
}
);
width = 600;
},
{
layerId = "8BB99DCB-260E-4CD5-8804-53D8F723A4FE";
shapes = (
{
closed = 1;
nodes = (
(415,270,l),
(420,194,l),
(88,194,l),
(121,270,l)
);
},
{
closed = 1;
nodes = (
(333,611,ls),
(332,619,o),
(326,619,o),
(323,611,cs),
(60,19,ls),
(52,0,o),
(38,-10,o),
(13,-10,cs),
(-22,-10,o),
(-34,9,o),
(-17,48,cs),
(265,681,ls),
(283,720,o),
(309,740,o),
(350,740,cs),
(391,740,o),
(411,720,o),
(415,681,cs),
(473,48,ls),
(478,9,o),
(458,-10,o),
(423,-10,cs),
(398,-10,o),
(388,0,o),
(386,19,cs)
);
},
{
closed = 1;
nodes = (
(518,880,o),
(506,889,o),
(528,907,cs),
(551,927,ls),
(561,935,o),
(563,946,qs),
(566,962,o),
(551,962,qs),
(514,962,ls),
(495,962,o),
(486,972,o),
(490,991,cs),
(493,1010,o),
(505,1020,o),
(524,1020,cs),
(580,1020,ls),
(612,1020,o),
(644,986,o),
(639,958,qs),
(634,928,o),
(615,914,qs),
(606,907,ls),
(583,890,o),
(560,880,o),
(534,880,cs)
);
},
{
closed = 1;
nodes = (
(200,780,o),
(195,796,o),
(232,827,cs),
(306,890,ls),
(329,910,o),
(354,920,o),
(382,920,cs),
(410,920,o),
(432,910,o),
(449,890,cs),
(500,828,ls),
(526,796,o),
(517,780,o),
(472,780,cs),
(449,780,o),
(431,788,o),
(418,804,cs),
(395,830,ls),
(380,849,o),
(360,849,o),
(337,830,cs),
(305,803,ls),
(286,788,o),
(266,780,o),
(244,780,cs)
);
}
);
width = 600;
},
{
layerId = "4966EE82-C4DA-425A-8D74-1CF207294ED7";
shapes = (
{
closed = 1;
nodes = (
(407,250,l),
(411,200,l),
(100,200,l),
(122,250,l)
);
},
{
closed = 1;
nodes = (
(340,660,ls),
(339,666,o),
(335,666,o),
(332,660,cs),
(37,7,ls),
(32,-4,o),
(25,-10,o),
(10,-10,cs),
(-10,-10,o),
(-17,1,o),
(-7,23,cs),
(307,711,ls),
(316,730,o),
(330,740,o),
(350,740,cs),
(370,740,o),
(382,730,o),
(383,711,cs),
(455,23,ls),
(457,1,o),
(446,-10,o),
(426,-10,cs),
(411,-10,o),
(406,-4,o),
(405,7,cs)
);
},
{
closed = 1;
nodes = (
(523,880,o),
(516,885,o),
(528,897,cs),
(566,933,ls),
(587,954,o),
(589,966,qs),
(593,985,o),
(567,985,qs),
(511,985,ls),
(499,985,o),
(494,991,o),
(496,1003,cs),
(498,1015,o),
(504,1020,o),
(516,1020,cs),
(570,1020,ls),
(602,1020,o),
(633,994,o),
(629,971,qs),
(625,946,o),
(593,915,qs),
(574,897,ls),
(562,885,o),
(548,880,o),
(533,880,cs)
);
},
{
closed = 1;
nodes = (
(219,780,o),
(216,789,o),
(234,806,cs),
(328,897,ls),
(344,912,o),
(362,920,o),
(382,920,cs),
(402,920,o),
(418,912,o),
(428,897,cs),
(491,805,ls),
(502,788,o),
(497,780,o),
(475,780,cs),
(464,780,o),
(455,784,o),
(450,792,cs),
(393,867,ls),
(382,882,o),
(370,882,o),
(353,867,cs),
(272,793,ls),
(262,785,o),
(253,780,o),
(242,780,cs)
);
}
);
width = 600;
}
);
unicode = 7848;
},
{
glyphname = Acircumflextilde;
layers = (
{
layerId = "0892077F-E13C-4B35-A2A2-3732A46C3F7E";
shapes = (
{
closed = 1;
nodes = (
(411.253,285,l),
(416.094,165,l),
(82.094,165,l),
(129.253,285,l)
);
},
{
closed = 1;
nodes = (
(319.511,536,ls),
(319.098,545,o),
(313.098,545,o),
(309.511,536,cs),
(105.877,39,ls),
(91.705,4,o),
(68.237,-10,o),
(27.237,-10,cs),
(-33.763,-10,o),
(-54.121,22,o),
(-25.66,87,cs),
(215.084,647,ls),
(242.192,710,o),
(286.482,740,o),
(350.482,740,cs),
(414.482,740,o),
(448.192,710,o),
(453.084,647,cs),
(496.34,87,ls),
(501.879,22,o),
(467.237,-10,o),
(408.237,-10,cs),
(367.237,-10,o),
(350.058,6,o),
(347.877,39,cs)
);
},
{
closed = 1;
nodes = (
(220,780,ls),
(175,780,o),
(170,796,o),
(206,829,cs),
(206,829,ls),
(246,866,o),
(291,884,o),
(340,884,cs),
(416,884,ls),
(463,884,o),
(498,867,o),
(524,832,cs),
(524,832,ls),
(550,797,o),
(540,780,o),
(493,780,cs),
(477,780,ls),
(444,780,o),
(418,792,o),
(399,817,cs),
(398,818,ls),
(380,843,o),
(358,843,o),
(330,818,cs),
(325,813,ls),
(300,791,o),
(274,780,o),
(244,780,cs)
);
},
{
closed = 1;
nodes = (
(216,915,o),
(200,938,o),
(220,968,cs),
(229,982,o),
(242,993,qs),
(274,1020,o),
(320,1020,qs),
(348,1020,o),
(389,1009,o),
(421,996,o),
(449,985,o),
(464,985,qs),
(470,985,o),
(475,987,qs),
(494,993,o),
(504,1015,o),
(525,1015,cs),
(564,1015,o),
(580,992,o),
(561,962,cs),
(551,948,o),
(538,937,qs),
(506,910,o),
(460,910,qs),
(432,910,o),
(391,921,o),
(360,934,o),
(332,945,o),
(317,945,qs),
(311,945,o),
(305,943,qs),
(288,935,o),
(273,915,o),
(255,915,cs)
);
}
);
width = 600;
},
{
layerId = "8BB99DCB-260E-4CD5-8804-53D8F723A4FE";
shapes = (
{
closed = 1;
nodes = (
(415,270,l),
(420,194,l),
(88,194,l),
(121,270,l)
);
},
{
closed = 1;
nodes = (
(333,611,ls),
(332,619,o),
(326,619,o),
(323,611,cs),
(60,19,ls),
(52,0,o),
(38,-10,o),
(13,-10,cs),
(-22,-10,o),
(-34,9,o),
(-17,48,cs),
(265,681,ls),
(283,720,o),
(309,740,o),
(350,740,cs),
(391,740,o),
(411,720,o),
(415,681,cs),
(473,48,ls),
(478,9,o),
(458,-10,o),
(423,-10,cs),
(398,-10,o),
(388,0,o),
(386,19,cs)
);
},
{
closed = 1;
nodes = (
(200,780,o),
(196,795,o),
(233,825,cs),
(259,846,ls),
(295,876,o),
(334,890,o),
(377,890,cs),
(377,890,ls),
(420,890,o),
(453,876,o),
(479,846,cs),
(497,826,ls),
(524,795,o),
(516,780,o),
(471,780,cs),
(471,780,ls),
(448,780,o),
(430,788,o),
(416,803,cs),
(395,826,ls),
(378,844,o),
(359,844,o),
(336,826,cs),
(305,802,ls),
(287,787,o),
(266,780,o),
(244,780,cs)
);
},
{
closed = 1;
nodes = (
(230,930,o),
(219,947,o),
(232,970,cs),
(241,986,o),
(255,998,qs),
(283,1021,o),
(325,1020,qs),
(357,1020,o),
(395,1006,o),
(421,987,o),
(445,973,o),
(462,973,qs),
(477,973,o),
(485,982,qs),
(496,992,o),
(507,1010,o),
(523,1010,cs),
(552,1010,o),
(564,993,o),
(551,970,cs),
(542,955,o),
(527,943,qs),
(499,921,o),
(459,920,qs),
(428,920,o),
(389,934,o),
(362,953,o),
(338,967,o),
(321,967,qs),
(306,968,o),
(297,959,qs),
(285,946,o),
(279,930,o),
(259,930,cs)
);
}
);
width = 600;
},
{
layerId = "4966EE82-C4DA-425A-8D74-1CF207294ED7";
shapes = (
{
closed = 1;
nodes = (
(407,250,l),
(411,200,l),
(100,200,l),
(122,250,l)
);
},
{
closed = 1;
nodes = (
(340,660,ls),
(339,666,o),
(335,666,o),
(332,660,cs),
(37,7,ls),
(32,-4,o),
(25,-10,o),
(10,-10,cs),
(-10,-10,o),
(-17,1,o),
(-7,23,cs),
(307,711,ls),
(316,730,o),
(330,740,o),
(350,740,cs),
(370,740,o),
(382,730,o),
(383,711,cs),
(455,23,ls),
(457,1,o),
(446,-10,o),
(426,-10,cs),
(411,-10,o),
(406,-4,o),
(405,7,cs)
);
},
{
closed = 1;
nodes = (
(219,780,o),
(217,788,o),
(236,804,cs),
(324,880,ls),
(341,894,o),
(359,901,o),
(379,901,cs),
(379,901,ls),
(399,901,o),
(415,894,o),
(426,880,cs),
(489,803,ls),
(501,787,o),
(497,780,o),
(475,780,cs),
(475,780,ls),
(464,780,o),
(455,784,o),
(448,791,cs),
(392,852,ls),
(380,866,o),
(366,866,o),
(348,852,cs),
(273,792,ls),
(263,784,o),
(253,780,o),
(242,780,cs)
);
},
{
closed = 1;
nodes = (
(240,930,o),
(234,937,o),
(238,950,cs),
(244,981,o),
(267,1000,qs),
(292,1020,o),
(330,1020,qs),
(358,1020,o),
(394,1001,o),
(419,977,o),
(445,958,o),
(464,958,qs),
(494,958,o),
(505,990,qs),
(509,1003,o),
(515,1010,o),
(528,1010,cs),
(542,1010,o),
(548,1003,o),
(545,990,cs),
(538,960,o),
(516,941,qs),
(492,921,o),
(457,920,qs),
(429,920,o),
(394,939,o),
(368,963,o),
(342,982,o),
(323,982,qs),
(287,982,o),
(278,950,qs),
(273,937,o),
(267,930,o),
(254,930,cs)
);
}
);
width = 600;
}
);
unicode = 7850;
},
{
glyphname = Adieresis;
layers = (
{
layerId = "0892077F-E13C-4B35-A2A2-3732A46C3F7E";
shapes = (
{
closed = 1;
nodes = (
(411.253,285,l),
(416.094,165,l),
(82.094,165,l),
(129.253,285,l)
);
},
{
closed = 1;
nodes = (
(319.511,536,ls),
(319.098,545,o),
(313.098,545,o),
(309.511,536,cs),
(105.877,39,ls),
(91.705,4,o),
(68.237,-10,o),
(27.237,-10,cs),
(-33.763,-10,o),
(-54.121,22,o),
(-25.66,87,cs),
(215.084,647,ls),
(242.192,710,o),
(286.482,740,o),
(350.482,740,cs),
(414.482,740,o),
(448.192,710,o),
(453.084,647,cs),
(496.34,87,ls),
(501.879,22,o),
(467.237,-10,o),
(408.237,-10,cs),
(367.237,-10,o),
(350.058,6,o),
(347.877,39,cs)
);
},
{
closed = 1;
nodes = (
(446,802,o),
(411,844,o),
(417,880,qs),
(424,916,o),
(474,958,o),
(511,958,qs),
(548,958,o),
(584,916,o),
(577,880,qs),
(571,844,o),
(520,802,o),
(483,802,qs)
);
},
{
closed = 1;
nodes = (
(202,802,o),
(167,844,o),
(173,880,qs),
(180,916,o),
(230,958,o),
(267,958,qs),
(304,958,o),
(340,916,o),
(333,880,qs),
(327,844,o),
(276,802,o),
(239,802,qs)
);
}
);
width = 600;
},
{
layerId = "8BB99DCB-260E-4CD5-8804-53D8F723A4FE";
shapes = (
{
closed = 1;
nodes = (
(415,270,l),
(420,194,l),
(88,194,l),
(121,270,l)
);
},
{
closed = 1;
nodes = (
(333,611,ls),
(332,619,o),
(326,619,o),
(323,611,cs),
(60,19,ls),
(52,0,o),
(38,-10,o),
(13,-10,cs),
(-22,-10,o),
(-34,9,o),
(-17,48,cs),
(265,681,ls),
(283,720,o),
(309,740,o),
(350,740,cs),
(391,740,o),
(411,720,o),
(415,681,cs),
(473,48,ls),
(478,9,o),
(458,-10,o),
(423,-10,cs),
(398,-10,o),
(388,0,o),
(386,19,cs)
);
},
{
closed = 1;
nodes = (
(446,817,o),
(417,851,o),
(422,880,qs),
(427,910,o),
(469,945,o),
(498,945,qs),
(527,945,o),
(555,910,o),
(550,880,qs),
(545,851,o),
(504,817,o),
(475,817,qs)
);
},
{
closed = 1;
nodes = (
(224,817,o),
(195,851,o),
(200,880,qs),
(205,910,o),
(247,945,o),
(276,945,qs),
(305,945,o),
(333,910,o),
(328,880,qs),
(323,851,o),
(282,817,o),
(253,817,qs)
);
}
);
width = 600;
},
{
layerId = "4966EE82-C4DA-425A-8D74-1CF207294ED7";
shapes = (
{
closed = 1;
nodes = (
(407,250,l),
(411,200,l),
(100,200,l),
(122,250,l)
);
},
{
closed = 1;
nodes = (
(340,660,ls),
(339,666,o),
(335,666,o),
(332,660,cs),
(37,7,ls),
(32,-4,o),
(25,-10,o),
(10,-10,cs),
(-10,-10,o),
(-17,1,o),
(-7,23,cs),
(307,711,ls),
(316,730,o),
(330,740,o),
(350,740,cs),
(370,740,o),
(382,730,o),
(383,711,cs),
(455,23,ls),
(457,1,o),
(446,-10,o),
(426,-10,cs),
(411,-10,o),
(406,-4,o),
(405,7,cs)
);
},
{
closed = 1;
nodes = (
(451,825,o),
(428,855,o),
(432,880,qs),
(437,905,o),
(471,935,o),
(495,935,qs),
(518,935,o),
(541,905,o),
(536,880,qs),
(532,855,o),
(498,825,o),
(475,825,qs)
);
},
{
closed = 1;
nodes = (
(237,825,o),
(214,855,o),
(218,880,qs),
(223,905,o),
(257,935,o),
(280,935,qs),
(303,935,o),
(327,905,o),
(322,880,qs),
(318,855,o),
(283,825,o),
(260,825,qs)
);
}
);
width = 600;
}
);
unicode = 196;
},
{
glyphname = Adotbelow;
layers = (
{
layerId = "0892077F-E13C-4B35-A2A2-3732A46C3F7E";
shapes = (
{
closed = 1;
nodes = (
(411.253,285,l),
(416.094,165,l),
(82.094,165,l),
(129.253,285,l)
);
},
{
closed = 1;
nodes = (
(319.511,536,ls),
(319.098,545,o),
(313.098,545,o),
(309.511,536,cs),
(105.877,39,ls),
(91.705,4,o),
(68.237,-10,o),
(27.237,-10,cs),
(-33.763,-10,o),
(-54.121,22,o),
(-25.66,87,cs),
(215.084,647,ls),
(242.192,710,o),
(286.482,740,o),
(350.482,740,cs),
(414.482,740,o),
(448.192,710,o),
(453.084,647,cs),
(496.34,87,ls),
(501.879,22,o),
(467.237,-10,o),
(408.237,-10,cs),
(367.237,-10,o),
(350.058,6,o),
(347.877,39,cs)
);
},
{
closed = 1;
nodes = (
(138,-233,o),
(96,-191,o),
(103,-155,qs),
(109,-119,o),
(165,-77,o),
(206,-77,qs),
(247,-77,o),
(289,-119,o),
(283,-155,qs),
(276,-191,o),
(220,-233,o),
(179,-233,qs)
);
}
);
width = 600;
},
{
layerId = "8BB99DCB-260E-4CD5-8804-53D8F723A4FE";
shapes = (
{
closed = 1;
nodes = (
(415,270,l),
(420,194,l),
(88,194,l),
(121,270,l)
);
},
{
closed = 1;
nodes = (
(333,611,ls),
(332,619,o),
(326,619,o),
(323,611,cs),
(60,19,ls),
(52,0,o),
(38,-10,o),
(13,-10,cs),
(-22,-10,o),
(-34,9,o),
(-17,48,cs),
(265,681,ls),
(283,720,o),
(309,740,o),
(350,740,cs),
(391,740,o),
(411,720,o),
(415,681,cs),
(473,48,ls),
(478,9,o),
(458,-10,o),
(423,-10,cs),
(398,-10,o),
(388,0,o),
(386,19,cs)
);
},
{
closed = 1;
nodes = (
(149,-213,o),
(117,-179,o),
(123,-150,qs),
(128,-120,o),
(172,-85,o),
(205,-85,qs),
(238,-85,o),
(270,-120,o),
(265,-150,qs),
(259,-179,o),
(215,-213,o),
(182,-213,qs)
);
}
);
width = 600;
},
{
layerId = "4966EE82-C4DA-425A-8D74-1CF207294ED7";
shapes = (
{
closed = 1;
nodes = (
(407,250,l),
(411,200,l),
(100,200,l),
(122,250,l)
);
},
{
closed = 1;
nodes = (
(340,660,ls),
(339,666,o),
(335,666,o),
(332,660,cs),
(37,7,ls),
(32,-4,o),
(25,-10,o),
(10,-10,cs),
(-10,-10,o),
(-17,1,o),
(-7,23,cs),
(307,711,ls),
(316,730,o),
(330,740,o),
(350,740,cs),
(370,740,o),
(382,730,o),
(383,711,cs),
(455,23,ls),
(457,1,o),
(446,-10,o),
(426,-10,cs),
(411,-10,o),
(406,-4,o),
(405,7,cs)
);
},
{
closed = 1;
nodes = (
(158,-205,o),
(131,-175,o),
(136,-150,qs),
(140,-125,o),
(177,-95,o),
(203,-95,qs),
(229,-95,o),
(256,-125,o),
(252,-150,qs),
(247,-175,o),
(210,-205,o),
(184,-205,qs)
);
}
);
width = 600;
}
);
unicode = 7840;
},
{
glyphname = Agrave;
layers = (
{
layerId = "0892077F-E13C-4B35-A2A2-3732A46C3F7E";
shapes = (
{
closed = 1;
nodes = (
(411.253,285,l),
(416.094,165,l),
(82.094,165,l),
(129.253,285,l)
);
},
{
closed = 1;
nodes = (
(319.511,536,ls),
(319.098,545,o),
(313.098,545,o),
(309.511,536,cs),
(105.877,39,ls),
(91.705,4,o),
(68.237,-10,o),
(27.237,-10,cs),
(-33.763,-10,o),
(-54.121,22,o),
(-25.66,87,cs),
(215.084,647,ls),
(242.192,710,o),
(286.482,740,o),
(350.482,740,cs),
(414.482,740,o),
(448.192,710,o),
(453.084,647,cs),
(496.34,87,ls),
(501.879,22,o),
(467.237,-10,o),
(408.237,-10,cs),
(367.237,-10,o),
(350.058,6,o),
(347.877,39,cs)
);
},
{
closed = 1;
nodes = (
(318,810,o),
(292,820,o),
(275,848,cs),
(258,873,ls),
(221,929,o),
(247,950,o),
(313,950,cs),
(357,950,o),
(380,937,o),
(395,910,cs),
(407,890,ls),
(437,836,o),
(420,810,o),
(353,810,cs)
);
}
);
width = 600;
},
{
layerId = "8BB99DCB-260E-4CD5-8804-53D8F723A4FE";
shapes = (
{
closed = 1;
nodes = (
(415,270,l),
(420,194,l),
(88,194,l),
(121,270,l)
);
},
{
closed = 1;
nodes = (
(333,611,ls),
(332,619,o),
(326,619,o),
(323,611,cs),
(60,19,ls),
(52,0,o),
(38,-10,o),
(13,-10,cs),
(-22,-10,o),
(-34,9,o),
(-17,48,cs),
(265,681,ls),
(283,720,o),
(309,740,o),
(350,740,cs),
(391,740,o),
(411,720,o),
(415,681,cs),
(473,48,ls),
(478,9,o),
(458,-10,o),
(423,-10,cs),
(398,-10,o),
(388,0,o),
(386,19,cs)
);
},
{
closed = 1;
nodes = (
(341,810,o),
(324,818,o),
(314,834,cs),
(272,898,ls),
(251,933,o),
(262,950,o),
(307,950,cs),
(329,950,o),
(345,942,o),
(356,924,cs),
(395,860,ls),
(415,827,o),
(404,810,o),
(362,810,cs)
);
}
);
width = 600;
},
{
layerId = "4966EE82-C4DA-425A-8D74-1CF207294ED7";
shapes = (
{
closed = 1;
nodes = (
(407,250,l),
(411,200,l),
(100,200,l),
(122,250,l)
);
},
{
closed = 1;
nodes = (
(340,660,ls),
(339,666,o),
(335,666,o),
(332,660,cs),
(37,7,ls),
(32,-4,o),
(25,-10,o),
(10,-10,cs),
(-10,-10,o),
(-17,1,o),
(-7,23,cs),
(307,711,ls),
(316,730,o),
(330,740,o),
(350,740,cs),
(370,740,o),
(382,730,o),
(383,711,cs),
(455,23,ls),
(457,1,o),
(446,-10,o),
(426,-10,cs),
(411,-10,o),
(406,-4,o),
(405,7,cs)
);
},
{
closed = 1;
nodes = (
(352,810,o),
(344,814,o),
(337,824,cs),
(278,918,ls),
(265,939,o),
(273,950,o),
(300,950,cs),
(314,950,o),
(323,945,o),
(329,934,cs),
(384,839,ls),
(395,819,o),
(389,810,o),
(364,810,cs)
);
}
);
width = 600;
}
);
unicode = 192;
},
{
glyphname = Ahookabove;
layers = (
{
layerId = "0892077F-E13C-4B35-A2A2-3732A46C3F7E";
shapes = (
{
closed = 1;
nodes = (
(411.253,285,l),
(416.094,165,l),
(82.094,165,l),
(129.253,285,l)
);
},
{
closed = 1;
nodes = (
(319.511,536,ls),
(319.098,545,o),
(313.098,545,o),
(309.511,536,cs),
(105.877,39,ls),
(91.705,4,o),
(68.237,-10,o),
(27.237,-10,cs),
(-33.763,-10,o),
(-54.121,22,o),
(-25.66,87,cs),
(215.084,647,ls),
(242.192,710,o),
(286.482,740,o),
(350.482,740,cs),
(414.482,740,o),
(448.192,710,o),
(453.084,647,cs),
(496.34,87,ls),
(501.879,22,o),
(467.237,-10,o),
(408.237,-10,cs),
(367.237,-10,o),
(350.058,6,o),
(347.877,39,cs)
);
},
{
closed = 1;
nodes = (
(337,796,o),
(319,817,o),
(360,852,cs),
(363,854,ls),
(383,871,o),
(383,883,qs),
(384,900,o),
(359,900,qs),
(321,900,ls),
(293,900,o),
(281,915,o),
(286,943,cs),
(291,971,o),
(308,985,o),
(336,985,cs),
(399,985,ls),
(446,985,o),
(494,938,o),
(489,899,qs),
(482,864,o),
(456,838,qs),
(441,824,ls),
(422,805,o),
(401,796,o),
(376,796,cs)
);
}
);
width = 600;
},
{
layerId = "8BB99DCB-260E-4CD5-8804-53D8F723A4FE";
shapes = (
{
closed = 1;
nodes = (
(415,270,l),
(420,194,l),
(88,194,l),
(121,270,l)
);
},
{
closed = 1;
nodes = (
(333,611,ls),
(332,619,o),
(326,619,o),
(323,611,cs),
(60,19,ls),
(52,0,o),
(38,-10,o),
(13,-10,cs),
(-22,-10,o),
(-34,9,o),
(-17,48,cs),
(265,681,ls),
(283,720,o),
(309,740,o),
(350,740,cs),
(391,740,o),
(411,720,o),
(415,681,cs),
(473,48,ls),
(478,9,o),
(458,-10,o),
(423,-10,cs),
(398,-10,o),
(388,0,o),
(386,19,cs)
);
},
{
closed = 1;
nodes = (
(348,800,o),
(333,814,o),
(362,844,cs),
(380,863,l),
(398,882,o),
(400,895,qs),
(403,915,o),
(371,915,qs),
(323,915,ls),
(301,915,o),
(293,926,o),
(297,948,cs),
(301,970,o),
(313,980,o),
(335,980,cs),
(408,980,ls),
(446,980,o),
(486,941,o),
(480,906,qs),
(474,874,o),
(453,852,qs),
(425,822,ls),
(410,807,o),
(395,800,o),
(376,800,cs)
);
}
);
width = 600;
},
{
layerId = "4966EE82-C4DA-425A-8D74-1CF207294ED7";
shapes = (
{
closed = 1;
nodes = (
(407,250,l),
(411,200,l),
(100,200,l),
(122,250,l)
);
},
{
closed = 1;
nodes = (
(340,660,ls),
(339,666,o),
(335,666,o),
(332,660,cs),
(37,7,ls),
(32,-4,o),
(25,-10,o),
(10,-10,cs),
(-10,-10,o),
(-17,1,o),
(-7,23,cs),
(307,711,ls),
(316,730,o),
(330,740,o),
(350,740,cs),
(370,740,o),
(382,730,o),
(383,711,cs),
(455,23,ls),
(457,1,o),
(446,-10,o),
(426,-10,cs),
(411,-10,o),
(406,-4,o),
(405,7,cs)
);
},
{
closed = 1;
nodes = (
(351,800,o),
(342,808,o),
(359,826,cs),
(404,876,ls),
(426,900,o),
(428,912,qs),
(433,940,o),
(396,940,qs),
(325,940,ls),
(315,940,o),
(309,946,o),
(311,958,cs),
(313,970,o),
(321,975,o),
(331,975,cs),
(402,975,ls),
(437,975,o),
(473,943,o),
(469,916,qs),
(464,890,o),
(440,863,qs),
(395,813,ls),
(388,804,o),
(379,800,o),
(368,800,cs)
);
}
);
width = 600;
}
);
unicode = 7842;
},
{
glyphname = Amacron;
layers = (
{
layerId = "0892077F-E13C-4B35-A2A2-3732A46C3F7E";
shapes = (
{
closed = 1;
nodes = (
(411.253,285,l),
(416.094,165,l),
(82.094,165,l),
(129.253,285,l)
);
},
{
closed = 1;
nodes = (
(319.511,536,ls),
(319.098,545,o),
(313.098,545,o),
(309.511,536,cs),
(105.877,39,ls),
(91.705,4,o),
(68.237,-10,o),
(27.237,-10,cs),
(-33.763,-10,o),
(-54.121,22,o),
(-25.66,87,cs),
(215.084,647,ls),
(242.192,710,o),
(286.482,740,o),
(350.482,740,cs),
(414.482,740,o),
(448.192,710,o),
(453.084,647,cs),
(496.34,87,ls),
(501.879,22,o),
(467.237,-10,o),
(408.237,-10,cs),
(367.237,-10,o),
(350.058,6,o),
(347.877,39,cs)
);
},
{
closed = 1;
nodes = (
(240,820,ls),
(203,820,o),
(188,838,o),
(194,875,cs),
(201,912,o),
(222,930,o),
(259,930,cs),
(509,930,ls),
(546,930,o),
(561,912,o),
(554,875,cs),
(548,838,o),
(527,820,o),
(490,820,cs)
);
}
);
width = 600;
},
{
layerId = "8BB99DCB-260E-4CD5-8804-53D8F723A4FE";
shapes = (
{
closed = 1;
nodes = (
(415,270,l),
(420,194,l),
(88,194,l),
(121,270,l)
);
},
{
closed = 1;
nodes = (
(333,611,ls),
(332,619,o),
(326,619,o),
(323,611,cs),
(60,19,ls),
(52,0,o),
(38,-10,o),
(13,-10,cs),
(-22,-10,o),
(-34,9,o),
(-17,48,cs),
(265,681,ls),
(283,720,o),
(309,740,o),
(350,740,cs),
(391,740,o),
(411,720,o),
(415,681,cs),
(473,48,ls),
(478,9,o),
(458,-10,o),
(423,-10,cs),
(398,-10,o),
(388,0,o),
(386,19,cs)
);
},
{
closed = 1;
nodes = (
(245,840,ls),
(220,840,o),
(210,853,o),
(215,878,cs),
(219,903,o),
(233,915,o),
(258,915,cs),
(503,915,ls),
(528,915,o),
(539,903,o),
(535,878,cs),
(530,853,o),
(515,840,o),
(490,840,cs)
);
}
);
width = 600;
},
{
layerId = "4966EE82-C4DA-425A-8D74-1CF207294ED7";
shapes = (
{
closed = 1;
nodes = (
(407,250,l),
(411,200,l),
(100,200,l),
(122,250,l)
);
},
{
closed = 1;
nodes = (
(340,660,ls),
(339,666,o),
(335,666,o),
(332,660,cs),
(37,7,ls),
(32,-4,o),
(25,-10,o),
(10,-10,cs),
(-10,-10,o),
(-17,1,o),
(-7,23,cs),
(307,711,ls),
(316,730,o),
(330,740,o),
(350,740,cs),
(370,740,o),
(382,730,o),
(383,711,cs),
(455,23,ls),
(457,1,o),
(446,-10,o),
(426,-10,cs),
(411,-10,o),
(406,-4,o),
(405,7,cs)
);
},
{
closed = 1;
nodes = (
(252,854,ls),
(238,854,o),
(232,862,o),
(234,876,cs),
(237,890,o),
(245,897,o),
(259,897,cs),
(497,897,ls),
(511,897,o),
(517,890,o),
(514,876,cs),
(512,862,o),
(504,854,o),
(490,854,cs)
);
}
);
width = 600;
}
);
unicode = 256;
},
{
glyphname = Aogonek;
layers = (
{
layerId = "0892077F-E13C-4B35-A2A2-3732A46C3F7E";
shapes = (
{
closed = 1;
nodes = (
(411.253,285,l),
(416.094,165,l),
(82.094,165,l),
(129.253,285,l)
);
},
{
closed = 1;
nodes = (
(319.511,536,ls),
(319.098,545,o),
(313.098,545,o),
(309.511,536,cs),
(105.877,39,ls),
(91.705,4,o),
(68.237,-10,o),
(27.237,-10,cs),
(-33.763,-10,o),
(-54.121,22,o),
(-25.66,87,cs),
(215.084,647,ls),
(242.192,710,o),
(286.482,740,o),
(350.482,740,cs),
(414.482,740,o),
(448.192,710,o),
(453.084,647,cs),
(496.34,87,ls),
(501.879,22,o),
(467.237,-10,o),
(408.237,-10,cs),
(367.237,-10,o),
(350.058,6,o),
(347.877,39,cs)
);
},
{
closed = 1;
nodes = (
(440,-120,ls),
(475,-120,o),
(489,-138,o),
(482,-173,cs),
(476,-208,o),
(455,-225,o),
(420,-225,cs),
(365,-225,ls),
(304,-225,o),
(245,-164,o),
(254,-115,qs),
(260,-80,o),
(332,-11,o),
(387,11,q),
(473,11,l),
(436,-18,ls),
(414,-36,o),
(386,-70,o),
(383,-83,qs),
(381,-98,o),
(401,-120,o),
(423,-120,qs)
);
}
);
width = 600;
},
{
layerId = "8BB99DCB-260E-4CD5-8804-53D8F723A4FE";
shapes = (
{
closed = 1;
nodes = (
(415,270,l),
(420,194,l),
(88,194,l),
(121,270,l)
);
},
{
closed = 1;
nodes = (
(333,611,ls),
(332,619,o),
(326,619,o),
(323,611,cs),
(60,19,ls),
(52,0,o),
(38,-10,o),
(13,-10,cs),
(-22,-10,o),
(-34,9,o),
(-17,48,cs),
(265,681,ls),
(283,720,o),
(309,740,o),
(350,740,cs),
(391,740,o),
(411,720,o),
(415,681,cs),
(473,48,ls),
(478,9,o),
(458,-10,o),
(423,-10,cs),
(398,-10,o),
(388,0,o),
(386,19,cs)
);
},
{
closed = 1;
nodes = (
(444,-143,ls),
(464,-143,o),
(472,-153,o),
(468,-173,cs),
(465,-193,o),
(453,-203,o),
(433,-203,cs),
(385,-203,ls),
(330,-203,o),
(273,-150,o),
(280,-110,qs),
(285,-81,o),
(333,-23,o),
(386,10,q),
(461,10,l),
(448,1,ls),
(409,-27,o),
(371,-72,o),
(368,-93,qs),
(364,-115,o),
(389,-143,o),
(414,-143,qs)
);
}
);
width = 600;
},
{
layerId = "4966EE82-C4DA-425A-8D74-1CF207294ED7";
shapes = (
{
closed = 1;
nodes = (
(407,250,l),
(411,200,l),
(100,200,l),
(122,250,l)
);
},
{
closed = 1;
nodes = (
(340,660,ls),
(339,666,o),
(335,666,o),
(332,660,cs),
(37,7,ls),
(32,-4,o),
(25,-10,o),
(10,-10,cs),
(-10,-10,o),
(-17,1,o),
(-7,23,cs),
(307,711,ls),
(316,730,o),
(330,740,o),
(350,740,cs),
(370,740,o),
(382,730,o),
(383,711,cs),
(455,23,ls),
(457,1,o),
(446,-10,o),
(426,-10,cs),
(411,-10,o),
(406,-4,o),
(405,7,cs)
);
},
{
closed = 1;
nodes = (
(468,-153,ls),
(482,-153,o),
(488,-160,o),
(485,-174,cs),
(483,-188,o),
(475,-195,o),
(461,-195,cs),
(409,-195,ls),
(368,-195,o),
(327,-152,o),
(334,-115,qs),
(339,-84,o),
(395,-18,o),
(438,10,q),
(475,10,l),
(462,0,l),
(429,-27,o),
(387,-82,o),
(383,-103,qs),
(379,-126,o),
(401,-153,o),
(425,-153,qs)
);
}
);
width = 600;
}
);
unicode = 260;
},
{
glyphname = Aring;
layers = (
{
layerId = "0892077F-E13C-4B35-A2A2-3732A46C3F7E";
shapes = (
{
closed = 1;
nodes = (
(411.253,285,l),
(416.094,165,l),
(82.094,165,l),
(129.253,285,l)
);
},
{
closed = 1;
nodes = (
(319.511,536,ls),
(319.098,545,o),
(313.098,545,o),
(309.511,536,cs),
(105.877,39,ls),
(91.705,4,o),
(68.237,-10,o),
(27.237,-10,cs),
(-33.763,-10,o),
(-54.121,22,o),
(-25.66,87,cs),
(215.084,647,ls),
(242.192,710,o),
(286.482,740,o),
(350.482,740,cs),
(414.482,740,o),
(448.192,710,o),
(453.084,647,cs),
(496.34,87,ls),
(501.879,22,o),
(467.237,-10,o),
(408.237,-10,cs),
(367.237,-10,o),
(350.058,6,o),
(347.877,39,cs)
);
},
{
closed = 1;
nodes = (
(290,753,o),
(225,823,o),
(235,880,qs),
(245,937,o),
(335,1007,o),
(398,1007,qs),
(461,1007,o),
(525,937,o),
(515,880,qs),
(505,823,o),
(416,753,o),
(353,753,qs)
);
},
{
closed = 1;
nodes = (
(392,823,o),
(431,855,o),
(435,881,qs),
(440,906,o),
(412,937,o),
(385,937,qs),
(358,937,o),
(320,906,o),
(315,880,qs),
(311,855,o),
(338,823,o),
(365,823,qs)
);
}
);
width = 600;
},
{
layerId = "8BB99DCB-260E-4CD5-8804-53D8F723A4FE";
shapes = (
{
closed = 1;
nodes = (
(415,270,l),
(420,194,l),
(88,194,l),
(121,270,l)
);
},
{
closed = 1;
nodes = (
(333,611,ls),
(332,619,o),
(326,619,o),
(323,611,cs),
(60,19,ls),
(52,0,o),
(38,-10,o),
(13,-10,cs),
(-22,-10,o),
(-34,9,o),
(-17,48,cs),
(265,681,ls),
(283,720,o),
(309,740,o),
(350,740,cs),
(391,740,o),
(411,720,o),
(415,681,cs),
(473,48,ls),
(478,9,o),
(458,-10,o),
(423,-10,cs),
(398,-10,o),
(388,0,o),
(386,19,cs)
);
},
{
closed = 1;
nodes = (
(301,766,o),
(246,829,o),
(255,880,qs),
(264,931,o),
(341,994,o),
(395,994,qs),
(449,994,o),
(504,931,o),
(495,880,qs),
(486,829,o),
(409,766,o),
(355,766,qs)
);
},
{
closed = 1;
nodes = (
(391,819,o),
(430,852,o),
(435,880,qs),
(440,908,o),
(413,942,o),
(386,942,qs),
(359,942,o),
(320,908,o),
(315,880,qs),
(310,852,o),
(337,819,o),
(364,819,qs)
);
}
);
width = 600;
},
{
layerId = "4966EE82-C4DA-425A-8D74-1CF207294ED7";
shapes = (
{
closed = 1;
nodes = (
(407,250,l),
(411,200,l),
(100,200,l),
(122,250,l)
);
},
{
closed = 1;
nodes = (
(340,660,ls),
(339,666,o),
(335,666,o),
(332,660,cs),
(37,7,ls),
(32,-4,o),
(25,-10,o),
(10,-10,cs),
(-10,-10,o),
(-17,1,o),
(-7,23,cs),
(307,711,ls),
(316,730,o),
(330,740,o),
(350,740,cs),
(370,740,o),
(382,730,o),
(383,711,cs),
(455,23,ls),
(457,1,o),
(446,-10,o),
(426,-10,cs),
(411,-10,o),
(406,-4,o),
(405,7,cs)
);
},
{
closed = 1;
nodes = (
(312,780,o),
(262,835,o),
(270,880,qs),
(278,925,o),
(347,980,o),
(394,980,qs),
(441,980,o),
(488,925,o),
(480,880,qs),
(472,835,o),
(406,780,o),
(359,780,qs)
);
},
{
closed = 1;
nodes = (
(393,815,o),
(435,851,o),
(440,880,qs),
(445,909,o),
(416,945,o),
(387,945,qs),
(358,945,o),
(315,909,o),
(310,880,qs),
(305,851,o),
(335,815,o),
(364,815,qs)
);
}
);
width = 600;
}
);
unicode = 197;
},
{
glyphname = Atilde;
layers = (
{
layerId = "0892077F-E13C-4B35-A2A2-3732A46C3F7E";
shapes = (
{
closed = 1;
nodes = (
(411.253,285,l),
(416.094,165,l),
(82.094,165,l),
(129.253,285,l)
);
},
{
closed = 1;
nodes = (
(319.511,536,ls),
(319.098,545,o),
(313.098,545,o),
(309.511,536,cs),
(105.877,39,ls),
(91.705,4,o),
(68.237,-10,o),
(27.237,-10,cs),
(-33.763,-10,o),
(-54.121,22,o),
(-25.66,87,cs),
(215.084,647,ls),
(242.192,710,o),
(286.482,740,o),
(350.482,740,cs),
(414.482,740,o),
(448.192,710,o),
(453.084,647,cs),
(496.34,87,ls),
(501.879,22,o),
(467.237,-10,o),
(408.237,-10,cs),
(367.237,-10,o),
(350.058,6,o),
(347.877,39,cs)
);
},
{
closed = 1;
nodes = (
(258,817,o),
(241,805,o),
(224,805,cs),
(195,805,o),
(183,819,o),
(189,847,cs),
(203,910,o),
(253,960,o),
(319,960,cs),
(405,960,o),
(402,900,o),
(444,900,cs),
(458,900,o),
(467,905,o),
(472,913,cs),
(493,943,o),
(508,955,o),
(525,955,cs),
(554,955,o),
(567,941,o),
(561,913,cs),
(547,850,o),
(498,800,o),
(431,800,cs),
(345,800,o),
(349,860,o),
(307,860,cs),
(294,860,o),
(285,855,o),
(279,847,cs)
);
}
);
width = 600;
},
{
layerId = "8BB99DCB-260E-4CD5-8804-53D8F723A4FE";
shapes = (
{
closed = 1;
nodes = (
(415,270,l),
(420,194,l),
(88,194,l),
(121,270,l)
);
},
{
closed = 1;
nodes = (
(333,611,ls),
(332,619,o),
(326,619,o),
(323,611,cs),
(60,19,ls),
(52,0,o),
(38,-10,o),
(13,-10,cs),
(-22,-10,o),
(-34,9,o),
(-17,48,cs),
(265,681,ls),
(283,720,o),
(309,740,o),
(350,740,cs),
(391,740,o),
(411,720,o),
(415,681,cs),
(473,48,ls),
(478,9,o),
(458,-10,o),
(423,-10,cs),
(398,-10,o),
(388,0,o),
(386,19,cs)
);
},
{
closed = 1;
nodes = (
(269,829,o),
(258,820,o),
(237,820,cs),
(215,820,o),
(207,831,o),
(210,853,cs),
(221,908,o),
(260,945,o),
(317,945,cs),
(400,945,o),
(392,875,o),
(439,875,cs),
(462,875,o),
(471,891,o),
(475,908,cs),
(481,931,o),
(492,940,o),
(513,940,cs),
(535,940,o),
(544,929,o),
(540,907,cs),
(529,852,o),
(491,815,o),
(434,815,cs),
(351,815,o),
(358,885,o),
(311,885,cs),
(289,885,o),
(280,869,o),
(275,852,cs)
);
}
);
width = 600;
},
{
layerId = "4966EE82-C4DA-425A-8D74-1CF207294ED7";
shapes = (
{
closed = 1;
nodes = (
(407,250,l),
(411,200,l),
(100,200,l),
(122,250,l)
);
},
{
closed = 1;
nodes = (
(340,660,ls),
(339,666,o),
(335,666,o),
(332,660,cs),
(37,7,ls),
(32,-4,o),
(25,-10,o),
(10,-10,cs),
(-10,-10,o),
(-17,1,o),
(-7,23,cs),
(307,711,ls),
(316,730,o),
(330,740,o),
(350,740,cs),
(370,740,o),
(382,730,o),
(383,711,cs),
(455,23,ls),
(457,1,o),
(446,-10,o),
(426,-10,cs),
(411,-10,o),
(406,-4,o),
(405,7,cs)
);
},
{
closed = 1;
nodes = (
(246,827,o),
(238,820,o),
(225,820,cs),
(212,820,o),
(206,827,o),
(208,840,cs),
(220,907,o),
(248,945,o),
(317,945,cs),
(396,945,o),
(393,854,o),
(446,854,cs),
(487,854,o),
(497,888,o),
(502,920,cs),
(505,933,o),
(513,940,o),
(526,940,cs),
(539,940,o),
(545,933,o),
(542,920,cs),
(531,857,o),
(507,815,o),
(439,815,cs),
(360,815,o),
(363,906,o),
(310,906,cs),
(265,906,o),
(254,873,o),
(248,840,cs)
);
}
);
width = 600;
}
);
unicode = 195;
},
{
color = (153, 254, 255, 255);
glyphname = AE;
layers = (
{
layerId = "0892077F-E13C-4B35-A2A2-3732A46C3F7E";
shapes = (
{
closed = 1;
nodes = (
(313,581,ls),
(316,597,o),
(310,605,o),
(294,605,cs),
(278,605,o),
(266,597,o),
(260,581,cs),
(83,61,ls),
(66,14,o),
(36,-10,o),
(-12,-10,cs),
(-60,-10,o),
(-76,13,o),
(-58,60,cs),
(150,632,ls),
(174,698,o),
(219,730,o),
(286,730,cs),
(567,730,ls),
(609,730,o),
(625,710,o),
(618,668,cs),
(610,626,o),
(587,605,o),
(545,605,cs),
(468,605,ls),
(451,605,o),
(441,597,o),
(438,580,cs),
(413,436,l),
(486,436,ls),
(530,436,o),
(548,415,o),
(540,371,cs),
(533,327,o),
(507,305,o),
(463,305,cs),
(390,305,l),
(367,176,ls),
(361,142,o),
(375,126,o),
(408,126,cs),
(459,126,ls),
(501,126,o),
(519,105,o),
(511,63,cs),
(504,21,o),
(479,0,o),
(437,0,cs),
(311,0,ls),
(244,0,o),
(217,33,o),
(229,100,cs)
);
},
{
closed = 1;
nodes = (
(331,285,l),
(310,165,l),
(32,165,l),
(79,285,l)
);
}
);
width = 600;
},
{
anchors = (
{
name = m.uni0308;
position = "{349, 730}";
},
{
name = m.uni0325_2;
position = "{220, 0}";
}
);
layerId = "8BB99DCB-260E-4CD5-8804-53D8F723A4FE";
shapes = (
{
closed = 1;
nodes = (
(331,620,ls),
(335,639,o),
(327,648,o),
(308,648,cs),
(289,648,o),
(278,639,o),
(270,621,c),
(54,35,ls),
(43,5,o),
(22,-10,o),
(-8,-10,cs),
(-38,-10,o),
(-48,5,o),
(-37,35,cs),
(194,652,ls),
(213,705,o),
(250,730,o),
(304,730,cs),
(579,730,ls),
(606,730,o),
(616,717,o),
(612,690,cs),
(607,663,o),
(591,648,o),
(564,648,cs),
(442,648,ls),
(429,648,o),
(421,641,o),
(419,628,cs),
(382,420,l),
(499,420,ls),
(526,420,o),
(537,407,o),
(532,380,cs),
(527,353,o),
(512,338,o),
(485,338,cs),
(368,338,l),
(330,122,ls),
(325,95,o),
(335,82,o),
(362,82,cs),
(464,82,ls),
(491,82,o),
(502,69,o),
(497,42,cs),
(493,15,o),
(477,0,o),
(450,0,cs),
(302,0,ls),
(248,0,o),
(227,26,o),
(236,80,cs)
);
},
{
closed = 1;
nodes = (
(315,270,l),
(301,194,l),
(58,194,l),
(91,270,l)
);
}
);
width = 600;
},
{
layerId = "4966EE82-C4DA-425A-8D74-1CF207294ED7";
shapes = (
{
closed = 1;
nodes = (
(346,659,ls),
(349,676,o),
(343,685,o),
(326,685,cs),
(309,685,o),
(296,677,o),
(289,660,cs),
(9,14,ls),
(3,-2,o),
(-9,-10,o),
(-26,-10,cs),
(-43,-10,o),
(-47,-2,o),
(-41,14,cs),
(245,672,ls),
(262,711,o),
(291,730,o),
(331,730,cs),
(595,730,ls),
(610,730,o),
(616,723,o),
(614,708,cs),
(611,693,o),
(603,685,o),
(588,685,cs),
(416,685,ls),
(406,685,o),
(400,680,o),
(398,670,cs),
(351,402,l),
(502,402,ls),
(517,402,o),
(523,395,o),
(520,380,cs),
(517,365,o),
(509,357,o),
(494,357,cs),
(343,357,l),
(293,75,ls),
(290,55,o),
(298,45,o),
(318,45,cs),
(475,45,ls),
(490,45,o),
(496,38,o),
(493,23,cs),
(490,8,o),
(481,0,o),
(466,0,cs),
(290,0,ls),
(250,0,o),
(234,20,o),
(241,60,cs)
);
},
{
closed = 1;
nodes = (
(297,250,l),
(288,200,l),
(60,200,l),
(82,250,l)
);
}
);
width = 600;
}
);
unicode = 198;
},
{
glyphname = AEacute;
layers = (
{
layerId = "0892077F-E13C-4B35-A2A2-3732A46C3F7E";
shapes = (
{
closed = 1;
nodes = (
(313,581,ls),
(316,597,o),
(310,605,o),
(294,605,cs),
(278,605,o),
(266,597,o),
(260,581,cs),
(83,61,ls),
(66,14,o),
(36,-10,o),
(-12,-10,cs),
(-60,-10,o),
(-76,13,o),
(-58,60,cs),
(150,632,ls),
(174,698,o),
(219,730,o),
(286,730,cs),
(567,730,ls),
(609,730,o),
(625,710,o),
(618,668,cs),
(610,626,o),
(587,605,o),
(545,605,cs),
(468,605,ls),
(451,605,o),
(441,597,o),
(438,580,cs),
(413,436,l),
(486,436,ls),
(530,436,o),
(548,415,o),
(540,371,cs),
(533,327,o),
(507,305,o),
(463,305,cs),
(390,305,l),
(367,176,ls),
(361,142,o),
(375,126,o),
(408,126,cs),
(459,126,ls),
(501,126,o),
(519,105,o),
(511,63,cs),
(504,21,o),
(479,0,o),
(437,0,cs),
(311,0,ls),
(244,0,o),
(217,33,o),
(229,100,cs)
);
},
{
closed = 1;
nodes = (
(331,285,l),
(310,165,l),
(32,165,l),
(79,285,l)
);
},
{
closed = 1;
nodes = (
(307,810,o),
(300,835,o),
(349,889,cs),
(367,910,ls),
(397,943,o),
(427,950,o),
(466,950,cs),
(533,950,o),
(540,924,o),
(488,873,cs),
(463,848,ls),
(437,822,o),
(407,810,o),
(374,810,cs)
);
}
);
width = 600;
},
{
layerId = "8BB99DCB-260E-4CD5-8804-53D8F723A4FE";
shapes = (
{
closed = 1;
nodes = (
(331,620,ls),
(335,639,o),
(327,648,o),
(308,648,cs),
(289,648,o),
(278,639,o),
(270,621,c),
(54,35,ls),
(43,5,o),
(22,-10,o),
(-8,-10,cs),
(-38,-10,o),
(-48,5,o),
(-37,35,cs),
(194,652,ls),
(213,705,o),
(250,730,o),
(304,730,cs),
(579,730,ls),
(606,730,o),
(616,717,o),
(612,690,cs),
(607,663,o),
(591,648,o),
(564,648,cs),
(442,648,ls),
(429,648,o),
(421,641,o),
(419,628,cs),
(382,420,l),
(499,420,ls),
(526,420,o),
(537,407,o),
(532,380,cs),
(527,353,o),
(512,338,o),
(485,338,cs),
(368,338,l),
(330,122,ls),
(325,95,o),
(335,82,o),
(362,82,cs),
(464,82,ls),
(491,82,o),
(502,69,o),
(497,42,cs),
(493,15,o),
(477,0,o),
(450,0,cs),
(302,0,ls),
(248,0,o),
(227,26,o),
(236,80,cs)
);
},
{
closed = 1;
nodes = (
(315,270,l),
(301,194,l),
(58,194,l),
(91,270,l)
);
},
{
closed = 1;
nodes = (
(325,810,o),
(320,826,o),
(350,859,cs),
(411,924,ls),
(427,941,o),
(446,950,o),
(468,950,cs),
(511,950,o),
(517,933,o),
(484,899,cs),
(420,834,ls),
(404,818,o),
(387,810,o),
(366,810,cs)
);
}
);
width = 600;
},
{
layerId = "4966EE82-C4DA-425A-8D74-1CF207294ED7";
shapes = (
{
closed = 1;
nodes = (
(346,659,ls),
(349,676,o),
(343,685,o),
(326,685,cs),
(309,685,o),
(296,677,o),
(289,660,cs),
(9,14,ls),
(3,-2,o),
(-9,-10,o),
(-26,-10,cs),
(-43,-10,o),
(-47,-2,o),
(-41,14,cs),
(245,672,ls),
(262,711,o),
(291,730,o),
(331,730,cs),
(595,730,ls),
(610,730,o),
(616,723,o),
(614,708,cs),
(611,693,o),
(603,685,o),
(588,685,cs),
(416,685,ls),
(406,685,o),
(400,680,o),
(398,670,cs),
(351,402,l),
(502,402,ls),
(517,402,o),
(523,395,o),
(520,380,cs),
(517,365,o),
(509,357,o),
(494,357,cs),
(343,357,l),
(293,75,ls),
(290,55,o),
(298,45,o),
(318,45,cs),
(475,45,ls),
(490,45,o),
(496,38,o),
(493,23,cs),
(490,8,o),
(481,0,o),
(466,0,cs),
(290,0,ls),
(250,0,o),
(234,20,o),
(241,60,cs)
);
},
{
closed = 1;
nodes = (
(297,250,l),
(288,200,l),
(60,200,l),
(82,250,l)
);
},
{
closed = 1;
nodes = (
(338,810,o),
(335,819,o),
(353,838,cs),
(443,934,ls),
(453,945,o),
(465,950,o),
(478,950,cs),
(504,950,o),
(506,940,o),
(486,919,cs),
(393,824,ls),
(385,815,o),
(374,810,o),
(362,810,cs)
);
}
);
width = 600;
}
);
unicode = 508;
},
{
color = (153, 254, 255, 255);
glyphname = B;
layers = (
{
anchors = (
{
name = bottom;
position = "{220, 0}";
},
{
name = top;
position = "{349, 730}";
}
);
layerId = "0892077F-E13C-4B35-A2A2-3732A46C3F7E";
shapes = (
{
closed = 1;
nodes = (
(350,730,ls),
(496,730,o),
(579,655,o),
(559,541,cs),
(545,459,o),
(484,397,o),
(410,387,c),
(491,378,o),
(535,304,o),
(518,210,cs),
(496,84,o),
(380,0,o),
(230,0,cs),
(86,0,ls),
(19,0,o),
(-8,33,o),
(4,100,cs),
(97,630,ls),
(109,697,o),
(148,730,o),
(215,730,cs)
);
},
{
closed = 1;
nodes = (
(186,310,l),
(164,185,l),
(158,152,o),
(171,135,o),
(205,135,cs),
(249,135,ls),
(314,135,o),
(360,168,o),
(369,224,cs),
(379,280,o),
(345,310,o),
(280,310,cs)
);
},
{
closed = 1;
nodes = (
(210,450,l),
(298,450,ls),
(354,450,o),
(396,469,o),
(405,523,cs),
(415,577,o),
(380,595,o),
(324,595,cs),
(286,595,ls),
(252,595,o),
(233,578,o),
(227,545,cs)
);
}
);
width = 600;
},
{
anchors = (
{
name = bottom;
position = "{220, 0}";
},
{
name = top;
position = "{349, 730}";
}
);
layerId = "8BB99DCB-260E-4CD5-8804-53D8F723A4FE";
shapes = (
{
closed = 1;
nodes = (
(350,730,ls),
(482,730,o),
(549,659,o),
(529,547,cs),
(513,456,o),
(451,396,o),
(372,381,c),
(456,370,o),
(504,305,o),
(485,201,cs),
(464,78,o),
(368,0,o),
(235,0,cs),
(94,0,ls),
(39,0,o),
(18,26,o),
(27,80,cs),
(128,650,ls),
(137,704,o),
(168,730,o),
(223,730,cs)
);
},
{
closed = 1;
nodes = (
(161,335,l),
(125,130,l),
(120,103,o),
(131,90,o),
(158,90,cs),
(241,90,ls),
(325,90,o),
(384,130,o),
(398,208,cs),
(412,287,o),
(368,335,o),
(284,335,cs)
);
},
{
closed = 1;
nodes = (
(177,425,l),
(295,425,ls),
(372,425,o),
(426,463,o),
(438,534,cs),
(451,605,o),
(411,640,o),
(334,640,cs),
(255,640,ls),
(228,640,o),
(213,627,o),
(208,600,cs)
);
}
);
width = 600;
},
{
anchors = (
{
name = bottom;
position = "{220, 0}";
},
{
name = top;
position = "{349, 730}";
}
);
layerId = "4966EE82-C4DA-425A-8D74-1CF207294ED7";
shapes = (
{
closed = 1;
nodes = (
(347,730,ls),
(468,730,o),
(534,656,o),
(514,547,cs),
(499,457,o),
(432,382,o),
(361,377,c),
(446,367,o),
(488,298,o),
(470,200,cs),
(449,78,o),
(353,0,o),
(221,0,cs),
(90,0,ls),
(50,0,o),
(34,20,o),
(41,60,cs),
(148,670,ls),
(155,710,o),
(179,730,o),
(219,730,cs)
);
},
{
closed = 1;
nodes = (
(142,353,l),
(94,80,l),
(91,60,o),
(99,50,o),
(119,50,cs),
(230,50,ls),
(332,50,o),
(403,104,o),
(420,199,cs),
(437,294,o),
(385,353,o),
(283,353,cs)
);
},
{
closed = 1;
nodes = (
(150,398,l),
(288,398,ls),
(382,398,o),
(448,452,o),
(463,541,cs),
(479,630,o),
(431,680,o),
(338,680,cs),
(230,680,ls),
(210,680,o),
(198,670,o),
(195,650,cs)
);
}
);
width = 600;
}
);
unicode = 66;
},
{
color = (153, 254, 255, 255);
glyphname = C;
layers = (
{
layerId = "0892077F-E13C-4B35-A2A2-3732A46C3F7E";
shapes = (
{
closed = 1;
nodes = (
(70,567,o),
(184,740,o),
(407,740,cs),
(525,740,o),
(568,691,o),
(579,636,cs),
(588,593,o),
(576,553,o),
(541,537,cs),
(511,524,o),
(472,533,o),
(458,567,cs),
(449,589,o),
(425,608,o),
(380,608,cs),
(260,608,o),
(204,476,o),
(184,361,cs),
(166,260,o),
(167,125,o),
(296,125,cs),
(340,125,o),
(372,141,o),
(390,156,cs),
(420,182,o),
(456,180,o),
(475,157,cs),
(494,135,o),
(497,93,o),
(463,54,cs),
(419,6,o),
(343,-10,o),
(270,-10,cs),
(28,-10,o),
(0,169,o),
(32,351,cs)
);
}
);
width = 600;
},
{
layerId = "8BB99DCB-260E-4CD5-8804-53D8F723A4FE";
shapes = (
{
closed = 1;
nodes = (
(80,569,o),
(193,740,o),
(406,740,cs),
(517,740,o),
(562,694,o),
(573,646,cs),
(579,614,o),
(568,594,o),
(548,583,cs),
(528,573,o),
(503,573,o),
(490,600,cs),
(477,625,o),
(444,650,o),
(386,650,cs),
(251,650,o),
(161,516,o),
(135,367,cs),
(112,238,o),
(134,80,o),
(292,80,cs),
(330,80,o),
(378,89,o),
(406,108,cs),
(432,126,o),
(458,123,o),
(472,106,cs),
(486,89,o),
(483,63,o),
(453,37,cs),
(405,-3,o),
(333,-10,o),
(272,-10,cs),
(59,-10,o),
(10,168,o),
(45,367,cs)
);
}
);
width = 600;
},
{
layerId = "4966EE82-C4DA-425A-8D74-1CF207294ED7";
shapes = (
{
closed = 1;
nodes = (
(90,569,o),
(201,740,o),
(403,740,cs),
(497,740,o),
(549,703,o),
(560,669,cs),
(565,653,o),
(563,634,o),
(547,627,cs),
(536,622,o),
(522,625,o),
(517,639,cs),
(509,662,o),
(467,690,o),
(416,690,cs),
(229,690,o),
(132,522,o),
(105,366,cs),
(79,220,o),
(106,40,o),
(285,40,cs),
(318,40,o),
(380,46,o),
(412,67,cs),
(432,81,o),
(449,78,o),
(455,68,cs),
(460,59,o),
(459,43,o),
(448,36,cs),
(395,-3,o),
(333,-10,o),
(276,-10,cs),
(67,-10,o),
(20,168,o),
(55,367,cs)
);
}
);
width = 600;
}
);
unicode = 67;
},
{
glyphname = Cacute;
layers = (
{
layerId = "0892077F-E13C-4B35-A2A2-3732A46C3F7E";
shapes = (
{
closed = 1;
nodes = (
(70,567,o),
(184,740,o),
(407,740,cs),
(525,740,o),
(568,691,o),
(579,636,cs),
(588,593,o),
(576,553,o),
(541,537,cs),
(511,524,o),
(472,533,o),
(458,567,cs),
(449,589,o),
(425,608,o),
(380,608,cs),
(260,608,o),
(204,476,o),
(184,361,cs),
(166,260,o),
(167,125,o),
(296,125,cs),
(340,125,o),
(372,141,o),
(390,156,cs),
(420,182,o),
(456,180,o),
(475,157,cs),
(494,135,o),
(497,93,o),
(463,54,cs),
(419,6,o),
(343,-10,o),
(270,-10,cs),
(28,-10,o),
(0,169,o),
(32,351,cs)
);
},
{
closed = 1;
nodes = (
(312,810,o),
(305,835,o),
(354,889,cs),
(372,910,ls),
(402,943,o),
(432,950,o),
(471,950,cs),
(538,950,o),
(545,924,o),
(493,873,cs),
(468,848,ls),
(442,822,o),
(412,810,o),
(379,810,cs)
);
}
);
width = 600;
},
{
layerId = "8BB99DCB-260E-4CD5-8804-53D8F723A4FE";
shapes = (
{
closed = 1;
nodes = (
(80,569,o),
(193,740,o),
(406,740,cs),
(517,740,o),
(562,694,o),
(573,646,cs),
(579,614,o),
(568,594,o),
(548,583,cs),
(528,573,o),
(503,573,o),
(490,600,cs),
(477,625,o),
(444,650,o),
(386,650,cs),
(251,650,o),
(161,516,o),
(135,367,cs),
(112,238,o),
(134,80,o),
(292,80,cs),
(330,80,o),
(378,89,o),
(406,108,cs),
(432,126,o),
(458,123,o),
(472,106,cs),
(486,89,o),
(483,63,o),
(453,37,cs),
(405,-3,o),
(333,-10,o),
(272,-10,cs),
(59,-10,o),
(10,168,o),
(45,367,cs)
);
},
{
closed = 1;
nodes = (
(330,810,o),
(325,826,o),
(355,859,cs),
(416,924,ls),
(432,941,o),
(451,950,o),
(473,950,cs),
(516,950,o),
(522,933,o),
(489,899,cs),
(425,834,ls),
(409,818,o),
(392,810,o),
(371,810,cs)
);
}
);
width = 600;
},
{
layerId = "4966EE82-C4DA-425A-8D74-1CF207294ED7";
shapes = (
{
closed = 1;
nodes = (
(90,569,o),
(201,740,o),
(403,740,cs),
(497,740,o),
(549,703,o),
(560,669,cs),
(565,653,o),
(563,634,o),
(547,627,cs),
(536,622,o),
(522,625,o),
(517,639,cs),
(509,662,o),
(467,690,o),
(416,690,cs),
(229,690,o),
(132,522,o),
(105,366,cs),
(79,220,o),
(106,40,o),
(285,40,cs),
(318,40,o),
(380,46,o),
(412,67,cs),
(432,81,o),
(449,78,o),
(455,68,cs),
(460,59,o),
(459,43,o),
(448,36,cs),
(395,-3,o),
(333,-10,o),
(276,-10,cs),
(67,-10,o),
(20,168,o),
(55,367,cs)
);
},
{
closed = 1;
nodes = (
(343,810,o),
(340,819,o),
(358,838,cs),
(448,934,ls),
(458,945,o),
(470,950,o),
(483,950,cs),
(509,950,o),
(511,940,o),
(491,919,cs),
(398,824,ls),
(390,815,o),
(379,810,o),
(367,810,cs)
);
}
);
width = 600;
}
);
unicode = 262;
},
{
glyphname = Ccaron;
layers = (
{
layerId = "0892077F-E13C-4B35-A2A2-3732A46C3F7E";
shapes = (
{
closed = 1;
nodes = (
(70,567,o),
(184,740,o),
(407,740,cs),
(525,740,o),
(568,691,o),
(579,636,cs),
(588,593,o),
(576,553,o),
(541,537,cs),
(511,524,o),
(472,533,o),
(458,567,cs),
(449,589,o),
(425,608,o),
(380,608,cs),
(260,608,o),
(204,476,o),
(184,361,cs),
(166,260,o),
(167,125,o),
(296,125,cs),
(340,125,o),
(372,141,o),
(390,156,cs),
(420,182,o),
(456,180,o),
(475,157,cs),
(494,135,o),
(497,93,o),
(463,54,cs),
(419,6,o),
(343,-10,o),
(270,-10,cs),
(28,-10,o),
(0,169,o),
(32,351,cs)
);
},
{
closed = 1;
nodes = (
(309,950,o),
(331,939,o),
(349,917,cs),
(350,916,ls),
(369,892,o),
(392,891,o),
(420,915,cs),
(425,919,ls),
(451,941,o),
(478,950,o),
(508,950,cs),
(568,950,o),
(574,928,o),
(524,885,cs),
(496,860,ls),
(457,826,o),
(405,810,o),
(368,810,cs),
(331,810,o),
(283,825,o),
(258,860,cs),
(239,885,ls),
(206,930,o),
(218,950,o),
(279,950,cs)
);
}
);
width = 600;
},
{
layerId = "8BB99DCB-260E-4CD5-8804-53D8F723A4FE";
shapes = (
{
closed = 1;
nodes = (
(80,569,o),
(193,740,o),
(406,740,cs),
(517,740,o),
(562,694,o),
(573,646,cs),
(579,614,o),
(568,594,o),
(548,583,cs),
(528,573,o),
(503,573,o),
(490,600,cs),
(477,625,o),
(444,650,o),
(386,650,cs),
(251,650,o),
(161,516,o),
(135,367,cs),
(112,238,o),
(134,80,o),
(292,80,cs),
(330,80,o),
(378,89,o),
(406,108,cs),
(432,126,o),
(458,123,o),
(472,106,cs),
(486,89,o),
(483,63,o),
(453,37,cs),
(405,-3,o),
(333,-10,o),
(272,-10,cs),
(59,-10,o),
(10,168,o),
(45,367,cs)
);
},
{
closed = 1;
nodes = (
(303,950,o),
(320,942,o),
(333,926,cs),
(356,900,ls),
(371,881,o),
(392,882,o),
(414,900,cs),
(447,927,ls),
(466,942,o),
(487,950,o),
(509,950,cs),
(553,950,o),
(556,934,o),
(519,903,cs),
(444,839,ls),
(420,819,o),
(391,810,o),
(368,810,cs),
(345,810,o),
(319,819,o),
(303,839,cs),
(251,902,ls),
(225,934,o),
(235,950,o),
(280,950,cs)
);
}
);
width = 600;
},
{
layerId = "4966EE82-C4DA-425A-8D74-1CF207294ED7";
shapes = (
{
closed = 1;
nodes = (
(90,569,o),
(201,740,o),
(403,740,cs),
(497,740,o),
(549,703,o),
(560,669,cs),
(565,653,o),
(563,634,o),
(547,627,cs),
(536,622,o),
(522,625,o),
(517,639,cs),
(509,662,o),
(467,690,o),
(416,690,cs),
(229,690,o),
(132,522,o),
(105,366,cs),
(79,220,o),
(106,40,o),
(285,40,cs),
(318,40,o),
(380,46,o),
(412,67,cs),
(432,81,o),
(449,78,o),
(455,68,cs),
(460,59,o),
(459,43,o),
(448,36,cs),
(395,-3,o),
(333,-10,o),
(276,-10,cs),
(67,-10,o),
(20,168,o),
(55,367,cs)
);
},
{
closed = 1;
nodes = (
(288,950,o),
(296,945,o),
(302,937,cs),
(357,863,ls),
(369,848,o),
(381,848,o),
(397,863,cs),
(480,938,ls),
(489,946,o),
(499,950,o),
(510,950,cs),
(532,950,o),
(534,942,o),
(517,925,cs),
(422,833,ls),
(406,818,o),
(383,810,o),
(368,810,cs),
(353,810,o),
(332,818,o),
(322,833,cs),
(260,924,ls),
(248,941,o),
(254,950,o),
(277,950,cs)
);
}
);
width = 600;
}
);
unicode = 268;
},
{
glyphname = Ccedilla;
layers = (
{
anchors = (
{
name = _bottom;
position = "{305, 0}";
}
);
layerId = "0892077F-E13C-4B35-A2A2-3732A46C3F7E";
shapes = (
{
closed = 1;
nodes = (
(70,567,o),
(184,740,o),
(407,740,cs),
(525,740,o),
(568,691,o),
(579,636,cs),
(588,593,o),
(576,553,o),
(541,537,cs),
(511,524,o),
(472,533,o),
(458,567,cs),
(449,589,o),
(425,608,o),
(380,608,cs),
(260,608,o),
(204,476,o),
(184,361,cs),
(166,260,o),
(167,125,o),
(296,125,cs),
(340,125,o),
(372,141,o),
(390,156,cs),
(420,182,o),
(456,180,o),
(475,157,cs),
(494,135,o),
(497,93,o),
(463,54,cs),
(419,6,o),
(343,-10,o),
(270,-10,cs),
(28,-10,o),
(0,169,o),
(32,351,cs)
);
},
{
closed = 1;
nodes = (
(115,-225,ls),
(92,-225,o),
(82,-213,o),
(86,-190,cs),
(91,-167,o),
(105,-155,o),
(128,-155,cs),
(173,-155,ls),
(198,-155,o),
(232,-131,o),
(234,-119,qs),
(237,-97,o),
(209,-83,qs),
(195,-77,o),
(176,-73,qs),
(143,-67,o),
(137,-53,o),
(154,-23,cs),
(177,16,l),
(250,16,l),
(233,-15,ls),
(226,-30,o),
(229,-39,o),
(246,-42,cs),
(264,-46,o),
(282,-52,qs),
(312,-63,o),
(352,-102,o),
(347,-133,qs),
(340,-170,o),
(253,-225,o),
(190,-225,qs)
);
}
);
width = 600;
},
{
anchors = (
{
name = _bottom;
position = "{305, 0}";
}
);
layerId = "8BB99DCB-260E-4CD5-8804-53D8F723A4FE";
shapes = (
{
closed = 1;
nodes = (
(80,569,o),
(193,740,o),
(406,740,cs),
(517,740,o),
(562,694,o),
(573,646,cs),
(579,614,o),
(568,594,o),
(548,583,cs),
(528,573,o),
(503,573,o),
(490,600,cs),
(477,625,o),
(444,650,o),
(386,650,cs),
(251,650,o),
(161,516,o),
(135,367,cs),
(112,238,o),
(134,80,o),
(292,80,cs),
(330,80,o),
(378,89,o),
(406,108,cs),
(432,126,o),
(458,123,o),
(472,106,cs),
(486,89,o),
(483,63,o),
(453,37,cs),
(405,-3,o),
(333,-10,o),
(272,-10,cs),
(59,-10,o),
(10,168,o),
(45,367,cs)
);
},
{
closed = 1;
nodes = (
(122,-203,ls),
(104,-203,o),
(96,-194,o),
(99,-176,cs),
(102,-158,o),
(114,-148,o),
(132,-148,cs),
(174,-148,ls),
(196,-148,o),
(227,-125,o),
(229,-112,qs),
(231,-95,o),
(207,-82,qs),
(193,-75,o),
(171,-72,qs),
(145,-68,o),
(139,-55,o),
(153,-31,cs),
(184,26,l),
(241,26,l),
(219,-16,ls),
(213,-28,o),
(216,-35,o),
(228,-38,cs),
(245,-42,o),
(261,-48,qs),
(287,-58,o),
(318,-94,o),
(314,-120,qs),
(308,-154,o),
(233,-203,o),
(179,-203,qs)
);
}
);
width = 600;
},
{
anchors = (
{
name = _bottom;
position = "{305, 0}";
}
);
layerId = "4966EE82-C4DA-425A-8D74-1CF207294ED7";
shapes = (
{
closed = 1;
nodes = (
(90,569,o),
(201,740,o),
(403,740,cs),
(497,740,o),
(549,703,o),
(560,669,cs),
(565,653,o),
(563,634,o),
(547,627,cs),
(536,622,o),
(522,625,o),
(517,639,cs),
(509,662,o),
(467,690,o),
(416,690,cs),
(229,690,o),
(132,522,o),
(105,366,cs),
(79,220,o),
(106,40,o),
(285,40,cs),
(318,40,o),
(380,46,o),
(412,67,cs),
(432,81,o),
(449,78,o),
(455,68,cs),
(460,59,o),
(459,43,o),
(448,36,cs),
(395,-3,o),
(333,-10,o),
(276,-10,cs),
(67,-10,o),
(20,168,o),
(55,367,cs)
);
},
{
closed = 1;
nodes = (
(143,-195,ls),
(131,-195,o),
(126,-190,o),
(129,-178,cs),
(131,-166,o),
(137,-160,o),
(149,-160,cs),
(212,-160,ls),
(236,-160,o),
(270,-134,o),
(273,-118,qs),
(276,-94,o),
(247,-79,qs),
(226,-68,o),
(195,-65,qs),
(175,-63,o),
(170,-54,o),
(181,-36,cs),
(216,26,l),
(258,26,l),
(231,-20,ls),
(226,-29,o),
(229,-34,o),
(239,-35,cs),
(254,-37,o),
(271,-44,qs),
(295,-53,o),
(324,-89,o),
(319,-118,qs),
(314,-150,o),
(251,-195,o),
(206,-195,qs)
);
}
);
width = 600;
}
);
unicode = 199;
},
{
glyphname = Ccircumflex;
layers = (
{
layerId = "0892077F-E13C-4B35-A2A2-3732A46C3F7E";
shapes = (
{
closed = 1;
nodes = (
(70,567,o),
(184,740,o),
(407,740,cs),
(525,740,o),
(568,691,o),
(579,636,cs),
(588,593,o),
(576,553,o),
(541,537,cs),
(511,524,o),
(472,533,o),
(458,567,cs),
(449,589,o),
(425,608,o),
(380,608,cs),
(260,608,o),
(204,476,o),
(184,361,cs),
(166,260,o),
(167,125,o),
(296,125,cs),
(340,125,o),
(372,141,o),
(390,156,cs),
(420,182,o),
(456,180,o),
(475,157,cs),
(494,135,o),
(497,93,o),
(463,54,cs),
(419,6,o),
(343,-10,o),
(270,-10,cs),
(28,-10,o),
(0,169,o),
(32,351,cs)
);
},
{
closed = 1;
nodes = (
(193,810,o),
(188,831,o),
(237,875,cs),
(265,900,ls),
(304,934,o),
(346,950,o),
(393,950,cs),
(440,950,o),
(476,934,o),
(503,900,cs),
(522,875,ls),
(557,832,o),
(543,810,o),
(483,810,cs),
(453,810,o),
(430,820,o),
(411,841,cs),
(408,845,ls),
(388,868,o),
(364,868,o),
(337,844,cs),
(336,843,ls),
(311,821,o),
(284,810,o),
(254,810,cs)
);
}
);
width = 600;
},
{
layerId = "8BB99DCB-260E-4CD5-8804-53D8F723A4FE";
shapes = (
{
closed = 1;
nodes = (
(80,569,o),
(193,740,o),
(406,740,cs),
(517,740,o),
(562,694,o),
(573,646,cs),
(579,614,o),
(568,594,o),
(548,583,cs),
(528,573,o),
(503,573,o),
(490,600,cs),
(477,625,o),
(444,650,o),
(386,650,cs),
(251,650,o),
(161,516,o),
(135,367,cs),
(112,238,o),
(134,80,o),
(292,80,cs),
(330,80,o),
(378,89,o),
(406,108,cs),
(432,126,o),
(458,123,o),
(472,106,cs),
(486,89,o),
(483,63,o),
(453,37,cs),
(405,-3,o),
(333,-10,o),
(272,-10,cs),
(59,-10,o),
(10,168,o),
(45,367,cs)
);
},
{
closed = 1;
nodes = (
(210,810,o),
(206,826,o),
(243,858,cs),
(317,921,ls),
(341,941,o),
(365,950,o),
(393,950,cs),
(421,950,o),
(442,941,o),
(458,921,cs),
(511,857,ls),
(537,826,o),
(528,810,o),
(484,810,cs),
(462,810,o),
(444,818,o),
(431,833,cs),
(407,860,ls),
(391,878,o),
(371,879,o),
(349,860,cs),
(317,834,ls),
(298,818,o),
(278,810,o),
(255,810,cs)
);
}
);
width = 600;
},
{
layerId = "4966EE82-C4DA-425A-8D74-1CF207294ED7";
shapes = (
{
closed = 1;
nodes = (
(90,569,o),
(201,740,o),
(403,740,cs),
(497,740,o),
(549,703,o),
(560,669,cs),
(565,653,o),
(563,634,o),
(547,627,cs),
(536,622,o),
(522,625,o),
(517,639,cs),
(509,662,o),
(467,690,o),
(416,690,cs),
(229,690,o),
(132,522,o),
(105,366,cs),
(79,220,o),
(106,40,o),
(285,40,cs),
(318,40,o),
(380,46,o),
(412,67,cs),
(432,81,o),
(449,78,o),
(455,68,cs),
(460,59,o),
(459,43,o),
(448,36,cs),
(395,-3,o),
(333,-10,o),
(276,-10,cs),
(67,-10,o),
(20,168,o),
(55,367,cs)
);
},
{
closed = 1;
nodes = (
(229,810,o),
(226,819,o),
(244,836,cs),
(338,927,ls),
(354,942,o),
(373,950,o),
(393,950,cs),
(413,950,o),
(428,942,o),
(438,927,cs),
(501,835,ls),
(512,818,o),
(507,810,o),
(485,810,cs),
(474,810,o),
(466,814,o),
(460,822,cs),
(403,897,ls),
(392,912,o),
(380,912,o),
(363,897,cs),
(282,823,ls),
(273,815,o),
(263,810,o),
(252,810,cs)
);
}
);
width = 600;
}
);
unicode = 264;
},
{
glyphname = Cdotaccent;
layers = (
{
layerId = "0892077F-E13C-4B35-A2A2-3732A46C3F7E";
shapes = (
{
closed = 1;
nodes = (
(70,567,o),
(184,740,o),
(407,740,cs),
(525,740,o),
(568,691,o),
(579,636,cs),
(588,593,o),
(576,553,o),
(541,537,cs),
(511,524,o),
(472,533,o),
(458,567,cs),
(449,589,o),
(425,608,o),
(380,608,cs),
(260,608,o),
(204,476,o),
(184,361,cs),
(166,260,o),
(167,125,o),
(296,125,cs),
(340,125,o),
(372,141,o),
(390,156,cs),
(420,182,o),
(456,180,o),
(475,157,cs),
(494,135,o),
(497,93,o),
(463,54,cs),
(419,6,o),
(343,-10,o),
(270,-10,cs),
(28,-10,o),
(0,169,o),
(32,351,cs)
);
},
{
closed = 1;
nodes = (
(325,802,o),
(284,844,o),
(290,880,qs),
(297,916,o),
(353,958,o),
(394,958,qs),
(435,958,o),
(477,916,o),
(470,880,qs),
(464,844,o),
(407,802,o),
(366,802,qs)
);
}
);
width = 600;
},
{
layerId = "8BB99DCB-260E-4CD5-8804-53D8F723A4FE";
shapes = (
{
closed = 1;
nodes = (
(80,569,o),
(193,740,o),
(406,740,cs),
(517,740,o),
(562,694,o),
(573,646,cs),
(579,614,o),
(568,594,o),
(548,583,cs),
(528,573,o),
(503,573,o),
(490,600,cs),
(477,625,o),
(444,650,o),
(386,650,cs),
(251,650,o),
(161,516,o),
(135,367,cs),
(112,238,o),
(134,80,o),
(292,80,cs),
(330,80,o),
(378,89,o),
(406,108,cs),
(432,126,o),
(458,123,o),
(472,106,cs),
(486,89,o),
(483,63,o),
(453,37,cs),
(405,-3,o),
(333,-10,o),
(272,-10,cs),
(59,-10,o),
(10,168,o),
(45,367,cs)
);
},
{
closed = 1;
nodes = (
(336,816,o),
(304,851,o),
(309,880,qs),
(314,909,o),
(358,944,o),
(391,944,qs),
(424,944,o),
(456,909,o),
(451,880,qs),
(446,851,o),
(402,816,o),
(369,816,qs)
);
}
);
width = 600;
},
{
layerId = "4966EE82-C4DA-425A-8D74-1CF207294ED7";
shapes = (
{
closed = 1;
nodes = (
(90,569,o),
(201,740,o),
(403,740,cs),
(497,740,o),
(549,703,o),
(560,669,cs),
(565,653,o),
(563,634,o),
(547,627,cs),
(536,622,o),
(522,625,o),
(517,639,cs),
(509,662,o),
(467,690,o),
(416,690,cs),
(229,690,o),
(132,522,o),
(105,366,cs),
(79,220,o),
(106,40,o),
(285,40,cs),
(318,40,o),
(380,46,o),
(412,67,cs),
(432,81,o),
(449,78,o),
(455,68,cs),
(460,59,o),
(459,43,o),
(448,36,cs),
(395,-3,o),
(333,-10,o),
(276,-10,cs),
(67,-10,o),
(20,168,o),
(55,367,cs)
);
},
{
closed = 1;
nodes = (
(344,825,o),
(318,855,o),
(322,880,qs),
(327,905,o),
(364,935,o),
(390,935,qs),
(416,935,o),
(443,905,o),
(438,880,qs),
(434,855,o),
(396,825,o),
(370,825,qs)
);
}
);
width = 600;
}
);
unicode = 266;
},
{
color = (153, 254, 255, 255);
glyphname = D;
layers = (
{
layerId = "0892077F-E13C-4B35-A2A2-3732A46C3F7E";
shapes = (
{
closed = 1;
nodes = (
(73,0,ls),
(13,0,o),
(-12,30,o),
(-1,90,cs),
(96,640,ls),
(106,700,o),
(142,730,o),
(202,730,cs),
(319,730,ls),
(549,730,o),
(585,572,o),
(548,364,cs),
(512,161,o),
(423,0,o),
(190,0,cs)
);
},
{
closed = 1;
nodes = (
(164,175,ls),
(159,148,o),
(170,135,o),
(197,135,cs),
(214,135,ls),
(343,135,o),
(386,257,o),
(406,370,cs),
(425,475,o),
(427,595,o),
(295,595,cs),
(278,595,ls),
(251,595,o),
(236,582,o),
(231,555,cs)
);
}
);
width = 600;
},
{
layerId = "8BB99DCB-260E-4CD5-8804-53D8F723A4FE";
shapes = (
{
closed = 1;
nodes = (
(92,0,ls),
(38,0,o),
(17,26,o),
(26,80,cs),
(127,650,ls),
(136,704,o),
(167,730,o),
(221,730,cs),
(310,730,ls),
(522,730,o),
(547,559,o),
(512,361,cs),
(480,182,o),
(403,0,o),
(181,0,cs)
);
},
{
closed = 1;
nodes = (
(125,130,ls),
(120,103,o),
(131,90,o),
(158,90,cs),
(197,90,ls),
(352,90,o),
(409,243,o),
(430,365,cs),
(452,489,o),
(448,640,o),
(294,640,cs),
(255,640,ls),
(228,640,o),
(213,627,o),
(208,600,cs)
);
}
);
width = 600;
},
{
layerId = "4966EE82-C4DA-425A-8D74-1CF207294ED7";
shapes = (
{
closed = 1;
nodes = (
(101,0,ls),
(53,0,o),
(34,23,o),
(42,70,cs),
(146,660,ls),
(155,707,o),
(182,730,o),
(230,730,cs),
(280,730,ls),
(513,730,o),
(525,572,o),
(487,356,cs),
(453,166,o),
(393,0,o),
(151,0,cs)
);
},
{
closed = 1;
nodes = (
(96,85,ls),
(92,62,o),
(102,50,o),
(125,50,cs),
(160,50,ls),
(364,50,o),
(407,191,o),
(437,362,cs),
(468,537,o),
(474,680,o),
(271,680,cs),
(236,680,ls),
(213,680,o),
(199,668,o),
(195,645,cs)
);
}
);
width = 600;
}
);
unicode = 68;
},
{
glyphname = Eth;
layers = (
{
layerId = "0892077F-E13C-4B35-A2A2-3732A46C3F7E";
shapes = (
{
closed = 1;
nodes = (
(73,0,ls),
(13,0,o),
(-12,30,o),
(-1,90,cs),
(96,640,ls),
(106,700,o),
(142,730,o),
(202,730,cs),
(319,730,ls),
(549,730,o),
(585,572,o),
(548,364,cs),
(512,161,o),
(423,0,o),
(190,0,cs)
);
},
{
closed = 1;
nodes = (
(164,175,ls),
(159,148,o),
(170,135,o),
(197,135,cs),
(214,135,ls),
(343,135,o),
(386,257,o),
(406,370,cs),
(425,475,o),
(427,595,o),
(295,595,cs),
(278,595,ls),
(251,595,o),
(236,582,o),
(231,555,cs)
);
},
{
closed = 1;
nodes = (
(41,315,ls),
(1,315,o),
(-22,330,o),
(-13,380,cs),
(-4,430,o),
(23,445,o),
(63,445,cs),
(233,445,ls),
(273,445,o),
(296,430,o),
(287,380,cs),
(278,330,o),
(251,315,o),
(211,315,cs)
);
}
);
width = 600;
},
{
layerId = "8BB99DCB-260E-4CD5-8804-53D8F723A4FE";
shapes = (
{
closed = 1;
nodes = (
(92,0,ls),
(38,0,o),
(17,26,o),
(26,80,cs),
(127,650,ls),
(136,704,o),
(167,730,o),
(221,730,cs),
(310,730,ls),
(522,730,o),
(547,559,o),
(512,361,cs),
(480,182,o),
(403,0,o),
(181,0,cs)
);
},
{
closed = 1;
nodes = (
(125,130,ls),
(120,103,o),
(131,90,o),
(158,90,cs),
(197,90,ls),
(352,90,o),
(409,243,o),
(430,365,cs),
(452,489,o),
(448,640,o),
(294,640,cs),
(255,640,ls),
(228,640,o),
(213,627,o),
(208,600,cs)
);
},
{
closed = 1;
nodes = (
(16,345,ls),
(1,345,o),
(-18,350,o),
(-13,380,cs),
(-8,410,o),
(13,415,o),
(28,415,cs),
(258,415,ls),
(273,415,o),
(292,410,o),
(287,380,cs),
(282,350,o),
(261,345,o),
(246,345,cs)
);
}
);
width = 600;
},
{
layerId = "4966EE82-C4DA-425A-8D74-1CF207294ED7";
shapes = (
{
closed = 1;
nodes = (
(101,0,ls),
(53,0,o),
(34,23,o),
(42,70,cs),
(146,660,ls),
(155,707,o),
(182,730,o),
(230,730,cs),
(280,730,ls),
(513,730,o),
(525,572,o),
(487,356,cs),
(453,166,o),
(393,0,o),
(151,0,cs)
);
},
{
closed = 1;
nodes = (
(96,85,ls),
(92,62,o),
(102,50,o),
(125,50,cs),
(160,50,ls),
(364,50,o),
(407,191,o),
(437,362,cs),
(468,537,o),
(474,680,o),
(271,680,cs),
(236,680,ls),
(213,680,o),
(199,668,o),
(195,645,cs)
);
},
{
closed = 1;
nodes = (
(8,357,ls),
(-9,357,o),
(-16,365,o),
(-13,382,cs),
(-10,399,o),
(0,407,o),
(17,407,cs),
(267,407,ls),
(284,407,o),
(290,399,o),
(287,382,cs),
(284,365,o),
(275,357,o),
(258,357,cs)
);
}
);
width = 600;
}
);
unicode = 208;
},
{
glyphname = Dcaron;
layers = (
{
layerId = "0892077F-E13C-4B35-A2A2-3732A46C3F7E";
shapes = (
{
closed = 1;
nodes = (
(73,0,ls),
(13,0,o),
(-12,30,o),
(-1,90,cs),
(96,640,ls),
(106,700,o),
(142,730,o),
(202,730,cs),
(319,730,ls),
(549,730,o),
(585,572,o),
(548,364,cs),
(512,161,o),
(423,0,o),
(190,0,cs)
);
},
{
closed = 1;
nodes = (
(164,175,ls),
(159,148,o),
(170,135,o),
(197,135,cs),
(214,135,ls),
(343,135,o),
(386,257,o),
(406,370,cs),
(425,475,o),
(427,595,o),
(295,595,cs),
(278,595,ls),
(251,595,o),
(236,582,o),
(231,555,cs)
);
},
{
closed = 1;
nodes = (
(304,950,o),
(326,939,o),
(344,917,cs),
(345,916,ls),
(364,892,o),
(387,891,o),
(415,915,cs),
(420,919,ls),
(446,941,o),
(473,950,o),
(503,950,cs),
(563,950,o),
(569,928,o),
(519,885,cs),
(491,860,ls),
(452,826,o),
(400,810,o),
(363,810,cs),
(326,810,o),
(278,825,o),
(253,860,cs),
(234,885,ls),
(201,930,o),
(213,950,o),
(274,950,cs)
);
}
);
width = 600;
},
{
layerId = "8BB99DCB-260E-4CD5-8804-53D8F723A4FE";
shapes = (
{
closed = 1;
nodes = (
(92,0,ls),
(38,0,o),
(17,26,o),
(26,80,cs),
(127,650,ls),
(136,704,o),
(167,730,o),
(221,730,cs),
(310,730,ls),
(522,730,o),
(547,559,o),
(512,361,cs),
(480,182,o),
(403,0,o),
(181,0,cs)
);
},
{
closed = 1;
nodes = (
(125,130,ls),
(120,103,o),
(131,90,o),
(158,90,cs),
(197,90,ls),
(352,90,o),
(409,243,o),
(430,365,cs),
(452,489,o),
(448,640,o),
(294,640,cs),
(255,640,ls),
(228,640,o),
(213,627,o),
(208,600,cs)
);
},
{
closed = 1;
nodes = (
(298,950,o),
(315,942,o),
(328,926,cs),
(351,900,ls),
(366,881,o),
(387,882,o),
(409,900,cs),
(442,927,ls),
(461,942,o),
(482,950,o),
(504,950,cs),
(548,950,o),
(551,934,o),
(514,903,cs),
(439,839,ls),
(415,819,o),
(386,810,o),
(363,810,cs),
(340,810,o),
(314,819,o),
(298,839,cs),
(246,902,ls),
(220,934,o),
(230,950,o),
(275,950,cs)
);
}
);
width = 600;
},
{
layerId = "4966EE82-C4DA-425A-8D74-1CF207294ED7";
shapes = (
{
closed = 1;
nodes = (
(101,0,ls),
(53,0,o),
(34,23,o),
(42,70,cs),
(146,660,ls),
(155,707,o),
(182,730,o),
(230,730,cs),
(280,730,ls),
(513,730,o),
(525,572,o),
(487,356,cs),
(453,166,o),
(393,0,o),
(151,0,cs)
);
},
{
closed = 1;
nodes = (
(96,85,ls),
(92,62,o),
(102,50,o),
(125,50,cs),
(160,50,ls),
(364,50,o),
(407,191,o),
(437,362,cs),
(468,537,o),
(474,680,o),
(271,680,cs),
(236,680,ls),
(213,680,o),
(199,668,o),
(195,645,cs)
);
},
{
closed = 1;
nodes = (
(283,950,o),
(291,945,o),
(297,937,cs),
(352,863,ls),
(364,848,o),
(376,848,o),
(392,863,cs),
(475,938,ls),
(484,946,o),
(494,950,o),
(505,950,cs),
(527,950,o),
(529,942,o),
(512,925,cs),
(417,833,ls),
(401,818,o),
(378,810,o),
(363,810,cs),
(348,810,o),
(327,818,o),
(317,833,cs),
(255,924,ls),
(243,941,o),
(249,950,o),
(272,950,cs)
);
}
);
width = 600;
}
);
unicode = 270;
},
{
glyphname = Dcroat;
layers = (
{
layerId = "0892077F-E13C-4B35-A2A2-3732A46C3F7E";
shapes = (
{
closed = 1;
nodes = (
(73,0,ls),
(13,0,o),
(-12,30,o),
(-1,90,cs),
(96,640,ls),
(106,700,o),
(142,730,o),
(202,730,cs),
(319,730,ls),
(549,730,o),
(585,572,o),
(548,364,cs),
(512,161,o),
(423,0,o),
(190,0,cs)
);
},
{
closed = 1;
nodes = (
(164,175,ls),
(159,148,o),
(170,135,o),
(197,135,cs),
(214,135,ls),
(343,135,o),
(386,257,o),
(406,370,cs),
(425,475,o),
(427,595,o),
(295,595,cs),
(278,595,ls),
(251,595,o),
(236,582,o),
(231,555,cs)
);
},
{
closed = 1;
nodes = (
(41,315,ls),
(1,315,o),
(-22,330,o),
(-13,380,cs),
(-4,430,o),
(23,445,o),
(63,445,cs),
(233,445,ls),
(273,445,o),
(296,430,o),
(287,380,cs),
(278,330,o),
(251,315,o),
(211,315,cs)
);
}
);
width = 600;
},
{
layerId = "8BB99DCB-260E-4CD5-8804-53D8F723A4FE";
shapes = (
{
closed = 1;
nodes = (
(92,0,ls),
(38,0,o),
(17,26,o),
(26,80,cs),
(127,650,ls),
(136,704,o),
(167,730,o),
(221,730,cs),
(310,730,ls),
(522,730,o),
(547,559,o),
(512,361,cs),
(480,182,o),
(403,0,o),
(181,0,cs)
);
},
{
closed = 1;
nodes = (
(125,130,ls),
(120,103,o),
(131,90,o),
(158,90,cs),
(197,90,ls),
(352,90,o),
(409,243,o),
(430,365,cs),
(452,489,o),
(448,640,o),
(294,640,cs),
(255,640,ls),
(228,640,o),
(213,627,o),
(208,600,cs)
);
},
{
closed = 1;
nodes = (
(16,345,ls),
(1,345,o),
(-18,350,o),
(-13,380,cs),
(-8,410,o),
(13,415,o),
(28,415,cs),
(258,415,ls),
(273,415,o),
(292,410,o),
(287,380,cs),
(282,350,o),
(261,345,o),
(246,345,cs)
);
}
);
width = 600;
},
{
layerId = "4966EE82-C4DA-425A-8D74-1CF207294ED7";
shapes = (
{
closed = 1;
nodes = (
(101,0,ls),
(53,0,o),
(34,23,o),
(42,70,cs),
(146,660,ls),
(155,707,o),
(182,730,o),
(230,730,cs),
(280,730,ls),
(513,730,o),
(525,572,o),
(487,356,cs),
(453,166,o),
(393,0,o),
(151,0,cs)
);
},
{
closed = 1;
nodes = (
(96,85,ls),
(92,62,o),
(102,50,o),
(125,50,cs),
(160,50,ls),
(364,50,o),
(407,191,o),
(437,362,cs),
(468,537,o),
(474,680,o),
(271,680,cs),
(236,680,ls),
(213,680,o),
(199,668,o),
(195,645,cs)
);
},
{
closed = 1;
nodes = (
(8,357,ls),
(-9,357,o),
(-16,365,o),
(-13,382,cs),
(-10,399,o),
(0,407,o),
(17,407,cs),
(267,407,ls),
(284,407,o),
(290,399,o),
(287,382,cs),
(284,365,o),
(275,357,o),
(258,357,cs)
);
}
);
width = 600;
}
);
unicode = 272;
},
{
color = (153, 254, 255, 255);
glyphname = E;
layers = (
{
layerId = "0892077F-E13C-4B35-A2A2-3732A46C3F7E";
shapes = (
{
closed = 1;
nodes = (
(228,440,l),
(431,440,ls),
(473,440,o),
(494,417,o),
(486,375,cs),
(479,333,o),
(450,310,o),
(408,310,cs),
(205,310,l),
(180,170,ls),
(175,143,o),
(186,130,o),
(213,130,cs),
(408,130,ls),
(452,130,o),
(469,109,o),
(461,65,cs),
(454,21,o),
(429,0,o),
(385,0,cs),
(100,0,ls),
(33,0,o),
(6,33,o),
(18,100,cs),
(111,630,ls),
(123,697,o),
(162,730,o),
(229,730,cs),
(514,730,ls),
(558,730,o),
(575,709,o),
(567,665,cs),
(559,621,o),
(535,600,o),
(491,600,cs),
(296,600,ls),
(267,600,o),
(254,588,o),
(249,560,cs)
);
}
);
width = 600;
},
{
layerId = "8BB99DCB-260E-4CD5-8804-53D8F723A4FE";
shapes = (
{
closed = 1;
nodes = (
(185,427,l),
(440,427,ls),
(467,427,o),
(482,409,o),
(477,382,cs),
(473,355,o),
(451,337,o),
(424,337,cs),
(169,337,l),
(133,130,ls),
(128,103,o),
(139,90,o),
(166,90,cs),
(415,90,ls),
(442,90,o),
(453,72,o),
(448,45,cs),
(443,18,o),
(426,0,o),
(399,0,cs),
(100,0,ls),
(46,0,o),
(25,26,o),
(34,80,cs),
(135,650,ls),
(144,704,o),
(175,730,o),
(229,730,cs),
(528,730,ls),
(555,730,o),
(566,712,o),
(561,685,cs),
(556,658,o),
(539,640,o),
(512,640,cs),
(263,640,ls),
(236,640,o),
(221,627,o),
(216,600,cs)
);
}
);
width = 600;
},
{
layerId = "4966EE82-C4DA-425A-8D74-1CF207294ED7";
shapes = (
{
closed = 1;
nodes = (
(162,406,l),
(445,406,ls),
(460,406,o),
(465,396,o),
(462,381,cs),
(460,366,o),
(451,356,o),
(436,356,cs),
(153,356,l),
(105,85,ls),
(101,62,o),
(111,50,o),
(134,50,cs),
(416,50,ls),
(431,50,o),
(437,40,o),
(434,25,cs),
(432,10,o),
(422,0,o),
(407,0,cs),
(110,0,ls),
(63,0,o),
(44,23,o),
(52,70,cs),
(156,660,ls),
(165,707,o),
(192,730,o),
(239,730,cs),
(536,730,ls),
(551,730,o),
(557,720,o),
(554,705,cs),
(552,690,o),
(542,680,o),
(527,680,cs),
(245,680,ls),
(222,680,o),
(208,668,o),
(204,645,cs)
);
}
);
width = 600;
}
);
unicode = 69;
},
{
glyphname = Eacute;
layers = (
{
layerId = "0892077F-E13C-4B35-A2A2-3732A46C3F7E";
shapes = (
{
closed = 1;
nodes = (
(228,440,l),
(431,440,ls),
(473,440,o),
(494,417,o),
(486,375,cs),
(479,333,o),
(450,310,o),
(408,310,cs),
(205,310,l),
(180,170,ls),
(175,143,o),
(186,130,o),
(213,130,cs),
(408,130,ls),
(452,130,o),
(469,109,o),
(461,65,cs),
(454,21,o),
(429,0,o),
(385,0,cs),
(100,0,ls),
(33,0,o),
(6,33,o),
(18,100,cs),
(111,630,ls),
(123,697,o),
(162,730,o),
(229,730,cs),
(514,730,ls),
(558,730,o),
(575,709,o),
(567,665,cs),
(559,621,o),
(535,600,o),
(491,600,cs),
(296,600,ls),
(267,600,o),
(254,588,o),
(249,560,cs)
);
},
{
closed = 1;
nodes = (
(312,810,o),
(305,835,o),
(354,889,cs),
(372,910,ls),
(402,943,o),
(432,950,o),
(471,950,cs),
(538,950,o),
(545,924,o),
(493,873,cs),
(468,848,ls),
(442,822,o),
(412,810,o),
(379,810,cs)
);
}
);
width = 600;
},
{
layerId = "8BB99DCB-260E-4CD5-8804-53D8F723A4FE";
shapes = (
{
closed = 1;
nodes = (
(185,427,l),
(440,427,ls),
(467,427,o),
(482,409,o),
(477,382,cs),
(473,355,o),
(451,337,o),
(424,337,cs),
(169,337,l),
(133,130,ls),
(128,103,o),
(139,90,o),
(166,90,cs),
(415,90,ls),
(442,90,o),
(453,72,o),
(448,45,cs),
(443,18,o),
(426,0,o),
(399,0,cs),
(100,0,ls),
(46,0,o),
(25,26,o),
(34,80,cs),
(135,650,ls),
(144,704,o),
(175,730,o),
(229,730,cs),
(528,730,ls),
(555,730,o),
(566,712,o),
(561,685,cs),
(556,658,o),
(539,640,o),
(512,640,cs),
(263,640,ls),
(236,640,o),
(221,627,o),
(216,600,cs)
);
},
{
closed = 1;
nodes = (
(335,810,o),
(330,826,o),
(360,859,cs),
(421,924,ls),
(437,941,o),
(456,950,o),
(478,950,cs),
(521,950,o),
(527,933,o),
(494,899,cs),
(430,834,ls),
(414,818,o),
(397,810,o),
(376,810,cs)
);
}
);
width = 600;
},
{
layerId = "4966EE82-C4DA-425A-8D74-1CF207294ED7";
shapes = (
{
closed = 1;
nodes = (
(162,406,l),
(445,406,ls),
(460,406,o),
(465,396,o),
(462,381,cs),
(460,366,o),
(451,356,o),
(436,356,cs),
(153,356,l),
(105,85,ls),
(101,62,o),
(111,50,o),
(134,50,cs),
(416,50,ls),
(431,50,o),
(437,40,o),
(434,25,cs),
(432,10,o),
(422,0,o),
(407,0,cs),
(110,0,ls),
(63,0,o),
(44,23,o),
(52,70,cs),
(156,660,ls),
(165,707,o),
(192,730,o),
(239,730,cs),
(536,730,ls),
(551,730,o),
(557,720,o),
(554,705,cs),
(552,690,o),
(542,680,o),
(527,680,cs),
(245,680,ls),
(222,680,o),
(208,668,o),
(204,645,cs)
);
},
{
closed = 1;
nodes = (
(353,810,o),
(350,819,o),
(368,838,cs),
(458,934,ls),
(468,945,o),
(480,950,o),
(493,950,cs),
(519,950,o),
(521,940,o),
(501,919,cs),
(408,824,ls),
(400,815,o),
(389,810,o),
(377,810,cs)
);
}
);
width = 600;
}
);
unicode = 201;
},
{
glyphname = Ebreve;
layers = (
{
layerId = "0892077F-E13C-4B35-A2A2-3732A46C3F7E";
shapes = (
{
closed = 1;
nodes = (
(228,440,l),
(431,440,ls),
(473,440,o),
(494,417,o),
(486,375,cs),
(479,333,o),
(450,310,o),
(408,310,cs),
(205,310,l),
(180,170,ls),
(175,143,o),
(186,130,o),
(213,130,cs),
(408,130,ls),
(452,130,o),
(469,109,o),
(461,65,cs),
(454,21,o),
(429,0,o),
(385,0,cs),
(100,0,ls),
(33,0,o),
(6,33,o),
(18,100,cs),
(111,630,ls),
(123,697,o),
(162,730,o),
(229,730,cs),
(514,730,ls),
(558,730,o),
(575,709,o),
(567,665,cs),
(559,621,o),
(535,600,o),
(491,600,cs),
(296,600,ls),
(267,600,o),
(254,588,o),
(249,560,cs)
);
},
{
closed = 1;
nodes = (
(200,927,o),
(224,950,o),
(265,950,cs),
(278,950,o),
(287,947,o),
(294,942,cs),
(310,931,o),
(319,912,o),
(338,898,cs),
(354,887,o),
(381,887,qs),
(408,887,o),
(428,898,qs),
(452,911,o),
(467,929,o),
(485,940,cs),
(495,946,o),
(506,950,o),
(520,950,cs),
(561,950,o),
(576,927,o),
(557,894,cs),
(538,864,o),
(507,842,qs),
(449,800,o),
(366,800,qs),
(283,801,o),
(239,842,qs),
(216,865,o),
(209,894,qs)
);
}
);
width = 600;
},
{
layerId = "8BB99DCB-260E-4CD5-8804-53D8F723A4FE";
shapes = (
{
closed = 1;
nodes = (
(185,427,l),
(440,427,ls),
(467,427,o),
(482,409,o),
(477,382,cs),
(473,355,o),
(451,337,o),
(424,337,cs),
(169,337,l),
(133,130,ls),
(128,103,o),
(139,90,o),
(166,90,cs),
(415,90,ls),
(442,90,o),
(453,72,o),
(448,45,cs),
(443,18,o),
(426,0,o),
(399,0,cs),
(100,0,ls),
(46,0,o),
(25,26,o),
(34,80,cs),
(135,650,ls),
(144,704,o),
(175,730,o),
(229,730,cs),
(528,730,ls),
(555,730,o),
(566,712,o),
(561,685,cs),
(556,658,o),
(539,640,o),
(512,640,cs),
(263,640,ls),
(236,640,o),
(221,627,o),
(216,600,cs)
);
},
{
closed = 1;
nodes = (
(234,937,o),
(248,950,o),
(273,950,cs),
(288,950,o),
(297,946,o),
(303,939,cs),
(313,927,o),
(315,909,o),
(323,895,cs),
(340,863,o),
(381,863,qs),
(422,863,o),
(452,895,qs),
(464,908,o),
(473,925,o),
(486,937,cs),
(496,945,o),
(506,950,o),
(522,950,cs),
(547,950,o),
(556,937,o),
(547,915,cs),
(531,874,o),
(495,845,qs),
(444,805,o),
(372,805,qs),
(300,805,o),
(263,845,qs),
(237,874,o),
(235,915,qs)
);
}
);
width = 600;
},
{
layerId = "4966EE82-C4DA-425A-8D74-1CF207294ED7";
shapes = (
{
closed = 1;
nodes = (
(162,406,l),
(445,406,ls),
(460,406,o),
(465,396,o),
(462,381,cs),
(460,366,o),
(451,356,o),
(436,356,cs),
(153,356,l),
(105,85,ls),
(101,62,o),
(111,50,o),
(134,50,cs),
(416,50,ls),
(431,50,o),
(437,40,o),
(434,25,cs),
(432,10,o),
(422,0,o),
(407,0,cs),
(110,0,ls),
(63,0,o),
(44,23,o),
(52,70,cs),
(156,660,ls),
(165,707,o),
(192,730,o),
(239,730,cs),
(536,730,ls),
(551,730,o),
(557,720,o),
(554,705,cs),
(552,690,o),
(542,680,o),
(527,680,cs),
(245,680,ls),
(222,680,o),
(208,668,o),
(204,645,cs)
);
},
{
closed = 1;
nodes = (
(255,943,o),
(265,950,o),
(280,950,cs),
(289,950,o),
(294,946,o),
(297,939,cs),
(303,924,o),
(301,896,o),
(315,876,cs),
(336,848,o),
(384,848,qs),
(431,848,o),
(462,876,qs),
(488,898,o),
(495,925,o),
(506,939,cs),
(511,946,o),
(516,950,o),
(525,950,cs),
(540,950,o),
(547,943,o),
(543,928,cs),
(528,879,o),
(490,847,qs),
(444,808,o),
(377,808,qs),
(310,808,o),
(278,847,qs),
(252,879,o),
(255,928,qs)
);
}
);
width = 600;
}
);
unicode = 276;
},
{
glyphname = Ecaron;
layers = (
{
layerId = "0892077F-E13C-4B35-A2A2-3732A46C3F7E";
shapes = (
{
closed = 1;
nodes = (
(228,440,l),
(431,440,ls),
(473,440,o),
(494,417,o),
(486,375,cs),
(479,333,o),
(450,310,o),
(408,310,cs),
(205,310,l),
(180,170,ls),
(175,143,o),
(186,130,o),
(213,130,cs),
(408,130,ls),
(452,130,o),
(469,109,o),
(461,65,cs),
(454,21,o),
(429,0,o),
(385,0,cs),
(100,0,ls),
(33,0,o),
(6,33,o),
(18,100,cs),
(111,630,ls),
(123,697,o),
(162,730,o),
(229,730,cs),
(514,730,ls),
(558,730,o),
(575,709,o),
(567,665,cs),
(559,621,o),
(535,600,o),
(491,600,cs),
(296,600,ls),
(267,600,o),
(254,588,o),
(249,560,cs)
);
},
{
closed = 1;
nodes = (
(309,950,o),
(331,939,o),
(349,917,cs),
(350,916,ls),
(369,892,o),
(392,891,o),
(420,915,cs),
(425,919,ls),
(451,941,o),
(478,950,o),
(508,950,cs),
(568,950,o),
(574,928,o),
(524,885,cs),
(496,860,ls),
(457,826,o),
(405,810,o),
(368,810,cs),
(331,810,o),
(283,825,o),
(258,860,cs),
(239,885,ls),
(206,930,o),
(218,950,o),
(279,950,cs)
);
}
);
width = 600;
},
{
layerId = "8BB99DCB-260E-4CD5-8804-53D8F723A4FE";
shapes = (
{
closed = 1;
nodes = (
(185,427,l),
(440,427,ls),
(467,427,o),
(482,409,o),
(477,382,cs),
(473,355,o),
(451,337,o),
(424,337,cs),
(169,337,l),
(133,130,ls),
(128,103,o),
(139,90,o),
(166,90,cs),
(415,90,ls),
(442,90,o),
(453,72,o),
(448,45,cs),
(443,18,o),
(426,0,o),
(399,0,cs),
(100,0,ls),
(46,0,o),
(25,26,o),
(34,80,cs),
(135,650,ls),
(144,704,o),
(175,730,o),
(229,730,cs),
(528,730,ls),
(555,730,o),
(566,712,o),
(561,685,cs),
(556,658,o),
(539,640,o),
(512,640,cs),
(263,640,ls),
(236,640,o),
(221,627,o),
(216,600,cs)
);
},
{
closed = 1;
nodes = (
(308,950,o),
(325,942,o),
(338,926,cs),
(361,900,ls),
(376,881,o),
(397,882,o),
(419,900,cs),
(452,927,ls),
(471,942,o),
(492,950,o),
(514,950,cs),
(558,950,o),
(561,934,o),
(524,903,cs),
(449,839,ls),
(425,819,o),
(396,810,o),
(373,810,cs),
(350,810,o),
(324,819,o),
(308,839,cs),
(256,902,ls),
(230,934,o),
(240,950,o),
(285,950,cs)
);
}
);
width = 600;
},
{
layerId = "4966EE82-C4DA-425A-8D74-1CF207294ED7";
shapes = (
{
closed = 1;
nodes = (
(162,406,l),
(445,406,ls),
(460,406,o),
(465,396,o),
(462,381,cs),
(460,366,o),
(451,356,o),
(436,356,cs),
(153,356,l),
(105,85,ls),
(101,62,o),
(111,50,o),
(134,50,cs),
(416,50,ls),
(431,50,o),
(437,40,o),
(434,25,cs),
(432,10,o),
(422,0,o),
(407,0,cs),
(110,0,ls),
(63,0,o),
(44,23,o),
(52,70,cs),
(156,660,ls),
(165,707,o),
(192,730,o),
(239,730,cs),
(536,730,ls),
(551,730,o),
(557,720,o),
(554,705,cs),
(552,690,o),
(542,680,o),
(527,680,cs),
(245,680,ls),
(222,680,o),
(208,668,o),
(204,645,cs)
);
},
{
closed = 1;
nodes = (
(298,950,o),
(306,945,o),
(312,937,cs),
(367,863,ls),
(379,848,o),
(391,848,o),
(407,863,cs),
(490,938,ls),
(499,946,o),
(509,950,o),
(520,950,cs),
(542,950,o),
(544,942,o),
(527,925,cs),
(432,833,ls),
(416,818,o),
(393,810,o),
(378,810,cs),
(363,810,o),
(342,818,o),
(332,833,cs),
(270,924,ls),
(258,941,o),
(264,950,o),
(287,950,cs)
);
}
);
width = 600;
}
);
unicode = 282;
},
{
glyphname = Ecircumflex;
layers = (
{
layerId = "0892077F-E13C-4B35-A2A2-3732A46C3F7E";
shapes = (
{
closed = 1;
nodes = (
(228,440,l),
(431,440,ls),
(473,440,o),
(494,417,o),
(486,375,cs),
(479,333,o),
(450,310,o),
(408,310,cs),
(205,310,l),
(180,170,ls),
(175,143,o),
(186,130,o),
(213,130,cs),
(408,130,ls),
(452,130,o),
(469,109,o),
(461,65,cs),
(454,21,o),
(429,0,o),
(385,0,cs),
(100,0,ls),
(33,0,o),
(6,33,o),
(18,100,cs),
(111,630,ls),
(123,697,o),
(162,730,o),
(229,730,cs),
(514,730,ls),
(558,730,o),
(575,709,o),
(567,665,cs),
(559,621,o),
(535,600,o),
(491,600,cs),
(296,600,ls),
(267,600,o),
(254,588,o),
(249,560,cs)
);
},
{
closed = 1;
nodes = (
(193,810,o),
(188,831,o),
(237,875,cs),
(265,900,ls),
(304,934,o),
(346,950,o),
(393,950,cs),
(440,950,o),
(476,934,o),
(503,900,cs),
(522,875,ls),
(557,832,o),
(543,810,o),
(483,810,cs),
(453,810,o),
(430,820,o),
(411,841,cs),
(408,845,ls),
(388,868,o),
(364,868,o),
(337,844,cs),
(336,843,ls),
(311,821,o),
(284,810,o),
(254,810,cs)
);
}
);
width = 600;
},
{
layerId = "8BB99DCB-260E-4CD5-8804-53D8F723A4FE";
shapes = (
{
closed = 1;
nodes = (
(185,427,l),
(440,427,ls),
(467,427,o),
(482,409,o),
(477,382,cs),
(473,355,o),
(451,337,o),
(424,337,cs),
(169,337,l),
(133,130,ls),
(128,103,o),
(139,90,o),
(166,90,cs),
(415,90,ls),
(442,90,o),
(453,72,o),
(448,45,cs),
(443,18,o),
(426,0,o),
(399,0,cs),
(100,0,ls),
(46,0,o),
(25,26,o),
(34,80,cs),
(135,650,ls),
(144,704,o),
(175,730,o),
(229,730,cs),
(528,730,ls),
(555,730,o),
(566,712,o),
(561,685,cs),
(556,658,o),
(539,640,o),
(512,640,cs),
(263,640,ls),
(236,640,o),
(221,627,o),
(216,600,cs)
);
},
{
closed = 1;
nodes = (
(215,810,o),
(211,826,o),
(248,858,cs),
(322,921,ls),
(346,941,o),
(370,950,o),
(398,950,cs),
(426,950,o),
(447,941,o),
(463,921,cs),
(516,857,ls),
(542,826,o),
(533,810,o),
(489,810,cs),
(467,810,o),
(449,818,o),
(436,833,cs),
(412,860,ls),
(396,878,o),
(376,879,o),
(354,860,cs),
(322,834,ls),
(303,818,o),
(283,810,o),
(260,810,cs)
);
}
);
width = 600;
},
{
layerId = "4966EE82-C4DA-425A-8D74-1CF207294ED7";
shapes = (
{
closed = 1;
nodes = (
(162,406,l),
(445,406,ls),
(460,406,o),
(465,396,o),
(462,381,cs),
(460,366,o),
(451,356,o),
(436,356,cs),
(153,356,l),
(105,85,ls),
(101,62,o),
(111,50,o),
(134,50,cs),
(416,50,ls),
(431,50,o),
(437,40,o),
(434,25,cs),
(432,10,o),
(422,0,o),
(407,0,cs),
(110,0,ls),
(63,0,o),
(44,23,o),
(52,70,cs),
(156,660,ls),
(165,707,o),
(192,730,o),
(239,730,cs),
(536,730,ls),
(551,730,o),
(557,720,o),
(554,705,cs),
(552,690,o),
(542,680,o),
(527,680,cs),
(245,680,ls),
(222,680,o),
(208,668,o),
(204,645,cs)
);
},
{
closed = 1;
nodes = (
(239,810,o),
(236,819,o),
(254,836,cs),
(348,927,ls),
(364,942,o),
(383,950,o),
(403,950,cs),
(423,950,o),
(438,942,o),
(448,927,cs),
(511,835,ls),
(522,818,o),
(517,810,o),
(495,810,cs),
(484,810,o),
(476,814,o),
(470,822,cs),
(413,897,ls),
(402,912,o),
(390,912,o),
(373,897,cs),
(292,823,ls),
(283,815,o),
(273,810,o),
(262,810,cs)
);
}
);
width = 600;
}
);
unicode = 202;
},
{
glyphname = Ecircumflexacute;
layers = (
{
layerId = "0892077F-E13C-4B35-A2A2-3732A46C3F7E";
shapes = (
{
closed = 1;
nodes = (
(228,440,l),
(431,440,ls),
(473,440,o),
(494,417,o),
(486,375,cs),
(479,333,o),
(450,310,o),
(408,310,cs),
(205,310,l),
(180,170,ls),
(175,143,o),
(186,130,o),
(213,130,cs),
(408,130,ls),
(452,130,o),
(469,109,o),
(461,65,cs),
(454,21,o),
(429,0,o),
(385,0,cs),
(100,0,ls),
(33,0,o),
(6,33,o),
(18,100,cs),
(111,630,ls),
(123,697,o),
(162,730,o),
(229,730,cs),
(514,730,ls),
(558,730,o),
(575,709,o),
(567,665,cs),
(559,621,o),
(535,600,o),
(491,600,cs),
(296,600,ls),
(267,600,o),
(254,588,o),
(249,560,cs)
);
},
{
closed = 1;
nodes = (
(535,905,o),
(528,926,o),
(577,971,cs),
(591,984,ls),
(617,1008,o),
(646,1020,o),
(678,1020,cs),
(743,1020,o),
(749,998,o),
(695,952,cs),
(677,937,ls),
(653,916,o),
(625,905,o),
(595,905,cs)
);
},
{
closed = 1;
nodes = (
(188,780,o),
(182,801,o),
(232,845,cs),
(259,870,ls),
(298,904,o),
(340,920,o),
(387,920,cs),
(434,920,o),
(470,904,o),
(497,870,cs),
(516,845,ls),
(550,801,o),
(538,780,o),
(477,780,cs),
(447,780,o),
(422,790,o),
(405,812,cs),
(404,814,ls),
(384,838,o),
(362,838,o),
(334,814,cs),
(331,812,ls),
(306,790,o),
(279,780,o),
(249,780,cs)
);
}
);
width = 600;
},
{
layerId = "8BB99DCB-260E-4CD5-8804-53D8F723A4FE";
shapes = (
{
closed = 1;
nodes = (
(185,427,l),
(440,427,ls),
(467,427,o),
(482,409,o),
(477,382,cs),
(473,355,o),
(451,337,o),
(424,337,cs),
(169,337,l),
(133,130,ls),
(128,103,o),
(139,90,o),
(166,90,cs),
(415,90,ls),
(442,90,o),
(453,72,o),
(448,45,cs),
(443,18,o),
(426,0,o),
(399,0,cs),
(100,0,ls),
(46,0,o),
(25,26,o),
(34,80,cs),
(135,650,ls),
(144,704,o),
(175,730,o),
(229,730,cs),
(528,730,ls),
(555,730,o),
(566,712,o),
(561,685,cs),
(556,658,o),
(539,640,o),
(512,640,cs),
(263,640,ls),
(236,640,o),
(221,627,o),
(216,600,cs)
);
},
{
closed = 1;
nodes = (
(519,900,o),
(514,916,o),
(548,949,cs),
(596,994,ls),
(614,1011,o),
(634,1020,o),
(657,1020,cs),
(703,1020,o),
(707,1004,o),
(670,970,cs),
(620,924,ls),
(602,908,o),
(584,900,o),
(562,900,cs)
);
},
{
closed = 1;
nodes = (
(210,780,o),
(205,796,o),
(242,827,cs),
(316,890,ls),
(339,910,o),
(364,920,o),
(392,920,cs),
(420,920,o),
(442,910,o),
(459,890,cs),
(510,828,ls),
(536,796,o),
(527,780,o),
(482,780,cs),
(459,780,o),
(441,788,o),
(428,804,cs),
(405,830,ls),
(390,849,o),
(370,849,o),
(347,830,cs),
(315,803,ls),
(296,788,o),
(276,780,o),
(254,780,cs)
);
}
);
width = 600;
},
{
layerId = "4966EE82-C4DA-425A-8D74-1CF207294ED7";
shapes = (
{
closed = 1;
nodes = (
(162,406,l),
(445,406,ls),
(460,406,o),
(465,396,o),
(462,381,cs),
(460,366,o),
(451,356,o),
(436,356,cs),
(153,356,l),
(105,85,ls),
(101,62,o),
(111,50,o),
(134,50,cs),
(416,50,ls),
(431,50,o),
(437,40,o),
(434,25,cs),
(432,10,o),
(422,0,o),
(407,0,cs),
(110,0,ls),
(63,0,o),
(44,23,o),
(52,70,cs),
(156,660,ls),
(165,707,o),
(192,730,o),
(239,730,cs),
(536,730,ls),
(551,730,o),
(557,720,o),
(554,705,cs),
(552,690,o),
(542,680,o),
(527,680,cs),
(245,680,ls),
(222,680,o),
(208,668,o),
(204,645,cs)
);
},
{
closed = 1;
nodes = (
(509,895,o),
(506,904,o),
(523,921,cs),
(609,1005,ls),
(620,1015,o),
(632,1020,o),
(645,1020,cs),
(672,1020,o),
(674,1011,o),
(653,991,cs),
(561,907,ls),
(552,899,o),
(542,895,o),
(531,895,cs)
);
},
{
closed = 1;
nodes = (
(234,780,o),
(231,789,o),
(249,806,cs),
(343,897,ls),
(359,912,o),
(377,920,o),
(397,920,cs),
(417,920,o),
(433,912,o),
(443,897,cs),
(506,805,ls),
(517,788,o),
(512,780,o),
(490,780,cs),
(479,780,o),
(470,784,o),
(465,792,cs),
(408,867,ls),
(397,882,o),
(385,882,o),
(368,867,cs),
(287,793,ls),
(277,785,o),
(268,780,o),
(257,780,cs)
);
}
);
width = 600;
}
);
unicode = 7870;
},
{
glyphname = Ecircumflexdotbelow;
layers = (
{
layerId = "0892077F-E13C-4B35-A2A2-3732A46C3F7E";
shapes = (
{
closed = 1;
nodes = (
(228,440,l),
(431,440,ls),
(473,440,o),
(494,417,o),
(486,375,cs),
(479,333,o),
(450,310,o),
(408,310,cs),
(205,310,l),
(180,170,ls),
(175,143,o),
(186,130,o),
(213,130,cs),
(408,130,ls),
(452,130,o),
(469,109,o),
(461,65,cs),
(454,21,o),
(429,0,o),
(385,0,cs),
(100,0,ls),
(33,0,o),
(6,33,o),
(18,100,cs),
(111,630,ls),
(123,697,o),
(162,730,o),
(229,730,cs),
(514,730,ls),
(558,730,o),
(575,709,o),
(567,665,cs),
(559,621,o),
(535,600,o),
(491,600,cs),
(296,600,ls),
(267,600,o),
(254,588,o),
(249,560,cs)
);
},
{
closed = 1;
nodes = (
(143,-233,o),
(101,-191,o),
(108,-155,qs),
(114,-119,o),
(170,-77,o),
(211,-77,qs),
(252,-77,o),
(294,-119,o),
(288,-155,qs),
(281,-191,o),
(225,-233,o),
(184,-233,qs)
);
},
{
closed = 1;
nodes = (
(193,810,o),
(188,831,o),
(237,875,cs),
(265,900,ls),
(304,934,o),
(346,950,o),
(393,950,cs),
(440,950,o),
(476,934,o),
(503,900,cs),
(522,875,ls),
(557,832,o),
(543,810,o),
(483,810,cs),
(453,810,o),
(430,820,o),
(411,841,cs),
(408,845,ls),
(388,868,o),
(364,868,o),
(337,844,cs),
(336,843,ls),
(311,821,o),
(284,810,o),
(254,810,cs)
);
}
);
width = 600;
},
{
layerId = "8BB99DCB-260E-4CD5-8804-53D8F723A4FE";
shapes = (
{
closed = 1;
nodes = (
(185,427,l),
(440,427,ls),
(467,427,o),
(482,409,o),
(477,382,cs),
(473,355,o),
(451,337,o),
(424,337,cs),
(169,337,l),
(133,130,ls),
(128,103,o),
(139,90,o),
(166,90,cs),
(415,90,ls),
(442,90,o),
(453,72,o),
(448,45,cs),
(443,18,o),
(426,0,o),
(399,0,cs),
(100,0,ls),
(46,0,o),
(25,26,o),
(34,80,cs),
(135,650,ls),
(144,704,o),
(175,730,o),
(229,730,cs),
(528,730,ls),
(555,730,o),
(566,712,o),
(561,685,cs),
(556,658,o),
(539,640,o),
(512,640,cs),
(263,640,ls),
(236,640,o),
(221,627,o),
(216,600,cs)
);
},
{
closed = 1;
nodes = (
(159,-213,o),
(127,-179,o),
(133,-150,qs),
(138,-120,o),
(182,-85,o),
(215,-85,qs),
(248,-85,o),
(280,-120,o),
(275,-150,qs),
(269,-179,o),
(225,-213,o),
(192,-213,qs)
);
},
{
closed = 1;
nodes = (
(215,810,o),
(211,826,o),
(248,858,cs),
(322,921,ls),
(346,941,o),
(370,950,o),
(398,950,cs),
(426,950,o),
(447,941,o),
(463,921,cs),
(516,857,ls),
(542,826,o),
(533,810,o),
(489,810,cs),
(467,810,o),
(449,818,o),
(436,833,cs),
(412,860,ls),
(396,878,o),
(376,879,o),
(354,860,cs),
(322,834,ls),
(303,818,o),
(283,810,o),
(260,810,cs)
);
}
);
width = 600;
},
{
layerId = "4966EE82-C4DA-425A-8D74-1CF207294ED7";
shapes = (
{
closed = 1;
nodes = (
(162,406,l),
(445,406,ls),
(460,406,o),
(465,396,o),
(462,381,cs),
(460,366,o),
(451,356,o),
(436,356,cs),
(153,356,l),
(105,85,ls),
(101,62,o),
(111,50,o),
(134,50,cs),
(416,50,ls),
(431,50,o),
(437,40,o),
(434,25,cs),
(432,10,o),
(422,0,o),
(407,0,cs),
(110,0,ls),
(63,0,o),
(44,23,o),
(52,70,cs),
(156,660,ls),
(165,707,o),
(192,730,o),
(239,730,cs),
(536,730,ls),
(551,730,o),
(557,720,o),
(554,705,cs),
(552,690,o),
(542,680,o),
(527,680,cs),
(245,680,ls),
(222,680,o),
(208,668,o),
(204,645,cs)
);
},
{
closed = 1;
nodes = (
(173,-205,o),
(146,-175,o),
(151,-150,qs),
(155,-125,o),
(192,-95,o),
(218,-95,qs),
(244,-95,o),
(271,-125,o),
(267,-150,qs),
(262,-175,o),
(225,-205,o),
(199,-205,qs)
);
},
{
closed = 1;
nodes = (
(239,810,o),
(236,819,o),
(254,836,cs),
(348,927,ls),
(364,942,o),
(383,950,o),
(403,950,cs),
(423,950,o),
(438,942,o),
(448,927,cs),
(511,835,ls),
(522,818,o),
(517,810,o),
(495,810,cs),
(484,810,o),
(476,814,o),
(470,822,cs),
(413,897,ls),
(402,912,o),
(390,912,o),
(373,897,cs),
(292,823,ls),
(283,815,o),
(273,810,o),
(262,810,cs)
);
}
);
width = 600;
}
);
unicode = 7878;
},
{
glyphname = Ecircumflexgrave;
layers = (
{
layerId = "0892077F-E13C-4B35-A2A2-3732A46C3F7E";
shapes = (
{
closed = 1;
nodes = (
(228,440,l),
(431,440,ls),
(473,440,o),
(494,417,o),
(486,375,cs),
(479,333,o),
(450,310,o),
(408,310,cs),
(205,310,l),
(180,170,ls),
(175,143,o),
(186,130,o),
(213,130,cs),
(408,130,ls),
(452,130,o),
(469,109,o),
(461,65,cs),
(454,21,o),
(429,0,o),
(385,0,cs),
(100,0,ls),
(33,0,o),
(6,33,o),
(18,100,cs),
(111,630,ls),
(123,697,o),
(162,730,o),
(229,730,cs),
(514,730,ls),
(558,730,o),
(575,709,o),
(567,665,cs),
(559,621,o),
(535,600,o),
(491,600,cs),
(296,600,ls),
(267,600,o),
(254,588,o),
(249,560,cs)
);
},
{
closed = 1;
nodes = (
(555,905,o),
(531,916,o),
(513,937,cs),
(501,952,ls),
(463,998,o),
(477,1020,o),
(542,1020,cs),
(574,1020,o),
(599,1008,o),
(617,984,cs),
(625,971,ls),
(658,926,o),
(645,905,o),
(585,905,cs)
);
},
{
closed = 1;
nodes = (
(188,780,o),
(182,801,o),
(232,845,cs),
(259,870,ls),
(298,904,o),
(340,920,o),
(387,920,cs),
(434,920,o),
(470,904,o),
(497,870,cs),
(516,845,ls),
(550,801,o),
(538,780,o),
(477,780,cs),
(447,780,o),
(422,790,o),
(405,812,cs),
(404,814,ls),
(384,838,o),
(362,838,o),
(334,814,cs),
(331,812,ls),
(306,790,o),
(279,780,o),
(249,780,cs)
);
}
);
width = 600;
},
{
layerId = "8BB99DCB-260E-4CD5-8804-53D8F723A4FE";
shapes = (
{
closed = 1;
nodes = (
(185,427,l),
(440,427,ls),
(467,427,o),
(482,409,o),
(477,382,cs),
(473,355,o),
(451,337,o),
(424,337,cs),
(169,337,l),
(133,130,ls),
(128,103,o),
(139,90,o),
(166,90,cs),
(415,90,ls),
(442,90,o),
(453,72,o),
(448,45,cs),
(443,18,o),
(426,0,o),
(399,0,cs),
(100,0,ls),
(46,0,o),
(25,26,o),
(34,80,cs),
(135,650,ls),
(144,704,o),
(175,730,o),
(229,730,cs),
(528,730,ls),
(555,730,o),
(566,712,o),
(561,685,cs),
(556,658,o),
(539,640,o),
(512,640,cs),
(263,640,ls),
(236,640,o),
(221,627,o),
(216,600,cs)
);
},
{
closed = 1;
nodes = (
(545,900,o),
(528,907,o),
(516,922,cs),
(474,973,ls),
(447,1005,o),
(457,1020,o),
(502,1020,cs),
(524,1020,o),
(541,1012,o),
(554,996,cs),
(593,946,ls),
(616,915,o),
(608,900,o),
(566,900,cs)
);
},
{
closed = 1;
nodes = (
(210,780,o),
(205,796,o),
(242,827,cs),
(316,890,ls),
(339,910,o),
(364,920,o),
(392,920,cs),
(420,920,o),
(442,910,o),
(459,890,cs),
(510,828,ls),
(536,796,o),
(527,780,o),
(482,780,cs),
(459,780,o),
(441,788,o),
(428,804,cs),
(405,830,ls),
(390,849,o),
(370,849,o),
(347,830,cs),
(315,803,ls),
(296,788,o),
(276,780,o),
(254,780,cs)
);
}
);
width = 600;
},
{
layerId = "4966EE82-C4DA-425A-8D74-1CF207294ED7";
shapes = (
{
closed = 1;
nodes = (
(162,406,l),
(445,406,ls),
(460,406,o),
(465,396,o),
(462,381,cs),
(460,366,o),
(451,356,o),
(436,356,cs),
(153,356,l),
(105,85,ls),
(101,62,o),
(111,50,o),
(134,50,cs),
(416,50,ls),
(431,50,o),
(437,40,o),
(434,25,cs),
(432,10,o),
(422,0,o),
(407,0,cs),
(110,0,ls),
(63,0,o),
(44,23,o),
(52,70,cs),
(156,660,ls),
(165,707,o),
(192,730,o),
(239,730,cs),
(536,730,ls),
(551,730,o),
(557,720,o),
(554,705,cs),
(552,690,o),
(542,680,o),
(527,680,cs),
(245,680,ls),
(222,680,o),
(208,668,o),
(204,645,cs)
);
},
{
closed = 1;
nodes = (
(544,895,o),
(536,899,o),
(529,907,cs),
(464,991,ls),
(449,1010,o),
(454,1020,o),
(481,1020,cs),
(494,1020,o),
(504,1015,o),
(511,1005,cs),
(570,920,ls),
(582,903,o),
(577,895,o),
(555,895,cs)
);
},
{
closed = 1;
nodes = (
(234,780,o),
(231,789,o),
(249,806,cs),
(343,897,ls),
(359,912,o),
(377,920,o),
(397,920,cs),
(417,920,o),
(433,912,o),
(443,897,cs),
(506,805,ls),
(517,788,o),
(512,780,o),
(490,780,cs),
(479,780,o),
(470,784,o),
(465,792,cs),
(408,867,ls),
(397,882,o),
(385,882,o),
(368,867,cs),
(287,793,ls),
(277,785,o),
(268,780,o),
(257,780,cs)
);
}
);
width = 600;
}
);
unicode = 7872;
},
{
glyphname = Ecircumflexhookabove;
layers = (
{
layerId = "0892077F-E13C-4B35-A2A2-3732A46C3F7E";
shapes = (
{
closed = 1;
nodes = (
(228,440,l),
(431,440,ls),
(473,440,o),
(494,417,o),
(486,375,cs),
(479,333,o),
(450,310,o),
(408,310,cs),
(205,310,l),
(180,170,ls),
(175,143,o),
(186,130,o),
(213,130,cs),
(408,130,ls),
(452,130,o),
(469,109,o),
(461,65,cs),
(454,21,o),
(429,0,o),
(385,0,cs),
(100,0,ls),
(33,0,o),
(6,33,o),
(18,100,cs),
(111,630,ls),
(123,697,o),
(162,730,o),
(229,730,cs),
(514,730,ls),
(558,730,o),
(575,709,o),
(567,665,cs),
(559,621,o),
(535,600,o),
(491,600,cs),
(296,600,ls),
(267,600,o),
(254,588,o),
(249,560,cs)
);
},
{
closed = 1;
nodes = (
(543,870,o),
(530,881,o),
(558,905,cs),
(559,906,ls),
(572,917,o),
(573,927,qs),
(576,944,o),
(551,944,qs),
(519,944,ls),
(494,944,o),
(484,957,o),
(488,982,cs),
(493,1007,o),
(508,1020,o),
(533,1020,cs),
(590,1020,ls),
(638,1020,o),
(688,978,o),
(681,938,qs),
(679,924,o),
(669,910,qs),
(665,904,ls),
(642,870,o),
(599,870,o),
(566,870,cs)
);
},
{
closed = 1;
nodes = (
(188,780,o),
(182,801,o),
(232,845,cs),
(259,870,ls),
(298,904,o),
(340,920,o),
(387,920,cs),
(434,920,o),
(470,904,o),
(497,870,cs),
(516,845,ls),
(550,801,o),
(538,780,o),
(477,780,cs),
(447,780,o),
(422,790,o),
(405,812,cs),
(404,814,ls),
(384,838,o),
(362,838,o),
(334,814,cs),
(331,812,ls),
(306,790,o),
(279,780,o),
(249,780,cs)
);
}
);
width = 600;
},
{
layerId = "8BB99DCB-260E-4CD5-8804-53D8F723A4FE";
shapes = (
{
closed = 1;
nodes = (
(185,427,l),
(440,427,ls),
(467,427,o),
(482,409,o),
(477,382,cs),
(473,355,o),
(451,337,o),
(424,337,cs),
(169,337,l),
(133,130,ls),
(128,103,o),
(139,90,o),
(166,90,cs),
(415,90,ls),
(442,90,o),
(453,72,o),
(448,45,cs),
(443,18,o),
(426,0,o),
(399,0,cs),
(100,0,ls),
(46,0,o),
(25,26,o),
(34,80,cs),
(135,650,ls),
(144,704,o),
(175,730,o),
(229,730,cs),
(528,730,ls),
(555,730,o),
(566,712,o),
(561,685,cs),
(556,658,o),
(539,640,o),
(512,640,cs),
(263,640,ls),
(236,640,o),
(221,627,o),
(216,600,cs)
);
},
{
closed = 1;
nodes = (
(528,880,o),
(516,889,o),
(538,907,cs),
(561,927,ls),
(571,935,o),
(573,946,qs),
(576,962,o),
(561,962,qs),
(524,962,ls),
(505,962,o),
(496,972,o),
(500,991,cs),
(503,1010,o),
(515,1020,o),
(534,1020,cs),
(590,1020,ls),
(622,1020,o),
(654,986,o),
(649,958,qs),
(644,928,o),
(625,914,qs),
(616,907,ls),
(593,890,o),
(570,880,o),
(544,880,cs)
);
},
{
closed = 1;
nodes = (
(210,780,o),
(205,796,o),
(242,827,cs),
(316,890,ls),
(339,910,o),
(364,920,o),
(392,920,cs),
(420,920,o),
(442,910,o),
(459,890,cs),
(510,828,ls),
(536,796,o),
(527,780,o),
(482,780,cs),
(459,780,o),
(441,788,o),
(428,804,cs),
(405,830,ls),
(390,849,o),
(370,849,o),
(347,830,cs),
(315,803,ls),
(296,788,o),
(276,780,o),
(254,780,cs)
);
}
);
width = 600;
},
{
layerId = "4966EE82-C4DA-425A-8D74-1CF207294ED7";
shapes = (
{
closed = 1;
nodes = (
(162,406,l),
(445,406,ls),
(460,406,o),
(465,396,o),
(462,381,cs),
(460,366,o),
(451,356,o),
(436,356,cs),
(153,356,l),
(105,85,ls),
(101,62,o),
(111,50,o),
(134,50,cs),
(416,50,ls),
(431,50,o),
(437,40,o),
(434,25,cs),
(432,10,o),
(422,0,o),
(407,0,cs),
(110,0,ls),
(63,0,o),
(44,23,o),
(52,70,cs),
(156,660,ls),
(165,707,o),
(192,730,o),
(239,730,cs),
(536,730,ls),
(551,730,o),
(557,720,o),
(554,705,cs),
(552,690,o),
(542,680,o),
(527,680,cs),
(245,680,ls),
(222,680,o),
(208,668,o),
(204,645,cs)
);
},
{
closed = 1;
nodes = (
(538,880,o),
(531,885,o),
(543,897,cs),
(581,933,ls),
(602,954,o),
(604,966,qs),
(608,985,o),
(582,985,qs),
(526,985,ls),
(514,985,o),
(509,991,o),
(511,1003,cs),
(513,1015,o),
(519,1020,o),
(531,1020,cs),
(585,1020,ls),
(617,1020,o),
(648,994,o),
(644,971,qs),
(640,946,o),
(608,915,qs),
(589,897,ls),
(577,885,o),
(563,880,o),
(548,880,cs)
);
},
{
closed = 1;
nodes = (
(234,780,o),
(231,789,o),
(249,806,cs),
(343,897,ls),
(359,912,o),
(377,920,o),
(397,920,cs),
(417,920,o),
(433,912,o),
(443,897,cs),
(506,805,ls),
(517,788,o),
(512,780,o),
(490,780,cs),
(479,780,o),
(470,784,o),
(465,792,cs),
(408,867,ls),
(397,882,o),
(385,882,o),
(368,867,cs),
(287,793,ls),
(277,785,o),
(268,780,o),
(257,780,cs)
);
}
);
width = 600;
}
);
unicode = 7874;
},
{
glyphname = Ecircumflextilde;
layers = (
{
layerId = "0892077F-E13C-4B35-A2A2-3732A46C3F7E";
shapes = (
{
closed = 1;
nodes = (
(228,440,l),
(431,440,ls),
(473,440,o),
(494,417,o),
(486,375,cs),
(479,333,o),
(450,310,o),
(408,310,cs),
(205,310,l),
(180,170,ls),
(175,143,o),
(186,130,o),
(213,130,cs),
(408,130,ls),
(452,130,o),
(469,109,o),
(461,65,cs),
(454,21,o),
(429,0,o),
(385,0,cs),
(100,0,ls),
(33,0,o),
(6,33,o),
(18,100,cs),
(111,630,ls),
(123,697,o),
(162,730,o),
(229,730,cs),
(514,730,ls),
(558,730,o),
(575,709,o),
(567,665,cs),
(559,621,o),
(535,600,o),
(491,600,cs),
(296,600,ls),
(267,600,o),
(254,588,o),
(249,560,cs)
);
},
{
closed = 1;
nodes = (
(225,780,ls),
(180,780,o),
(175,796,o),
(211,829,cs),
(211,829,ls),
(251,866,o),
(296,884,o),
(345,884,cs),
(421,884,ls),
(468,884,o),
(503,867,o),
(529,832,cs),
(529,832,ls),
(555,797,o),
(545,780,o),
(498,780,cs),
(482,780,ls),
(449,780,o),
(423,792,o),
(404,817,cs),
(403,818,ls),
(385,843,o),
(363,843,o),
(335,818,cs),
(330,813,ls),
(305,791,o),
(279,780,o),
(249,780,cs)
);
},
{
closed = 1;
nodes = (
(221,915,o),
(205,938,o),
(225,968,cs),
(234,982,o),
(247,993,qs),
(279,1020,o),
(325,1020,qs),
(353,1020,o),
(394,1009,o),
(426,996,o),
(454,985,o),
(469,985,qs),
(475,985,o),
(480,987,qs),
(499,993,o),
(509,1015,o),
(530,1015,cs),
(569,1015,o),
(585,992,o),
(566,962,cs),
(556,948,o),
(543,937,qs),
(511,910,o),
(465,910,qs),
(437,910,o),
(396,921,o),
(365,934,o),
(337,945,o),
(322,945,qs),
(316,945,o),
(310,943,qs),
(293,935,o),
(278,915,o),
(260,915,cs)
);
}
);
width = 600;
},
{
layerId = "8BB99DCB-260E-4CD5-8804-53D8F723A4FE";
shapes = (
{
closed = 1;
nodes = (
(185,427,l),
(440,427,ls),
(467,427,o),
(482,409,o),
(477,382,cs),
(473,355,o),
(451,337,o),
(424,337,cs),
(169,337,l),
(133,130,ls),
(128,103,o),
(139,90,o),
(166,90,cs),
(415,90,ls),
(442,90,o),
(453,72,o),
(448,45,cs),
(443,18,o),
(426,0,o),
(399,0,cs),
(100,0,ls),
(46,0,o),
(25,26,o),
(34,80,cs),
(135,650,ls),
(144,704,o),
(175,730,o),
(229,730,cs),
(528,730,ls),
(555,730,o),
(566,712,o),
(561,685,cs),
(556,658,o),
(539,640,o),
(512,640,cs),
(263,640,ls),
(236,640,o),
(221,627,o),
(216,600,cs)
);
},
{
closed = 1;
nodes = (
(210,780,o),
(206,795,o),
(243,825,cs),
(269,846,ls),
(305,876,o),
(344,890,o),
(387,890,cs),
(387,890,ls),
(430,890,o),
(463,876,o),
(489,846,cs),
(507,826,ls),
(534,795,o),
(526,780,o),
(481,780,cs),
(481,780,ls),
(458,780,o),
(440,788,o),
(426,803,cs),
(405,826,ls),
(388,844,o),
(369,844,o),
(346,826,cs),
(315,802,ls),
(297,787,o),
(276,780,o),
(254,780,cs)
);
},
{
closed = 1;
nodes = (
(240,930,o),
(229,947,o),
(242,970,cs),
(251,986,o),
(265,998,qs),
(293,1021,o),
(335,1020,qs),
(367,1020,o),
(405,1006,o),
(431,987,o),
(455,973,o),
(472,973,qs),
(487,973,o),
(495,982,qs),
(506,992,o),
(517,1010,o),
(533,1010,cs),
(562,1010,o),
(574,993,o),
(561,970,cs),
(552,955,o),
(537,943,qs),
(509,921,o),
(469,920,qs),
(438,920,o),
(399,934,o),
(372,953,o),
(348,967,o),
(331,967,qs),
(316,968,o),
(307,959,qs),
(295,946,o),
(289,930,o),
(269,930,cs)
);
}
);
width = 600;
},
{
layerId = "4966EE82-C4DA-425A-8D74-1CF207294ED7";
shapes = (
{
closed = 1;
nodes = (
(162,406,l),
(445,406,ls),
(460,406,o),
(465,396,o),
(462,381,cs),
(460,366,o),
(451,356,o),
(436,356,cs),
(153,356,l),
(105,85,ls),
(101,62,o),
(111,50,o),
(134,50,cs),
(416,50,ls),
(431,50,o),
(437,40,o),
(434,25,cs),
(432,10,o),
(422,0,o),
(407,0,cs),
(110,0,ls),
(63,0,o),
(44,23,o),
(52,70,cs),
(156,660,ls),
(165,707,o),
(192,730,o),
(239,730,cs),
(536,730,ls),
(551,730,o),
(557,720,o),
(554,705,cs),
(552,690,o),
(542,680,o),
(527,680,cs),
(245,680,ls),
(222,680,o),
(208,668,o),
(204,645,cs)
);
},
{
closed = 1;
nodes = (
(234,780,o),
(232,788,o),
(251,804,cs),
(339,880,ls),
(356,894,o),
(374,901,o),
(394,901,cs),
(394,901,ls),
(414,901,o),
(430,894,o),
(441,880,cs),
(504,803,ls),
(516,787,o),
(512,780,o),
(490,780,cs),
(490,780,ls),
(479,780,o),
(470,784,o),
(463,791,cs),
(407,852,ls),
(395,866,o),
(381,866,o),
(363,852,cs),
(288,792,ls),
(278,784,o),
(268,780,o),
(257,780,cs)
);
},
{
closed = 1;
nodes = (
(255,930,o),
(249,937,o),
(253,950,cs),
(259,981,o),
(282,1000,qs),
(307,1020,o),
(345,1020,qs),
(373,1020,o),
(409,1001,o),
(434,977,o),
(460,958,o),
(479,958,qs),
(509,958,o),
(520,990,qs),
(524,1003,o),
(530,1010,o),
(543,1010,cs),
(557,1010,o),
(563,1003,o),
(560,990,cs),
(553,960,o),
(531,941,qs),
(507,921,o),
(472,920,qs),
(444,920,o),
(409,939,o),
(383,963,o),
(357,982,o),
(338,982,qs),
(302,982,o),
(293,950,qs),
(288,937,o),
(282,930,o),
(269,930,cs)
);
}
);
width = 600;
}
);
unicode = 7876;
},
{
glyphname = Edieresis;
layers = (
{
layerId = "0892077F-E13C-4B35-A2A2-3732A46C3F7E";
shapes = (
{
closed = 1;
nodes = (
(228,440,l),
(431,440,ls),
(473,440,o),
(494,417,o),
(486,375,cs),
(479,333,o),
(450,310,o),
(408,310,cs),
(205,310,l),
(180,170,ls),
(175,143,o),
(186,130,o),
(213,130,cs),
(408,130,ls),
(452,130,o),
(469,109,o),
(461,65,cs),
(454,21,o),
(429,0,o),
(385,0,cs),
(100,0,ls),
(33,0,o),
(6,33,o),
(18,100,cs),
(111,630,ls),
(123,697,o),
(162,730,o),
(229,730,cs),
(514,730,ls),
(558,730,o),
(575,709,o),
(567,665,cs),
(559,621,o),
(535,600,o),
(491,600,cs),
(296,600,ls),
(267,600,o),
(254,588,o),
(249,560,cs)
);
},
{
closed = 1;
nodes = (
(451,802,o),
(416,844,o),
(422,880,qs),
(429,916,o),
(479,958,o),
(516,958,qs),
(553,958,o),
(589,916,o),
(582,880,qs),
(576,844,o),
(525,802,o),
(488,802,qs)
);
},
{
closed = 1;
nodes = (
(207,802,o),
(172,844,o),
(178,880,qs),
(185,916,o),
(235,958,o),
(272,958,qs),
(309,958,o),
(345,916,o),
(338,880,qs),
(332,844,o),
(281,802,o),
(244,802,qs)
);
}
);
width = 600;
},
{
layerId = "8BB99DCB-260E-4CD5-8804-53D8F723A4FE";
shapes = (
{
closed = 1;
nodes = (
(185,427,l),
(440,427,ls),
(467,427,o),
(482,409,o),
(477,382,cs),
(473,355,o),
(451,337,o),
(424,337,cs),
(169,337,l),
(133,130,ls),
(128,103,o),
(139,90,o),
(166,90,cs),
(415,90,ls),
(442,90,o),
(453,72,o),
(448,45,cs),
(443,18,o),
(426,0,o),
(399,0,cs),
(100,0,ls),
(46,0,o),
(25,26,o),
(34,80,cs),
(135,650,ls),
(144,704,o),
(175,730,o),
(229,730,cs),
(528,730,ls),
(555,730,o),
(566,712,o),
(561,685,cs),
(556,658,o),
(539,640,o),
(512,640,cs),
(263,640,ls),
(236,640,o),
(221,627,o),
(216,600,cs)
);
},
{
closed = 1;
nodes = (
(456,817,o),
(427,851,o),
(432,880,qs),
(437,910,o),
(479,945,o),
(508,945,qs),
(537,945,o),
(565,910,o),
(560,880,qs),
(555,851,o),
(514,817,o),
(485,817,qs)
);
},
{
closed = 1;
nodes = (
(234,817,o),
(205,851,o),
(210,880,qs),
(215,910,o),
(257,945,o),
(286,945,qs),
(315,945,o),
(343,910,o),
(338,880,qs),
(333,851,o),
(292,817,o),
(263,817,qs)
);
}
);
width = 600;
},
{
layerId = "4966EE82-C4DA-425A-8D74-1CF207294ED7";
shapes = (
{
closed = 1;
nodes = (
(162,406,l),
(445,406,ls),
(460,406,o),
(465,396,o),
(462,381,cs),
(460,366,o),
(451,356,o),
(436,356,cs),
(153,356,l),
(105,85,ls),
(101,62,o),
(111,50,o),
(134,50,cs),
(416,50,ls),
(431,50,o),
(437,40,o),
(434,25,cs),
(432,10,o),
(422,0,o),
(407,0,cs),
(110,0,ls),
(63,0,o),
(44,23,o),
(52,70,cs),
(156,660,ls),
(165,707,o),
(192,730,o),
(239,730,cs),
(536,730,ls),
(551,730,o),
(557,720,o),
(554,705,cs),
(552,690,o),
(542,680,o),
(527,680,cs),
(245,680,ls),
(222,680,o),
(208,668,o),
(204,645,cs)
);
},
{
closed = 1;
nodes = (
(466,825,o),
(443,855,o),
(447,880,qs),
(452,905,o),
(486,935,o),
(510,935,qs),
(533,935,o),
(556,905,o),
(551,880,qs),
(547,855,o),
(513,825,o),
(490,825,qs)
);
},
{
closed = 1;
nodes = (
(252,825,o),
(229,855,o),
(233,880,qs),
(238,905,o),
(272,935,o),
(295,935,qs),
(318,935,o),
(342,905,o),
(337,880,qs),
(333,855,o),
(298,825,o),
(275,825,qs)
);
}
);
width = 600;
}
);
unicode = 203;
},
{
glyphname = Edotaccent;
layers = (
{
layerId = "0892077F-E13C-4B35-A2A2-3732A46C3F7E";
shapes = (
{
closed = 1;
nodes = (
(228,440,l),
(431,440,ls),
(473,440,o),
(494,417,o),
(486,375,cs),
(479,333,o),
(450,310,o),
(408,310,cs),
(205,310,l),
(180,170,ls),
(175,143,o),
(186,130,o),
(213,130,cs),
(408,130,ls),
(452,130,o),
(469,109,o),
(461,65,cs),
(454,21,o),
(429,0,o),
(385,0,cs),
(100,0,ls),
(33,0,o),
(6,33,o),
(18,100,cs),
(111,630,ls),
(123,697,o),
(162,730,o),
(229,730,cs),
(514,730,ls),
(558,730,o),
(575,709,o),
(567,665,cs),
(559,621,o),
(535,600,o),
(491,600,cs),
(296,600,ls),
(267,600,o),
(254,588,o),
(249,560,cs)
);
},
{
closed = 1;
nodes = (
(325,802,o),
(284,844,o),
(290,880,qs),
(297,916,o),
(353,958,o),
(394,958,qs),
(435,958,o),
(477,916,o),
(470,880,qs),
(464,844,o),
(407,802,o),
(366,802,qs)
);
}
);
width = 600;
},
{
layerId = "8BB99DCB-260E-4CD5-8804-53D8F723A4FE";
shapes = (
{
closed = 1;
nodes = (
(185,427,l),
(440,427,ls),
(467,427,o),
(482,409,o),
(477,382,cs),
(473,355,o),
(451,337,o),
(424,337,cs),
(169,337,l),
(133,130,ls),
(128,103,o),
(139,90,o),
(166,90,cs),
(415,90,ls),
(442,90,o),
(453,72,o),
(448,45,cs),
(443,18,o),
(426,0,o),
(399,0,cs),
(100,0,ls),
(46,0,o),
(25,26,o),
(34,80,cs),
(135,650,ls),
(144,704,o),
(175,730,o),
(229,730,cs),
(528,730,ls),
(555,730,o),
(566,712,o),
(561,685,cs),
(556,658,o),
(539,640,o),
(512,640,cs),
(263,640,ls),
(236,640,o),
(221,627,o),
(216,600,cs)
);
},
{
closed = 1;
nodes = (
(341,816,o),
(309,851,o),
(314,880,qs),
(319,909,o),
(363,944,o),
(396,944,qs),
(429,944,o),
(461,909,o),
(456,880,qs),
(451,851,o),
(407,816,o),
(374,816,qs)
);
}
);
width = 600;
},
{
layerId = "4966EE82-C4DA-425A-8D74-1CF207294ED7";
shapes = (
{
closed = 1;
nodes = (
(162,406,l),
(445,406,ls),
(460,406,o),
(465,396,o),
(462,381,cs),
(460,366,o),
(451,356,o),
(436,356,cs),
(153,356,l),
(105,85,ls),
(101,62,o),
(111,50,o),
(134,50,cs),
(416,50,ls),
(431,50,o),
(437,40,o),
(434,25,cs),
(432,10,o),
(422,0,o),
(407,0,cs),
(110,0,ls),
(63,0,o),
(44,23,o),
(52,70,cs),
(156,660,ls),
(165,707,o),
(192,730,o),
(239,730,cs),
(536,730,ls),
(551,730,o),
(557,720,o),
(554,705,cs),
(552,690,o),
(542,680,o),
(527,680,cs),
(245,680,ls),
(222,680,o),
(208,668,o),
(204,645,cs)
);
},
{
closed = 1;
nodes = (
(354,825,o),
(328,855,o),
(332,880,qs),
(337,905,o),
(374,935,o),
(400,935,qs),
(426,935,o),
(453,905,o),
(448,880,qs),
(444,855,o),
(406,825,o),
(380,825,qs)
);
}
);
width = 600;
}
);
unicode = 278;
},
{
glyphname = Edotbelow;
layers = (
{
layerId = "0892077F-E13C-4B35-A2A2-3732A46C3F7E";
shapes = (
{
closed = 1;
nodes = (
(228,440,l),
(431,440,ls),
(473,440,o),
(494,417,o),
(486,375,cs),
(479,333,o),
(450,310,o),
(408,310,cs),
(205,310,l),
(180,170,ls),
(175,143,o),
(186,130,o),
(213,130,cs),
(408,130,ls),
(452,130,o),
(469,109,o),
(461,65,cs),
(454,21,o),
(429,0,o),
(385,0,cs),
(100,0,ls),
(33,0,o),
(6,33,o),
(18,100,cs),
(111,630,ls),
(123,697,o),
(162,730,o),
(229,730,cs),
(514,730,ls),
(558,730,o),
(575,709,o),
(567,665,cs),
(559,621,o),
(535,600,o),
(491,600,cs),
(296,600,ls),
(267,600,o),
(254,588,o),
(249,560,cs)
);
},
{
closed = 1;
nodes = (
(143,-233,o),
(101,-191,o),
(108,-155,qs),
(114,-119,o),
(170,-77,o),
(211,-77,qs),
(252,-77,o),
(294,-119,o),
(288,-155,qs),
(281,-191,o),
(225,-233,o),
(184,-233,qs)
);
}
);
width = 600;
},
{
layerId = "8BB99DCB-260E-4CD5-8804-53D8F723A4FE";
shapes = (
{
closed = 1;
nodes = (
(185,427,l),
(440,427,ls),
(467,427,o),
(482,409,o),
(477,382,cs),
(473,355,o),
(451,337,o),
(424,337,cs),
(169,337,l),
(133,130,ls),
(128,103,o),
(139,90,o),
(166,90,cs),
(415,90,ls),
(442,90,o),
(453,72,o),
(448,45,cs),
(443,18,o),
(426,0,o),
(399,0,cs),
(100,0,ls),
(46,0,o),
(25,26,o),
(34,80,cs),
(135,650,ls),
(144,704,o),
(175,730,o),
(229,730,cs),
(528,730,ls),
(555,730,o),
(566,712,o),
(561,685,cs),
(556,658,o),
(539,640,o),
(512,640,cs),
(263,640,ls),
(236,640,o),
(221,627,o),
(216,600,cs)
);
},
{
closed = 1;
nodes = (
(159,-213,o),
(127,-179,o),
(133,-150,qs),
(138,-120,o),
(182,-85,o),
(215,-85,qs),
(248,-85,o),
(280,-120,o),
(275,-150,qs),
(269,-179,o),
(225,-213,o),
(192,-213,qs)
);
}
);
width = 600;
},
{
layerId = "4966EE82-C4DA-425A-8D74-1CF207294ED7";
shapes = (
{
closed = 1;
nodes = (
(162,406,l),
(445,406,ls),
(460,406,o),
(465,396,o),
(462,381,cs),
(460,366,o),
(451,356,o),
(436,356,cs),
(153,356,l),
(105,85,ls),
(101,62,o),
(111,50,o),
(134,50,cs),
(416,50,ls),
(431,50,o),
(437,40,o),
(434,25,cs),
(432,10,o),
(422,0,o),
(407,0,cs),
(110,0,ls),
(63,0,o),
(44,23,o),
(52,70,cs),
(156,660,ls),
(165,707,o),
(192,730,o),
(239,730,cs),
(536,730,ls),
(551,730,o),
(557,720,o),
(554,705,cs),
(552,690,o),
(542,680,o),
(527,680,cs),
(245,680,ls),
(222,680,o),
(208,668,o),
(204,645,cs)
);
},
{
closed = 1;
nodes = (
(173,-205,o),
(146,-175,o),
(151,-150,qs),
(155,-125,o),
(192,-95,o),
(218,-95,qs),
(244,-95,o),
(271,-125,o),
(267,-150,qs),
(262,-175,o),
(225,-205,o),
(199,-205,qs)
);
}
);
width = 600;
}
);
unicode = 7864;
},
{
glyphname = Egrave;
layers = (
{
layerId = "0892077F-E13C-4B35-A2A2-3732A46C3F7E";
shapes = (
{
closed = 1;
nodes = (
(228,440,l),
(431,440,ls),
(473,440,o),
(494,417,o),
(486,375,cs),
(479,333,o),
(450,310,o),
(408,310,cs),
(205,310,l),
(180,170,ls),
(175,143,o),
(186,130,o),
(213,130,cs),
(408,130,ls),
(452,130,o),
(469,109,o),
(461,65,cs),
(454,21,o),
(429,0,o),
(385,0,cs),
(100,0,ls),
(33,0,o),
(6,33,o),
(18,100,cs),
(111,630,ls),
(123,697,o),
(162,730,o),
(229,730,cs),
(514,730,ls),
(558,730,o),
(575,709,o),
(567,665,cs),
(559,621,o),
(535,600,o),
(491,600,cs),
(296,600,ls),
(267,600,o),
(254,588,o),
(249,560,cs)
);
},
{
closed = 1;
nodes = (
(323,810,o),
(297,820,o),
(280,848,cs),
(263,873,ls),
(226,929,o),
(252,950,o),
(318,950,cs),
(362,950,o),
(385,937,o),
(400,910,cs),
(412,890,ls),
(442,836,o),
(425,810,o),
(358,810,cs)
);
}
);
width = 600;
},
{
layerId = "8BB99DCB-260E-4CD5-8804-53D8F723A4FE";
shapes = (
{
closed = 1;
nodes = (
(185,427,l),
(440,427,ls),
(467,427,o),
(482,409,o),
(477,382,cs),
(473,355,o),
(451,337,o),
(424,337,cs),
(169,337,l),
(133,130,ls),
(128,103,o),
(139,90,o),
(166,90,cs),
(415,90,ls),
(442,90,o),
(453,72,o),
(448,45,cs),
(443,18,o),
(426,0,o),
(399,0,cs),
(100,0,ls),
(46,0,o),
(25,26,o),
(34,80,cs),
(135,650,ls),
(144,704,o),
(175,730,o),
(229,730,cs),
(528,730,ls),
(555,730,o),
(566,712,o),
(561,685,cs),
(556,658,o),
(539,640,o),
(512,640,cs),
(263,640,ls),
(236,640,o),
(221,627,o),
(216,600,cs)
);
},
{
closed = 1;
nodes = (
(351,810,o),
(334,818,o),
(324,834,cs),
(282,898,ls),
(261,933,o),
(272,950,o),
(317,950,cs),
(339,950,o),
(355,942,o),
(366,924,cs),
(405,860,ls),
(425,827,o),
(414,810,o),
(372,810,cs)
);
}
);
width = 600;
},
{
layerId = "4966EE82-C4DA-425A-8D74-1CF207294ED7";
shapes = (
{
closed = 1;
nodes = (
(162,406,l),
(445,406,ls),
(460,406,o),
(465,396,o),
(462,381,cs),
(460,366,o),
(451,356,o),
(436,356,cs),
(153,356,l),
(105,85,ls),
(101,62,o),
(111,50,o),
(134,50,cs),
(416,50,ls),
(431,50,o),
(437,40,o),
(434,25,cs),
(432,10,o),
(422,0,o),
(407,0,cs),
(110,0,ls),
(63,0,o),
(44,23,o),
(52,70,cs),
(156,660,ls),
(165,707,o),
(192,730,o),
(239,730,cs),
(536,730,ls),
(551,730,o),
(557,720,o),
(554,705,cs),
(552,690,o),
(542,680,o),
(527,680,cs),
(245,680,ls),
(222,680,o),
(208,668,o),
(204,645,cs)
);
},
{
closed = 1;
nodes = (
(367,810,o),
(359,814,o),
(352,824,cs),
(293,918,ls),
(280,939,o),
(288,950,o),
(315,950,cs),
(329,950,o),
(338,945,o),
(344,934,cs),
(399,839,ls),
(410,819,o),
(404,810,o),
(379,810,cs)
);
}
);
width = 600;
}
);
unicode = 200;
},
{
glyphname = Ehookabove;
layers = (
{
layerId = "0892077F-E13C-4B35-A2A2-3732A46C3F7E";
shapes = (
{
closed = 1;
nodes = (
(228,440,l),
(431,440,ls),
(473,440,o),
(494,417,o),
(486,375,cs),
(479,333,o),
(450,310,o),
(408,310,cs),
(205,310,l),
(180,170,ls),
(175,143,o),
(186,130,o),
(213,130,cs),
(408,130,ls),
(452,130,o),
(469,109,o),
(461,65,cs),
(454,21,o),
(429,0,o),
(385,0,cs),
(100,0,ls),
(33,0,o),
(6,33,o),
(18,100,cs),
(111,630,ls),
(123,697,o),
(162,730,o),
(229,730,cs),
(514,730,ls),
(558,730,o),
(575,709,o),
(567,665,cs),
(559,621,o),
(535,600,o),
(491,600,cs),
(296,600,ls),
(267,600,o),
(254,588,o),
(249,560,cs)
);
},
{
closed = 1;
nodes = (
(342,796,o),
(324,817,o),
(365,852,cs),
(368,854,ls),
(388,871,o),
(388,883,qs),
(389,900,o),
(364,900,qs),
(326,900,ls),
(298,900,o),
(286,915,o),
(291,943,cs),
(296,971,o),
(313,985,o),
(341,985,cs),
(404,985,ls),
(451,985,o),
(499,938,o),
(494,899,qs),
(487,864,o),
(461,838,qs),
(446,824,ls),
(427,805,o),
(406,796,o),
(381,796,cs)
);
}
);
width = 600;
},
{
layerId = "8BB99DCB-260E-4CD5-8804-53D8F723A4FE";
shapes = (
{
closed = 1;
nodes = (
(185,427,l),
(440,427,ls),
(467,427,o),
(482,409,o),
(477,382,cs),
(473,355,o),
(451,337,o),
(424,337,cs),
(169,337,l),
(133,130,ls),
(128,103,o),
(139,90,o),
(166,90,cs),
(415,90,ls),
(442,90,o),
(453,72,o),
(448,45,cs),
(443,18,o),
(426,0,o),
(399,0,cs),
(100,0,ls),
(46,0,o),
(25,26,o),
(34,80,cs),
(135,650,ls),
(144,704,o),
(175,730,o),
(229,730,cs),
(528,730,ls),
(555,730,o),
(566,712,o),
(561,685,cs),
(556,658,o),
(539,640,o),
(512,640,cs),
(263,640,ls),
(236,640,o),
(221,627,o),
(216,600,cs)
);
},
{
closed = 1;
nodes = (
(358,800,o),
(343,814,o),
(372,844,cs),
(390,863,l),
(408,882,o),
(410,895,qs),
(413,915,o),
(381,915,qs),
(333,915,ls),
(311,915,o),
(303,926,o),
(307,948,cs),
(311,970,o),
(323,980,o),
(345,980,cs),
(418,980,ls),
(456,980,o),
(496,941,o),
(490,906,qs),
(484,874,o),
(463,852,qs),
(435,822,ls),
(420,807,o),
(405,800,o),
(386,800,cs)
);
}
);
width = 600;
},
{
layerId = "4966EE82-C4DA-425A-8D74-1CF207294ED7";
shapes = (
{
closed = 1;
nodes = (
(162,406,l),
(445,406,ls),
(460,406,o),
(465,396,o),
(462,381,cs),
(460,366,o),
(451,356,o),
(436,356,cs),
(153,356,l),
(105,85,ls),
(101,62,o),
(111,50,o),
(134,50,cs),
(416,50,ls),
(431,50,o),
(437,40,o),
(434,25,cs),
(432,10,o),
(422,0,o),
(407,0,cs),
(110,0,ls),
(63,0,o),
(44,23,o),
(52,70,cs),
(156,660,ls),
(165,707,o),
(192,730,o),
(239,730,cs),
(536,730,ls),
(551,730,o),
(557,720,o),
(554,705,cs),
(552,690,o),
(542,680,o),
(527,680,cs),
(245,680,ls),
(222,680,o),
(208,668,o),
(204,645,cs)
);
},
{
closed = 1;
nodes = (
(366,800,o),
(357,808,o),
(374,826,cs),
(419,876,ls),
(441,900,o),
(443,912,qs),
(448,940,o),
(411,940,qs),
(340,940,ls),
(330,940,o),
(324,946,o),
(326,958,cs),
(328,970,o),
(336,975,o),
(346,975,cs),
(417,975,ls),
(452,975,o),
(488,943,o),
(484,916,qs),
(479,890,o),
(455,863,qs),
(410,813,ls),
(403,804,o),
(394,800,o),
(383,800,cs)
);
}
);
width = 600;
}
);
unicode = 7866;
},
{
glyphname = Emacron;
layers = (
{
layerId = "0892077F-E13C-4B35-A2A2-3732A46C3F7E";
shapes = (
{
closed = 1;
nodes = (
(228,440,l),
(431,440,ls),
(473,440,o),
(494,417,o),
(486,375,cs),
(479,333,o),
(450,310,o),
(408,310,cs),
(205,310,l),
(180,170,ls),
(175,143,o),
(186,130,o),
(213,130,cs),
(408,130,ls),
(452,130,o),
(469,109,o),
(461,65,cs),
(454,21,o),
(429,0,o),
(385,0,cs),
(100,0,ls),
(33,0,o),
(6,33,o),
(18,100,cs),
(111,630,ls),
(123,697,o),
(162,730,o),
(229,730,cs),
(514,730,ls),
(558,730,o),
(575,709,o),
(567,665,cs),
(559,621,o),
(535,600,o),
(491,600,cs),
(296,600,ls),
(267,600,o),
(254,588,o),
(249,560,cs)
);
},
{
closed = 1;
nodes = (
(245,820,ls),
(208,820,o),
(193,838,o),
(199,875,cs),
(206,912,o),
(227,930,o),
(264,930,cs),
(514,930,ls),
(551,930,o),
(566,912,o),
(559,875,cs),
(553,838,o),
(532,820,o),
(495,820,cs)
);
}
);
width = 600;
},
{
layerId = "8BB99DCB-260E-4CD5-8804-53D8F723A4FE";
shapes = (
{
closed = 1;
nodes = (
(185,427,l),
(440,427,ls),
(467,427,o),
(482,409,o),
(477,382,cs),
(473,355,o),
(451,337,o),
(424,337,cs),
(169,337,l),
(133,130,ls),
(128,103,o),
(139,90,o),
(166,90,cs),
(415,90,ls),
(442,90,o),
(453,72,o),
(448,45,cs),
(443,18,o),
(426,0,o),
(399,0,cs),
(100,0,ls),
(46,0,o),
(25,26,o),
(34,80,cs),
(135,650,ls),
(144,704,o),
(175,730,o),
(229,730,cs),
(528,730,ls),
(555,730,o),
(566,712,o),
(561,685,cs),
(556,658,o),
(539,640,o),
(512,640,cs),
(263,640,ls),
(236,640,o),
(221,627,o),
(216,600,cs)
);
},
{
closed = 1;
nodes = (
(255,840,ls),
(230,840,o),
(220,853,o),
(225,878,cs),
(229,903,o),
(243,915,o),
(268,915,cs),
(513,915,ls),
(538,915,o),
(549,903,o),
(545,878,cs),
(540,853,o),
(525,840,o),
(500,840,cs)
);
}
);
width = 600;
},
{
layerId = "4966EE82-C4DA-425A-8D74-1CF207294ED7";
shapes = (
{
closed = 1;
nodes = (
(162,406,l),
(445,406,ls),
(460,406,o),
(465,396,o),
(462,381,cs),
(460,366,o),
(451,356,o),
(436,356,cs),
(153,356,l),
(105,85,ls),
(101,62,o),
(111,50,o),
(134,50,cs),
(416,50,ls),
(431,50,o),
(437,40,o),
(434,25,cs),
(432,10,o),
(422,0,o),
(407,0,cs),
(110,0,ls),
(63,0,o),
(44,23,o),
(52,70,cs),
(156,660,ls),
(165,707,o),
(192,730,o),
(239,730,cs),
(536,730,ls),
(551,730,o),
(557,720,o),
(554,705,cs),
(552,690,o),
(542,680,o),
(527,680,cs),
(245,680,ls),
(222,680,o),
(208,668,o),
(204,645,cs)
);
},
{
closed = 1;
nodes = (
(267,854,ls),
(253,854,o),
(247,862,o),
(249,876,cs),
(252,890,o),
(260,897,o),
(274,897,cs),
(512,897,ls),
(526,897,o),
(532,890,o),
(529,876,cs),
(527,862,o),
(519,854,o),
(505,854,cs)
);
}
);
width = 600;
}
);
unicode = 274;
},
{
glyphname = Eogonek;
layers = (
{
layerId = "0892077F-E13C-4B35-A2A2-3732A46C3F7E";
shapes = (
{
closed = 1;
nodes = (
(228,440,l),
(431,440,ls),
(473,440,o),
(494,417,o),
(486,375,cs),
(479,333,o),
(450,310,o),
(408,310,cs),
(205,310,l),
(180,170,ls),
(175,143,o),
(186,130,o),
(213,130,cs),
(408,130,ls),
(452,130,o),
(469,109,o),
(461,65,cs),
(454,21,o),
(429,0,o),
(385,0,cs),
(100,0,ls),
(33,0,o),
(6,33,o),
(18,100,cs),
(111,630,ls),
(123,697,o),
(162,730,o),
(229,730,cs),
(514,730,ls),
(558,730,o),
(575,709,o),
(567,665,cs),
(559,621,o),
(535,600,o),
(491,600,cs),
(296,600,ls),
(267,600,o),
(254,588,o),
(249,560,cs)
);
},
{
closed = 1;
nodes = (
(381,-120,ls),
(416,-120,o),
(430,-138,o),
(423,-173,cs),
(417,-208,o),
(396,-225,o),
(361,-225,cs),
(306,-225,ls),
(245,-225,o),
(186,-164,o),
(195,-115,qs),
(201,-80,o),
(273,-11,o),
(328,11,q),
(414,11,l),
(377,-18,ls),
(355,-36,o),
(327,-70,o),
(324,-83,qs),
(322,-98,o),
(342,-120,o),
(364,-120,qs)
);
}
);
width = 600;
},
{
layerId = "8BB99DCB-260E-4CD5-8804-53D8F723A4FE";
shapes = (
{
closed = 1;
nodes = (
(185,427,l),
(440,427,ls),
(467,427,o),
(482,409,o),
(477,382,cs),
(473,355,o),
(451,337,o),
(424,337,cs),
(169,337,l),
(133,130,ls),
(128,103,o),
(139,90,o),
(166,90,cs),
(415,90,ls),
(442,90,o),
(453,72,o),
(448,45,cs),
(443,18,o),
(426,0,o),
(399,0,cs),
(100,0,ls),
(46,0,o),
(25,26,o),
(34,80,cs),
(135,650,ls),
(144,704,o),
(175,730,o),
(229,730,cs),
(528,730,ls),
(555,730,o),
(566,712,o),
(561,685,cs),
(556,658,o),
(539,640,o),
(512,640,cs),
(263,640,ls),
(236,640,o),
(221,627,o),
(216,600,cs)
);
},
{
closed = 1;
nodes = (
(390,-143,ls),
(410,-143,o),
(418,-153,o),
(414,-173,cs),
(411,-193,o),
(399,-203,o),
(379,-203,cs),
(331,-203,ls),
(276,-203,o),
(219,-150,o),
(226,-110,qs),
(231,-81,o),
(279,-23,o),
(332,10,q),
(407,10,l),
(394,1,ls),
(355,-27,o),
(317,-72,o),
(314,-93,qs),
(310,-115,o),
(335,-143,o),
(360,-143,qs)
);
}
);
width = 600;
},
{
layerId = "4966EE82-C4DA-425A-8D74-1CF207294ED7";
shapes = (
{
closed = 1;
nodes = (
(162,406,l),
(445,406,ls),
(460,406,o),
(465,396,o),
(462,381,cs),
(460,366,o),
(451,356,o),
(436,356,cs),
(153,356,l),
(105,85,ls),
(101,62,o),
(111,50,o),
(134,50,cs),
(416,50,ls),
(431,50,o),
(437,40,o),
(434,25,cs),
(432,10,o),
(422,0,o),
(407,0,cs),
(110,0,ls),
(63,0,o),
(44,23,o),
(52,70,cs),
(156,660,ls),
(165,707,o),
(192,730,o),
(239,730,cs),
(536,730,ls),
(551,730,o),
(557,720,o),
(554,705,cs),
(552,690,o),
(542,680,o),
(527,680,cs),
(245,680,ls),
(222,680,o),
(208,668,o),
(204,645,cs)
);
},
{
closed = 1;
nodes = (
(387,-153,ls),
(401,-153,o),
(407,-160,o),
(404,-174,cs),
(402,-188,o),
(394,-195,o),
(380,-195,cs),
(328,-195,ls),
(287,-195,o),
(246,-152,o),
(253,-115,qs),
(258,-84,o),
(314,-18,o),
(357,10,q),
(394,10,l),
(381,0,l),
(348,-27,o),
(306,-82,o),
(302,-103,qs),
(298,-126,o),
(320,-153,o),
(344,-153,qs)
);
}
);
width = 600;
}
);
unicode = 280;
},
{
color = (153, 254, 255, 255);
glyphname = Eopen;
layers = (
{
layerId = "0892077F-E13C-4B35-A2A2-3732A46C3F7E";
shapes = (
{
closed = 1;
nodes = (
(574,561,o),
(535,520,o),
(464,520,cs),
(437,520,o),
(424,531,o),
(412,568,cs),
(402,598,o),
(375,616,o),
(336,616,cs),
(284,616,o),
(238,583,o),
(228,529,cs),
(217,465,o),
(253,440,o),
(300,440,cs),
(328,440,ls),
(370,440,o),
(385,420,o),
(378,378,cs),
(370,336,o),
(347,316,o),
(305,316,cs),
(277,316,ls),
(222,316,o),
(167,288,o),
(154,217,cs),
(143,152,o),
(190,118,o),
(250,118,cs),
(289,118,o),
(332,132,o),
(358,163,cs),
(387,198,o),
(406,210,o),
(429,210,cs),
(500,210,o),
(525,168,o),
(487,114,cs),
(431,31,o),
(327,-10,o),
(227,-10,cs),
(95,-10,o),
(-25,59,o),
(1,207,cs),
(16,291,o),
(80,368,o),
(168,386,c),
(96,399,o),
(68,469,o),
(80,541,cs),
(104,676,o),
(235,740,o),
(356,740,cs),
(454,740,o),
(535,696,o),
(558,616,cs)
);
}
);
width = 600;
},
{
anchors = (
{
name = m.uni0308;
position = "{350, 730}";
},
{
name = m.uni0325_2;
position = "{220, 0}";
}
);
layerId = "8BB99DCB-260E-4CD5-8804-53D8F723A4FE";
shapes = (
{
closed = 1;
nodes = (
(550,553,o),
(524,530,o),
(482,530,cs),
(463,530,o),
(455,539,o),
(454,560,cs),
(453,622,o),
(410,660,o),
(342,660,cs),
(271,660,o),
(208,616,o),
(195,542,cs),
(178,448,o),
(244,420,o),
(302,420,cs),
(348,420,ls),
(375,420,o),
(387,407,o),
(382,380,cs),
(377,353,o),
(361,340,o),
(334,340,cs),
(288,340,ls),
(206,340,o),
(130,292,o),
(115,205,cs),
(99,118,o),
(159,70,o),
(241,70,cs),
(310,70,o),
(378,104,o),
(405,170,cs),
(414,191,o),
(425,200,o),
(444,200,cs),
(486,200,o),
(502,178,o),
(484,141,cs),
(438,43,o),
(334,-10,o),
(227,-10,cs),
(101,-10,o),
(-3,61,o),
(21,199,cs),
(37,286,o),
(101,368,o),
(195,384,c),
(123,403,o),
(93,477,o),
(107,551,cs),
(128,674,o),
(242,740,o),
(356,740,cs),
(462,740,o),
(538,685,o),
(545,590,cs)
);
}
);
width = 600;
},
{
layerId = "4966EE82-C4DA-425A-8D74-1CF207294ED7";
shapes = (
{
closed = 1;
nodes = (
(535,541,o),
(522,530,o),
(499,530,cs),
(488,530,o),
(483,536,o),
(484,547,cs),
(493,635,o),
(442,696,o),
(350,696,cs),
(262,696,o),
(187,639,o),
(171,549,cs),
(154,458,o),
(208,401,o),
(297,401,cs),
(344,401,ls),
(359,401,o),
(365,394,o),
(363,379,cs),
(359,364,o),
(351,356,o),
(336,356,cs),
(294,356,ls),
(197,356,o),
(107,299,o),
(88,196,cs),
(70,93,o),
(139,35,o),
(236,35,cs),
(328,35,o),
(413,86,o),
(438,179,cs),
(440,190,o),
(448,196,o),
(459,196,cs),
(482,196,o),
(491,184,o),
(484,163,cs),
(448,52,o),
(342,-10,o),
(228,-10,cs),
(105,-10,o),
(14,63,o),
(37,194,cs),
(53,282,o),
(121,360,o),
(212,381,c),
(137,397,o),
(107,471,o),
(120,547,cs),
(141,665,o),
(242,740,o),
(357,740,cs),
(472,740,o),
(541,670,o),
(536,563,cs)
);
}
);
width = 600;
}
);
unicode = 400;
},
{
glyphname = Etilde;
layers = (
{
layerId = "0892077F-E13C-4B35-A2A2-3732A46C3F7E";
shapes = (
{
closed = 1;
nodes = (
(228,440,l),
(431,440,ls),
(473,440,o),
(494,417,o),
(486,375,cs),
(479,333,o),
(450,310,o),
(408,310,cs),
(205,310,l),
(180,170,ls),
(175,143,o),
(186,130,o),
(213,130,cs),
(408,130,ls),
(452,130,o),
(469,109,o),
(461,65,cs),
(454,21,o),
(429,0,o),
(385,0,cs),
(100,0,ls),
(33,0,o),
(6,33,o),
(18,100,cs),
(111,630,ls),
(123,697,o),
(162,730,o),
(229,730,cs),
(514,730,ls),
(558,730,o),
(575,709,o),
(567,665,cs),
(559,621,o),
(535,600,o),
(491,600,cs),
(296,600,ls),
(267,600,o),
(254,588,o),
(249,560,cs)
);
},
{
closed = 1;
nodes = (
(263,817,o),
(246,805,o),
(229,805,cs),
(200,805,o),
(188,819,o),
(194,847,cs),
(208,910,o),
(258,960,o),
(324,960,cs),
(410,960,o),
(407,900,o),
(449,900,cs),
(463,900,o),
(472,905,o),
(477,913,cs),
(498,943,o),
(513,955,o),
(530,955,cs),
(559,955,o),
(572,941,o),
(566,913,cs),
(552,850,o),
(503,800,o),
(436,800,cs),
(350,800,o),
(354,860,o),
(312,860,cs),
(299,860,o),
(290,855,o),
(284,847,cs)
);
}
);
width = 600;
},
{
layerId = "8BB99DCB-260E-4CD5-8804-53D8F723A4FE";
shapes = (
{
closed = 1;
nodes = (
(185,427,l),
(440,427,ls),
(467,427,o),
(482,409,o),
(477,382,cs),
(473,355,o),
(451,337,o),
(424,337,cs),
(169,337,l),
(133,130,ls),
(128,103,o),
(139,90,o),
(166,90,cs),
(415,90,ls),
(442,90,o),
(453,72,o),
(448,45,cs),
(443,18,o),
(426,0,o),
(399,0,cs),
(100,0,ls),
(46,0,o),
(25,26,o),
(34,80,cs),
(135,650,ls),
(144,704,o),
(175,730,o),
(229,730,cs),
(528,730,ls),
(555,730,o),
(566,712,o),
(561,685,cs),
(556,658,o),
(539,640,o),
(512,640,cs),
(263,640,ls),
(236,640,o),
(221,627,o),
(216,600,cs)
);
},
{
closed = 1;
nodes = (
(279,829,o),
(268,820,o),
(247,820,cs),
(225,820,o),
(217,831,o),
(220,853,cs),
(231,908,o),
(270,945,o),
(327,945,cs),
(410,945,o),
(402,875,o),
(449,875,cs),
(472,875,o),
(481,891,o),
(485,908,cs),
(491,931,o),
(502,940,o),
(523,940,cs),
(545,940,o),
(554,929,o),
(550,907,cs),
(539,852,o),
(501,815,o),
(444,815,cs),
(361,815,o),
(368,885,o),
(321,885,cs),
(299,885,o),
(290,869,o),
(285,852,cs)
);
}
);
width = 600;
},
{
layerId = "4966EE82-C4DA-425A-8D74-1CF207294ED7";
shapes = (
{
closed = 1;
nodes = (
(162,406,l),
(445,406,ls),
(460,406,o),
(465,396,o),
(462,381,cs),
(460,366,o),
(451,356,o),
(436,356,cs),
(153,356,l),
(105,85,ls),
(101,62,o),
(111,50,o),
(134,50,cs),
(416,50,ls),
(431,50,o),
(437,40,o),
(434,25,cs),
(432,10,o),
(422,0,o),
(407,0,cs),
(110,0,ls),
(63,0,o),
(44,23,o),
(52,70,cs),
(156,660,ls),
(165,707,o),
(192,730,o),
(239,730,cs),
(536,730,ls),
(551,730,o),
(557,720,o),
(554,705,cs),
(552,690,o),
(542,680,o),
(527,680,cs),
(245,680,ls),
(222,680,o),
(208,668,o),
(204,645,cs)
);
},
{
closed = 1;
nodes = (
(261,827,o),
(253,820,o),
(240,820,cs),
(227,820,o),
(221,827,o),
(223,840,cs),
(235,907,o),
(263,945,o),
(332,945,cs),
(411,945,o),
(408,854,o),
(461,854,cs),
(502,854,o),
(512,888,o),
(517,920,cs),
(520,933,o),
(528,940,o),
(541,940,cs),
(554,940,o),
(560,933,o),
(557,920,cs),
(546,857,o),
(522,815,o),
(454,815,cs),
(375,815,o),
(378,906,o),
(325,906,cs),
(280,906,o),
(269,873,o),
(263,840,cs)
);
}
);
width = 600;
}
);
unicode = 7868;
},
{
color = (153, 254, 255, 255);
glyphname = Schwa;
layers = (
{
layerId = "0892077F-E13C-4B35-A2A2-3732A46C3F7E";
shapes = (
{
closed = 1;
nodes = (
(160,310,ls),
(151,310,o),
(146,305,o),
(145,296,cs),
(134,158,o),
(163,115,o),
(235,115,cs),
(345,115,o),
(390,227,o),
(401,310,c)
);
},
{
closed = 1;
nodes = (
(526,740,o),
(593,593,o),
(554,373,cs),
(513,143,o),
(395,-10,o),
(213,-10,cs),
(22,-10,o),
(-20,131,o),
(21,365,cs),
(29,409,o),
(53,430,o),
(94,430,cs),
(426,430,l),
(447,550,o),
(389,620,o),
(314,620,cs),
(243,620,o),
(204,592,o),
(171,558,cs),
(155,541,o),
(145,537,o),
(128,537,cs),
(94,537,o),
(72,567,o),
(77,598,cs),
(80,615,o),
(90,632,o),
(105,645,cs),
(163,698,o),
(235,740,o),
(345,740,cs)
);
}
);
width = 600;
},
{
layerId = "8BB99DCB-260E-4CD5-8804-53D8F723A4FE";
shapes = (
{
closed = 1;
nodes = (
(149,330,ls),
(138,330,o),
(133,327,o),
(130,314,cs),
(103,160,o),
(139,80,o),
(234,80,cs),
(364,80,o),
(421,230,o),
(438,330,c)
);
},
{
closed = 1;
nodes = (
(503,740,o),
(578,612,o),
(536,373,cs),
(496,145,o),
(393,-10,o),
(218,-10,cs),
(44,-10,o),
(0,127,o),
(44,373,cs),
(48,397,o),
(71,420,o),
(99,420,cs),
(454,420,l),
(473,527,o),
(454,650,o),
(325,650,cs),
(244,650,o),
(185,607,o),
(156,577,cs),
(147,568,o),
(144,568,o),
(134,568,cs),
(109,568,o),
(94,590,o),
(98,612,cs),
(100,624,o),
(109,634,o),
(116,642,cs),
(177,701,o),
(243,740,o),
(343,740,cs)
);
}
);
width = 600;
},
{
layerId = "4966EE82-C4DA-425A-8D74-1CF207294ED7";
shapes = (
{
closed = 1;
nodes = (
(106.304,342,ls),
(100.304,342,o),
(97.775,339,o),
(96.541,332,cs),
(64.625,151,o),
(97.053,40,o),
(227.053,40,cs),
(388.053,40,o),
(442.968,221,o),
(464.304,342,c)
);
},
{
closed = 1;
nodes = (
(518.482,740,o),
(562.738,594,o),
(523.77,373,cs),
(483.038,142,o),
(398.237,-10,o),
(218.237,-10,cs),
(38.237,-10,o),
(10.57,128,o),
(51.83,362,cs),
(54.475,377,o),
(68.12,392,o),
(84.12,392,cs),
(476.12,392,l),
(497.279,512,o),
(488.666,690,o),
(336.666,690,cs),
(250.666,690,o),
(198.084,647,o),
(157.736,611,cs),
(146.973,601,o),
(141.091,596,o),
(133.091,596,cs),
(118.091,596,o),
(109.265,614,o),
(111.733,628,cs),
(112.968,635,o),
(117.026,641,o),
(122.907,646,cs),
(183.429,700,o),
(240.482,740,o),
(345.482,740,cs)
);
}
);
width = 600;
}
);
unicode = 399;
},
{
color = (153, 254, 255, 255);
glyphname = F;
layers = (
{
layerId = "0892077F-E13C-4B35-A2A2-3732A46C3F7E";
shapes = (
{
closed = 1;
nodes = (
(217,436,l),
(449,436,ls),
(491,436,o),
(507,416,o),
(500,374,cs),
(493,332,o),
(469,312,o),
(427,312,cs),
(195,312,l),
(153,75,ls),
(144,25,o),
(115,0,o),
(65,0,cs),
(15,0,o),
(-6,25,o),
(3,75,cs),
(103,640,ls),
(113,700,o),
(149,730,o),
(209,730,cs),
(524,730,ls),
(568,730,o),
(585,709,o),
(577,665,cs),
(569,621,o),
(545,600,o),
(501,600,cs),
(286,600,ls),
(259,600,o),
(244,588,o),
(239,560,cs)
);
}
);
width = 600;
},
{
layerId = "8BB99DCB-260E-4CD5-8804-53D8F723A4FE";
shapes = (
{
closed = 1;
nodes = (
(180,427,l),
(454,427,ls),
(481,427,o),
(492,414,o),
(487,387,cs),
(482,360,o),
(467,347,o),
(440,347,cs),
(166,347,l),
(113,45,ls),
(108,15,o),
(90,0,o),
(60,0,cs),
(30,0,o),
(18,15,o),
(23,45,cs),
(130,650,ls),
(139,704,o),
(170,730,o),
(224,730,cs),
(529,730,ls),
(559,730,o),
(571,715,o),
(566,685,cs),
(560,655,o),
(543,640,o),
(513,640,cs),
(258,640,ls),
(231,640,o),
(216,627,o),
(211,600,cs)
);
}
);
width = 600;
},
{
layerId = "4966EE82-C4DA-425A-8D74-1CF207294ED7";
shapes = (
{
closed = 1;
nodes = (
(157,406,l),
(457,406,ls),
(474,406,o),
(480,398,o),
(477,381,cs),
(474,364,o),
(465,356,o),
(448,356,cs),
(148,356,l),
(89,25,ls),
(86,8,o),
(77,0,o),
(60,0,cs),
(43,0,o),
(36,8,o),
(39,25,cs),
(151,660,ls),
(160,707,o),
(187,730,o),
(234,730,cs),
(549,730,ls),
(566,730,o),
(572,722,o),
(569,705,cs),
(566,688,o),
(557,680,o),
(540,680,cs),
(240,680,ls),
(217,680,o),
(203,668,o),
(199,645,cs)
);
}
);
width = 600;
}
);
unicode = 70;
},
{
color = (153, 254, 255, 255);
glyphname = G;
layers = (
{
layerId = "0892077F-E13C-4B35-A2A2-3732A46C3F7E";
shapes = (
{
closed = 1;
nodes = (
(382,248,ls),
(386,275,o),
(376,288,o),
(349,288,cs),
(311,288,ls),
(271,288,o),
(254,308,o),
(261,348,cs),
(268,388,o),
(292,408,o),
(332,408,cs),
(420,408,ls),
(500,408,o),
(533,368,o),
(519,288,cs),
(504,206,ls),
(484,88,o),
(386,-10,o),
(227,-10,cs),
(1,-10,o),
(-27,186,o),
(8,365,cs),
(47,558,o),
(131,740,o),
(343,740,cs),
(439,740,o),
(526,703,o),
(547,621,cs),
(565,559,o),
(531,520,o),
(464,520,cs),
(432,520,o),
(418,529,o),
(415,546,cs),
(410,573,o),
(376,605,o),
(327,605,cs),
(218,605,o),
(173,443,o),
(157,365,cs),
(140,278,o),
(124,125,o),
(242,125,cs),
(320,125,o),
(366,160,o),
(375,210,cs)
);
}
);
width = 600;
},
{
layerId = "8BB99DCB-260E-4CD5-8804-53D8F723A4FE";
shapes = (
{
closed = 1;
nodes = (
(396,270,ls),
(400,297,o),
(388,300,o),
(361,300,cs),
(298,300,ls),
(268,300,o),
(256,315,o),
(261,345,cs),
(266,375,o),
(284,390,o),
(314,390,cs),
(427,390,ls),
(481,390,o),
(502,364,o),
(493,310,cs),
(473,200,ls),
(448,54,o),
(332,-10,o),
(218,-10,cs),
(10,-10,o),
(4,200,o),
(36,365,cs),
(70,535,o),
(138,741,o),
(352,741,cs),
(461,741,o),
(515,689,o),
(529,589,cs),
(533,552,o),
(513,531,o),
(476,531,cs),
(453,531,o),
(442,539,o),
(439,568,cs),
(434,624,o),
(395,651,o),
(338,651,cs),
(190,651,o),
(147,471,o),
(126,365,cs),
(105,255,o),
(86,80,o),
(242,80,cs),
(309,80,o),
(368,113,o),
(383,200,cs)
);
}
);
width = 600;
},
{
layerId = "4966EE82-C4DA-425A-8D74-1CF207294ED7";
shapes = (
{
closed = 1;
nodes = (
(431,288,ls),
(434,308,o),
(426,318,o),
(406,318,cs),
(281,318,ls),
(264,318,o),
(257,326,o),
(260,343,cs),
(263,360,o),
(273,368,o),
(290,368,cs),
(435,368,ls),
(475,368,o),
(491,348,o),
(484,308,cs),
(465,200,ls),
(441,63,o),
(368,-10,o),
(218,-10,cs),
(28,-10,o),
(36,213,o),
(62,361,cs),
(89,514,o),
(148,741,o),
(357,741,cs),
(474,741,o),
(514,670,o),
(523,564,cs),
(526,543,o),
(514,531,o),
(493,531,cs),
(480,531,o),
(475,536,o),
(473,547,cs),
(468,635,o),
(426,691,o),
(342,691,cs),
(181,691,o),
(132,479,o),
(113,368,cs),
(91,242,o),
(69,40,o),
(227,40,cs),
(340,40,o),
(396,93,o),
(415,200,cs)
);
}
);
width = 600;
}
);
unicode = 71;
},
{
glyphname = Gacute;
layers = (
{
layerId = "0892077F-E13C-4B35-A2A2-3732A46C3F7E";
shapes = (
{
closed = 1;
nodes = (
(382,248,ls),
(386,275,o),
(376,288,o),
(349,288,cs),
(311,288,ls),
(271,288,o),
(254,308,o),
(261,348,cs),
(268,388,o),
(292,408,o),
(332,408,cs),
(420,408,ls),
(500,408,o),
(533,368,o),
(519,288,cs),
(504,206,ls),
(484,88,o),
(386,-10,o),
(227,-10,cs),
(1,-10,o),
(-27,186,o),
(8,365,cs),
(47,558,o),
(131,740,o),
(343,740,cs),
(439,740,o),
(526,703,o),
(547,621,cs),
(565,559,o),
(531,520,o),
(464,520,cs),
(432,520,o),
(418,529,o),
(415,546,cs),
(410,573,o),
(376,605,o),
(327,605,cs),
(218,605,o),
(173,443,o),
(157,365,cs),
(140,278,o),
(124,125,o),
(242,125,cs),
(320,125,o),
(366,160,o),
(375,210,cs)
);
},
{
closed = 1;
nodes = (
(307,810,o),
(300,835,o),
(349,889,cs),
(367,910,ls),
(397,943,o),
(427,950,o),
(466,950,cs),
(533,950,o),
(540,924,o),
(488,873,cs),
(463,848,ls),
(437,822,o),
(407,810,o),
(374,810,cs)
);
}
);
width = 600;
},
{
layerId = "8BB99DCB-260E-4CD5-8804-53D8F723A4FE";
shapes = (
{
closed = 1;
nodes = (
(396,270,ls),
(400,297,o),
(388,300,o),
(361,300,cs),
(298,300,ls),
(268,300,o),
(256,315,o),
(261,345,cs),
(266,375,o),
(284,390,o),
(314,390,cs),
(427,390,ls),
(481,390,o),
(502,364,o),
(493,310,cs),
(473,200,ls),
(448,54,o),
(332,-10,o),
(218,-10,cs),
(10,-10,o),
(4,200,o),
(36,365,cs),
(70,535,o),
(138,741,o),
(352,741,cs),
(461,741,o),
(515,689,o),
(529,589,cs),
(533,552,o),
(513,531,o),
(476,531,cs),
(453,531,o),
(442,539,o),
(439,568,cs),
(434,624,o),
(395,651,o),
(338,651,cs),
(190,651,o),
(147,471,o),
(126,365,cs),
(105,255,o),
(86,80,o),
(242,80,cs),
(309,80,o),
(368,113,o),
(383,200,cs)
);
},
{
closed = 1;
nodes = (
(325,810,o),
(320,826,o),
(350,859,cs),
(411,924,ls),
(427,941,o),
(446,950,o),
(468,950,cs),
(511,950,o),
(517,933,o),
(484,899,cs),
(420,834,ls),
(404,818,o),
(387,810,o),
(366,810,cs)
);
}
);
width = 600;
},
{
layerId = "4966EE82-C4DA-425A-8D74-1CF207294ED7";
shapes = (
{
closed = 1;
nodes = (
(431,288,ls),
(434,308,o),
(426,318,o),
(406,318,cs),
(281,318,ls),
(264,318,o),
(257,326,o),
(260,343,cs),
(263,360,o),
(273,368,o),
(290,368,cs),
(435,368,ls),
(475,368,o),
(491,348,o),
(484,308,cs),
(465,200,ls),
(441,63,o),
(368,-10,o),
(218,-10,cs),
(28,-10,o),
(36,213,o),
(62,361,cs),
(89,514,o),
(148,741,o),
(357,741,cs),
(474,741,o),
(514,670,o),
(523,564,cs),
(526,543,o),
(514,531,o),
(493,531,cs),
(480,531,o),
(475,536,o),
(473,547,cs),
(468,635,o),
(426,691,o),
(342,691,cs),
(181,691,o),
(132,479,o),
(113,368,cs),
(91,242,o),
(69,40,o),
(227,40,cs),
(340,40,o),
(396,93,o),
(415,200,cs)
);
},
{
closed = 1;
nodes = (
(344,810,o),
(341,819,o),
(359,838,cs),
(449,934,ls),
(459,945,o),
(471,950,o),
(484,950,cs),
(510,950,o),
(512,940,o),
(492,919,cs),
(399,824,ls),
(391,815,o),
(380,810,o),
(368,810,cs)
);
}
);
width = 600;
}
);
unicode = 500;
},
{
glyphname = Gbreve;
layers = (
{
layerId = "0892077F-E13C-4B35-A2A2-3732A46C3F7E";
shapes = (
{
closed = 1;
nodes = (
(382,248,ls),
(386,275,o),
(376,288,o),
(349,288,cs),
(311,288,ls),
(271,288,o),
(254,308,o),
(261,348,cs),
(268,388,o),
(292,408,o),
(332,408,cs),
(420,408,ls),
(500,408,o),
(533,368,o),
(519,288,cs),
(504,206,ls),
(484,88,o),
(386,-10,o),
(227,-10,cs),
(1,-10,o),
(-27,186,o),
(8,365,cs),
(47,558,o),
(131,740,o),
(343,740,cs),
(439,740,o),
(526,703,o),
(547,621,cs),
(565,559,o),
(531,520,o),
(464,520,cs),
(432,520,o),
(418,529,o),
(415,546,cs),
(410,573,o),
(376,605,o),
(327,605,cs),
(218,605,o),
(173,443,o),
(157,365,cs),
(140,278,o),
(124,125,o),
(242,125,cs),
(320,125,o),
(366,160,o),
(375,210,cs)
);
},
{
closed = 1;
nodes = (
(195,927,o),
(219,950,o),
(260,950,cs),
(273,950,o),
(282,947,o),
(289,942,cs),
(305,931,o),
(314,912,o),
(333,898,cs),
(349,887,o),
(376,887,qs),
(403,887,o),
(423,898,qs),
(447,911,o),
(462,929,o),
(480,940,cs),
(490,946,o),
(501,950,o),
(515,950,cs),
(556,950,o),
(571,927,o),
(552,894,cs),
(533,864,o),
(502,842,qs),
(444,800,o),
(361,800,qs),
(278,801,o),
(234,842,qs),
(211,865,o),
(204,894,qs)
);
}
);
width = 600;
},
{
layerId = "8BB99DCB-260E-4CD5-8804-53D8F723A4FE";
shapes = (
{
closed = 1;
nodes = (
(396,270,ls),
(400,297,o),
(388,300,o),
(361,300,cs),
(298,300,ls),
(268,300,o),
(256,315,o),
(261,345,cs),
(266,375,o),
(284,390,o),
(314,390,cs),
(427,390,ls),
(481,390,o),
(502,364,o),
(493,310,cs),
(473,200,ls),
(448,54,o),
(332,-10,o),
(218,-10,cs),
(10,-10,o),
(4,200,o),
(36,365,cs),
(70,535,o),
(138,741,o),
(352,741,cs),
(461,741,o),
(515,689,o),
(529,589,cs),
(533,552,o),
(513,531,o),
(476,531,cs),
(453,531,o),
(442,539,o),
(439,568,cs),
(434,624,o),
(395,651,o),
(338,651,cs),
(190,651,o),
(147,471,o),
(126,365,cs),
(105,255,o),
(86,80,o),
(242,80,cs),
(309,80,o),
(368,113,o),
(383,200,cs)
);
},
{
closed = 1;
nodes = (
(224,937,o),
(238,950,o),
(263,950,cs),
(278,950,o),
(287,946,o),
(293,939,cs),
(303,927,o),
(305,909,o),
(313,895,cs),
(330,863,o),
(371,863,qs),
(412,863,o),
(442,895,qs),
(454,908,o),
(463,925,o),
(476,937,cs),
(486,945,o),
(496,950,o),
(512,950,cs),
(537,950,o),
(546,937,o),
(537,915,cs),
(521,874,o),
(485,845,qs),
(434,805,o),
(362,805,qs),
(290,805,o),
(253,845,qs),
(227,874,o),
(225,915,qs)
);
}
);
width = 600;
},
{
layerId = "4966EE82-C4DA-425A-8D74-1CF207294ED7";
shapes = (
{
closed = 1;
nodes = (
(431,288,ls),
(434,308,o),
(426,318,o),
(406,318,cs),
(281,318,ls),
(264,318,o),
(257,326,o),
(260,343,cs),
(263,360,o),
(273,368,o),
(290,368,cs),
(435,368,ls),
(475,368,o),
(491,348,o),
(484,308,cs),
(465,200,ls),
(441,63,o),
(368,-10,o),
(218,-10,cs),
(28,-10,o),
(36,213,o),
(62,361,cs),
(89,514,o),
(148,741,o),
(357,741,cs),
(474,741,o),
(514,670,o),
(523,564,cs),
(526,543,o),
(514,531,o),
(493,531,cs),
(480,531,o),
(475,536,o),
(473,547,cs),
(468,635,o),
(426,691,o),
(342,691,cs),
(181,691,o),
(132,479,o),
(113,368,cs),
(91,242,o),
(69,40,o),
(227,40,cs),
(340,40,o),
(396,93,o),
(415,200,cs)
);
},
{
closed = 1;
nodes = (
(246,943,o),
(256,950,o),
(271,950,cs),
(280,950,o),
(285,946,o),
(288,939,cs),
(294,924,o),
(292,896,o),
(306,876,cs),
(327,848,o),
(375,848,qs),
(422,848,o),
(453,876,qs),
(479,898,o),
(486,925,o),
(497,939,cs),
(502,946,o),
(507,950,o),
(516,950,cs),
(531,950,o),
(538,943,o),
(534,928,cs),
(519,879,o),
(481,847,qs),
(435,808,o),
(368,808,qs),
(301,808,o),
(269,847,qs),
(243,879,o),
(246,928,qs)
);
}
);
width = 600;
}
);
unicode = 286;
},
{
glyphname = Gcaron;
layers = (
{
layerId = "0892077F-E13C-4B35-A2A2-3732A46C3F7E";
shapes = (
{
closed = 1;
nodes = (
(382,248,ls),
(386,275,o),
(376,288,o),
(349,288,cs),
(311,288,ls),
(271,288,o),
(254,308,o),
(261,348,cs),
(268,388,o),
(292,408,o),
(332,408,cs),
(420,408,ls),
(500,408,o),
(533,368,o),
(519,288,cs),
(504,206,ls),
(484,88,o),
(386,-10,o),
(227,-10,cs),
(1,-10,o),
(-27,186,o),
(8,365,cs),
(47,558,o),
(131,740,o),
(343,740,cs),
(439,740,o),
(526,703,o),
(547,621,cs),
(565,559,o),
(531,520,o),
(464,520,cs),
(432,520,o),
(418,529,o),
(415,546,cs),
(410,573,o),
(376,605,o),
(327,605,cs),
(218,605,o),
(173,443,o),
(157,365,cs),
(140,278,o),
(124,125,o),
(242,125,cs),
(320,125,o),
(366,160,o),
(375,210,cs)
);
},
{
closed = 1;
nodes = (
(304,950,o),
(326,939,o),
(344,917,cs),
(345,916,ls),
(364,892,o),
(387,891,o),
(415,915,cs),
(420,919,ls),
(446,941,o),
(473,950,o),
(503,950,cs),
(563,950,o),
(569,928,o),
(519,885,cs),
(491,860,ls),
(452,826,o),
(400,810,o),
(363,810,cs),
(326,810,o),
(278,825,o),
(253,860,cs),
(234,885,ls),
(201,930,o),
(213,950,o),
(274,950,cs)
);
}
);
width = 600;
},
{
layerId = "8BB99DCB-260E-4CD5-8804-53D8F723A4FE";
shapes = (
{
closed = 1;
nodes = (
(396,270,ls),
(400,297,o),
(388,300,o),
(361,300,cs),
(298,300,ls),
(268,300,o),
(256,315,o),
(261,345,cs),
(266,375,o),
(284,390,o),
(314,390,cs),
(427,390,ls),
(481,390,o),
(502,364,o),
(493,310,cs),
(473,200,ls),
(448,54,o),
(332,-10,o),
(218,-10,cs),
(10,-10,o),
(4,200,o),
(36,365,cs),
(70,535,o),
(138,741,o),
(352,741,cs),
(461,741,o),
(515,689,o),
(529,589,cs),
(533,552,o),
(513,531,o),
(476,531,cs),
(453,531,o),
(442,539,o),
(439,568,cs),
(434,624,o),
(395,651,o),
(338,651,cs),
(190,651,o),
(147,471,o),
(126,365,cs),
(105,255,o),
(86,80,o),
(242,80,cs),
(309,80,o),
(368,113,o),
(383,200,cs)
);
},
{
closed = 1;
nodes = (
(298,950,o),
(315,942,o),
(328,926,cs),
(351,900,ls),
(366,881,o),
(387,882,o),
(409,900,cs),
(442,927,ls),
(461,942,o),
(482,950,o),
(504,950,cs),
(548,950,o),
(551,934,o),
(514,903,cs),
(439,839,ls),
(415,819,o),
(386,810,o),
(363,810,cs),
(340,810,o),
(314,819,o),
(298,839,cs),
(246,902,ls),
(220,934,o),
(230,950,o),
(275,950,cs)
);
}
);
width = 600;
},
{
layerId = "4966EE82-C4DA-425A-8D74-1CF207294ED7";
shapes = (
{
closed = 1;
nodes = (
(431,288,ls),
(434,308,o),
(426,318,o),
(406,318,cs),
(281,318,ls),
(264,318,o),
(257,326,o),
(260,343,cs),
(263,360,o),
(273,368,o),
(290,368,cs),
(435,368,ls),
(475,368,o),
(491,348,o),
(484,308,cs),
(465,200,ls),
(441,63,o),
(368,-10,o),
(218,-10,cs),
(28,-10,o),
(36,213,o),
(62,361,cs),
(89,514,o),
(148,741,o),
(357,741,cs),
(474,741,o),
(514,670,o),
(523,564,cs),
(526,543,o),
(514,531,o),
(493,531,cs),
(480,531,o),
(475,536,o),
(473,547,cs),
(468,635,o),
(426,691,o),
(342,691,cs),
(181,691,o),
(132,479,o),
(113,368,cs),
(91,242,o),
(69,40,o),
(227,40,cs),
(340,40,o),
(396,93,o),
(415,200,cs)
);
},
{
closed = 1;
nodes = (
(289,950,o),
(297,945,o),
(303,937,cs),
(358,863,ls),
(370,848,o),
(382,848,o),
(398,863,cs),
(481,938,ls),
(490,946,o),
(500,950,o),
(511,950,cs),
(533,950,o),
(535,942,o),
(518,925,cs),
(423,833,ls),
(407,818,o),
(384,810,o),
(369,810,cs),
(354,810,o),
(333,818,o),
(323,833,cs),
(261,924,ls),
(249,941,o),
(255,950,o),
(278,950,cs)
);
}
);
width = 600;
}
);
unicode = 486;
},
{
glyphname = Gcircumflex;
layers = (
{
layerId = "0892077F-E13C-4B35-A2A2-3732A46C3F7E";
shapes = (
{
closed = 1;
nodes = (
(382,248,ls),
(386,275,o),
(376,288,o),
(349,288,cs),
(311,288,ls),
(271,288,o),
(254,308,o),
(261,348,cs),
(268,388,o),
(292,408,o),
(332,408,cs),
(420,408,ls),
(500,408,o),
(533,368,o),
(519,288,cs),
(504,206,ls),
(484,88,o),
(386,-10,o),
(227,-10,cs),
(1,-10,o),
(-27,186,o),
(8,365,cs),
(47,558,o),
(131,740,o),
(343,740,cs),
(439,740,o),
(526,703,o),
(547,621,cs),
(565,559,o),
(531,520,o),
(464,520,cs),
(432,520,o),
(418,529,o),
(415,546,cs),
(410,573,o),
(376,605,o),
(327,605,cs),
(218,605,o),
(173,443,o),
(157,365,cs),
(140,278,o),
(124,125,o),
(242,125,cs),
(320,125,o),
(366,160,o),
(375,210,cs)
);
},
{
closed = 1;
nodes = (
(188,810,o),
(183,831,o),
(232,875,cs),
(260,900,ls),
(299,934,o),
(341,950,o),
(388,950,cs),
(435,950,o),
(471,934,o),
(498,900,cs),
(517,875,ls),
(552,832,o),
(538,810,o),
(478,810,cs),
(448,810,o),
(425,820,o),
(406,841,cs),
(403,845,ls),
(383,868,o),
(359,868,o),
(332,844,cs),
(331,843,ls),
(306,821,o),
(279,810,o),
(249,810,cs)
);
}
);
width = 600;
},
{
layerId = "8BB99DCB-260E-4CD5-8804-53D8F723A4FE";
shapes = (
{
closed = 1;
nodes = (
(396,270,ls),
(400,297,o),
(388,300,o),
(361,300,cs),
(298,300,ls),
(268,300,o),
(256,315,o),
(261,345,cs),
(266,375,o),
(284,390,o),
(314,390,cs),
(427,390,ls),
(481,390,o),
(502,364,o),
(493,310,cs),
(473,200,ls),
(448,54,o),
(332,-10,o),
(218,-10,cs),
(10,-10,o),
(4,200,o),
(36,365,cs),
(70,535,o),
(138,741,o),
(352,741,cs),
(461,741,o),
(515,689,o),
(529,589,cs),
(533,552,o),
(513,531,o),
(476,531,cs),
(453,531,o),
(442,539,o),
(439,568,cs),
(434,624,o),
(395,651,o),
(338,651,cs),
(190,651,o),
(147,471,o),
(126,365,cs),
(105,255,o),
(86,80,o),
(242,80,cs),
(309,80,o),
(368,113,o),
(383,200,cs)
);
},
{
closed = 1;
nodes = (
(205,810,o),
(201,826,o),
(238,858,cs),
(312,921,ls),
(336,941,o),
(360,950,o),
(388,950,cs),
(416,950,o),
(437,941,o),
(453,921,cs),
(506,857,ls),
(532,826,o),
(523,810,o),
(479,810,cs),
(457,810,o),
(439,818,o),
(426,833,cs),
(402,860,ls),
(386,878,o),
(366,879,o),
(344,860,cs),
(312,834,ls),
(293,818,o),
(273,810,o),
(250,810,cs)
);
}
);
width = 600;
},
{
layerId = "4966EE82-C4DA-425A-8D74-1CF207294ED7";
shapes = (
{
closed = 1;
nodes = (
(431,288,ls),
(434,308,o),
(426,318,o),
(406,318,cs),
(281,318,ls),
(264,318,o),
(257,326,o),
(260,343,cs),
(263,360,o),
(273,368,o),
(290,368,cs),
(435,368,ls),
(475,368,o),
(491,348,o),
(484,308,cs),
(465,200,ls),
(441,63,o),
(368,-10,o),
(218,-10,cs),
(28,-10,o),
(36,213,o),
(62,361,cs),
(89,514,o),
(148,741,o),
(357,741,cs),
(474,741,o),
(514,670,o),
(523,564,cs),
(526,543,o),
(514,531,o),
(493,531,cs),
(480,531,o),
(475,536,o),
(473,547,cs),
(468,635,o),
(426,691,o),
(342,691,cs),
(181,691,o),
(132,479,o),
(113,368,cs),
(91,242,o),
(69,40,o),
(227,40,cs),
(340,40,o),
(396,93,o),
(415,200,cs)
);
},
{
closed = 1;
nodes = (
(230,810,o),
(227,819,o),
(245,836,cs),
(339,927,ls),
(355,942,o),
(374,950,o),
(394,950,cs),
(414,950,o),
(429,942,o),
(439,927,cs),
(502,835,ls),
(513,818,o),
(508,810,o),
(486,810,cs),
(475,810,o),
(467,814,o),
(461,822,cs),
(404,897,ls),
(393,912,o),
(381,912,o),
(364,897,cs),
(283,823,ls),
(274,815,o),
(264,810,o),
(253,810,cs)
);
}
);
width = 600;
}
);
unicode = 284;
},
{
glyphname = Gcommaaccent;
layers = (
{
layerId = "0892077F-E13C-4B35-A2A2-3732A46C3F7E";
shapes = (
{
closed = 1;
nodes = (
(382,248,ls),
(386,275,o),
(376,288,o),
(349,288,cs),
(311,288,ls),
(271,288,o),
(254,308,o),
(261,348,cs),
(268,388,o),
(292,408,o),
(332,408,cs),
(420,408,ls),
(500,408,o),
(533,368,o),
(519,288,cs),
(504,206,ls),
(484,88,o),
(386,-10,o),
(227,-10,cs),
(1,-10,o),
(-27,186,o),
(8,365,cs),
(47,558,o),
(131,740,o),
(343,740,cs),
(439,740,o),
(526,703,o),
(547,621,cs),
(565,559,o),
(531,520,o),
(464,520,cs),
(432,520,o),
(418,529,o),
(415,546,cs),
(410,573,o),
(376,605,o),
(327,605,cs),
(218,605,o),
(173,443,o),
(157,365,cs),
(140,278,o),
(124,125,o),
(242,125,cs),
(320,125,o),
(366,160,o),
(375,210,cs)
);
},
{
closed = 1;
nodes = (
(143,-137,ls),
(166,-109,o),
(194,-95,o),
(227,-95,cs),
(294,-95,o),
(303,-121,o),
(251,-173,cs),
(220,-206,ls),
(198,-229,o),
(173,-240,o),
(144,-240,cs),
(86,-240,o),
(76,-217,o),
(116,-168,cs)
);
}
);
width = 600;
},
{
layerId = "8BB99DCB-260E-4CD5-8804-53D8F723A4FE";
shapes = (
{
closed = 1;
nodes = (
(396,270,ls),
(400,297,o),
(388,300,o),
(361,300,cs),
(298,300,ls),
(268,300,o),
(256,315,o),
(261,345,cs),
(266,375,o),
(284,390,o),
(314,390,cs),
(427,390,ls),
(481,390,o),
(502,364,o),
(493,310,cs),
(473,200,ls),
(448,54,o),
(332,-10,o),
(218,-10,cs),
(10,-10,o),
(4,200,o),
(36,365,cs),
(70,535,o),
(138,741,o),
(352,741,cs),
(461,741,o),
(515,689,o),
(529,589,cs),
(533,552,o),
(513,531,o),
(476,531,cs),
(453,531,o),
(442,539,o),
(439,568,cs),
(434,624,o),
(395,651,o),
(338,651,cs),
(190,651,o),
(147,471,o),
(126,365,cs),
(105,255,o),
(86,80,o),
(242,80,cs),
(309,80,o),
(368,113,o),
(383,200,cs)
);
},
{
closed = 1;
nodes = (
(168,-124,ls),
(185,-104,o),
(204,-95,o),
(227,-95,cs),
(274,-95,o),
(281,-114,o),
(246,-152,cs),
(190,-214,ls),
(175,-231,o),
(156,-240,o),
(135,-240,cs),
(93,-240,o),
(87,-222,o),
(116,-187,cs)
);
}
);
width = 600;
},
{
layerId = "4966EE82-C4DA-425A-8D74-1CF207294ED7";
shapes = (
{
closed = 1;
nodes = (
(431,288,ls),
(434,308,o),
(426,318,o),
(406,318,cs),
(281,318,ls),
(264,318,o),
(257,326,o),
(260,343,cs),
(263,360,o),
(273,368,o),
(290,368,cs),
(435,368,ls),
(475,368,o),
(491,348,o),
(484,308,cs),
(465,200,ls),
(441,63,o),
(368,-10,o),
(218,-10,cs),
(28,-10,o),
(36,213,o),
(62,361,cs),
(89,514,o),
(148,741,o),
(357,741,cs),
(474,741,o),
(514,670,o),
(523,564,cs),
(526,543,o),
(514,531,o),
(493,531,cs),
(480,531,o),
(475,536,o),
(473,547,cs),
(468,635,o),
(426,691,o),
(342,691,cs),
(181,691,o),
(132,479,o),
(113,368,cs),
(91,242,o),
(69,40,o),
(227,40,cs),
(340,40,o),
(396,93,o),
(415,200,cs)
);
},
{
closed = 1;
nodes = (
(200,-113,ls),
(210,-101,o),
(221,-95,o),
(236,-95,cs),
(265,-95,o),
(269,-106,o),
(248,-130,cs),
(161,-227,ls),
(152,-236,o),
(143,-240,o),
(132,-240,cs),
(110,-240,o),
(106,-231,o),
(122,-212,cs)
);
}
);
width = 600;
}
);
unicode = 290;
},
{
glyphname = Gdotaccent;
layers = (
{
layerId = "0892077F-E13C-4B35-A2A2-3732A46C3F7E";
shapes = (
{
closed = 1;
nodes = (
(382,248,ls),
(386,275,o),
(376,288,o),
(349,288,cs),
(311,288,ls),
(271,288,o),
(254,308,o),
(261,348,cs),
(268,388,o),
(292,408,o),
(332,408,cs),
(420,408,ls),
(500,408,o),
(533,368,o),
(519,288,cs),
(504,206,ls),
(484,88,o),
(386,-10,o),
(227,-10,cs),
(1,-10,o),
(-27,186,o),
(8,365,cs),
(47,558,o),
(131,740,o),
(343,740,cs),
(439,740,o),
(526,703,o),
(547,621,cs),
(565,559,o),
(531,520,o),
(464,520,cs),
(432,520,o),
(418,529,o),
(415,546,cs),
(410,573,o),
(376,605,o),
(327,605,cs),
(218,605,o),
(173,443,o),
(157,365,cs),
(140,278,o),
(124,125,o),
(242,125,cs),
(320,125,o),
(366,160,o),
(375,210,cs)
);
},
{
closed = 1;
nodes = (
(320,802,o),
(279,844,o),
(285,880,qs),
(292,916,o),
(348,958,o),
(389,958,qs),
(430,958,o),
(472,916,o),
(465,880,qs),
(459,844,o),
(402,802,o),
(361,802,qs)
);
}
);
width = 600;
},
{
layerId = "8BB99DCB-260E-4CD5-8804-53D8F723A4FE";
shapes = (
{
closed = 1;
nodes = (
(396,270,ls),
(400,297,o),
(388,300,o),
(361,300,cs),
(298,300,ls),
(268,300,o),
(256,315,o),
(261,345,cs),
(266,375,o),
(284,390,o),
(314,390,cs),
(427,390,ls),
(481,390,o),
(502,364,o),
(493,310,cs),
(473,200,ls),
(448,54,o),
(332,-10,o),
(218,-10,cs),
(10,-10,o),
(4,200,o),
(36,365,cs),
(70,535,o),
(138,741,o),
(352,741,cs),
(461,741,o),
(515,689,o),
(529,589,cs),
(533,552,o),
(513,531,o),
(476,531,cs),
(453,531,o),
(442,539,o),
(439,568,cs),
(434,624,o),
(395,651,o),
(338,651,cs),
(190,651,o),
(147,471,o),
(126,365,cs),
(105,255,o),
(86,80,o),
(242,80,cs),
(309,80,o),
(368,113,o),
(383,200,cs)
);
},
{
closed = 1;
nodes = (
(331,816,o),
(299,851,o),
(304,880,qs),
(309,909,o),
(353,944,o),
(386,944,qs),
(419,944,o),
(451,909,o),
(446,880,qs),
(441,851,o),
(397,816,o),
(364,816,qs)
);
}
);
width = 600;
},
{
layerId = "4966EE82-C4DA-425A-8D74-1CF207294ED7";
shapes = (
{
closed = 1;
nodes = (
(431,288,ls),
(434,308,o),
(426,318,o),
(406,318,cs),
(281,318,ls),
(264,318,o),
(257,326,o),
(260,343,cs),
(263,360,o),
(273,368,o),
(290,368,cs),
(435,368,ls),
(475,368,o),
(491,348,o),
(484,308,cs),
(465,200,ls),
(441,63,o),
(368,-10,o),
(218,-10,cs),
(28,-10,o),
(36,213,o),
(62,361,cs),
(89,514,o),
(148,741,o),
(357,741,cs),
(474,741,o),
(514,670,o),
(523,564,cs),
(526,543,o),
(514,531,o),
(493,531,cs),
(480,531,o),
(475,536,o),
(473,547,cs),
(468,635,o),
(426,691,o),
(342,691,cs),
(181,691,o),
(132,479,o),
(113,368,cs),
(91,242,o),
(69,40,o),
(227,40,cs),
(340,40,o),
(396,93,o),
(415,200,cs)
);
},
{
closed = 1;
nodes = (
(345,825,o),
(319,855,o),
(323,880,qs),
(328,905,o),
(365,935,o),
(391,935,qs),
(417,935,o),
(444,905,o),
(439,880,qs),
(435,855,o),
(397,825,o),
(371,825,qs)
);
}
);
width = 600;
}
);
unicode = 288;
},
{
color = (153, 254, 255, 255);
glyphname = H;
layers = (
{
layerId = "0892077F-E13C-4B35-A2A2-3732A46C3F7E";
shapes = (
{
closed = 1;
nodes = (
(358,309,l),
(190,309,l),
(147,65,ls),
(139,15,o),
(109,-10,o),
(59,-10,cs),
(9,-10,o),
(-11,15,o),
(-3,65,cs),
(103,665,ls),
(112,715,o),
(141,740,o),
(191,740,cs),
(241,740,o),
(262,715,o),
(253,665,cs),
(215,449,l),
(383,449,l),
(421,665,ls),
(430,715,o),
(459,740,o),
(509,740,cs),
(559,740,o),
(580,715,o),
(571,665,cs),
(465,65,ls),
(457,15,o),
(427,-10,o),
(377,-10,cs),
(327,-10,o),
(307,15,o),
(315,65,cs)
);
}
);
width = 600;
},
{
layerId = "8BB99DCB-260E-4CD5-8804-53D8F723A4FE";
shapes = (
{
closed = 1;
nodes = (
(396,332,l),
(162,332,l),
(109,35,ls),
(104,5,o),
(86,-10,o),
(56,-10,cs),
(26,-10,o),
(14,5,o),
(19,35,cs),
(136,695,ls),
(141,725,o),
(158,740,o),
(188,740,cs),
(218,740,o),
(231,725,o),
(226,695,cs),
(177,422,l),
(411,422,l),
(460,695,ls),
(465,725,o),
(482,740,o),
(512,740,cs),
(542,740,o),
(555,725,o),
(550,695,cs),
(433,35,ls),
(428,5,o),
(410,-10,o),
(380,-10,cs),
(350,-10,o),
(338,5,o),
(343,35,cs)
);
}
);
width = 600;
},
{
layerId = "4966EE82-C4DA-425A-8D74-1CF207294ED7";
shapes = (
{
closed = 1;
nodes = (
(423,355,l),
(143,355,l),
(83,15,ls),
(80,-2,o),
(70,-10,o),
(53,-10,cs),
(36,-10,o),
(30,-2,o),
(33,15,cs),
(154,705,ls),
(157,722,o),
(167,730,o),
(184,730,cs),
(201,730,o),
(207,722,o),
(204,705,cs),
(151,405,l),
(431,405,l),
(484,705,ls),
(487,722,o),
(497,730,o),
(514,730,cs),
(531,730,o),
(537,722,o),
(534,705,cs),
(413,15,ls),
(410,-2,o),
(400,-10,o),
(383,-10,cs),
(366,-10,o),
(360,-2,o),
(363,15,cs)
);
}
);
width = 600;
}
);
unicode = 72;
},
{
glyphname = Hbar;
layers = (
{
layerId = "0892077F-E13C-4B35-A2A2-3732A46C3F7E";
shapes = (
{
closed = 1;
nodes = (
(358,309,l),
(190,309,l),
(147,65,ls),
(139,15,o),
(109,-10,o),
(59,-10,cs),
(9,-10,o),
(-11,15,o),
(-3,65,cs),
(103,665,ls),
(112,715,o),
(141,740,o),
(191,740,cs),
(241,740,o),
(262,715,o),
(253,665,cs),
(215,449,l),
(383,449,l),
(421,665,ls),
(430,715,o),
(459,740,o),
(509,740,cs),
(559,740,o),
(580,715,o),
(571,665,cs),
(465,65,ls),
(457,15,o),
(427,-10,o),
(377,-10,cs),
(327,-10,o),
(307,15,o),
(315,65,cs)
);
},
{
closed = 1;
nodes = (
(71,525,ls),
(39,525,o),
(25,541,o),
(31,573,cs),
(37,605,o),
(55,620,o),
(87,620,cs),
(571,620,ls),
(603,620,o),
(617,605,o),
(611,573,cs),
(605,541,o),
(587,525,o),
(555,525,cs)
);
}
);
width = 600;
},
{
layerId = "8BB99DCB-260E-4CD5-8804-53D8F723A4FE";
shapes = (
{
closed = 1;
nodes = (
(396,332,l),
(162,332,l),
(109,35,ls),
(104,5,o),
(86,-10,o),
(56,-10,cs),
(26,-10,o),
(14,5,o),
(19,35,cs),
(136,695,ls),
(141,725,o),
(158,740,o),
(188,740,cs),
(218,740,o),
(231,725,o),
(226,695,cs),
(177,422,l),
(411,422,l),
(460,695,ls),
(465,725,o),
(482,740,o),
(512,740,cs),
(542,740,o),
(555,725,o),
(550,695,cs),
(433,35,ls),
(428,5,o),
(410,-10,o),
(380,-10,cs),
(350,-10,o),
(338,5,o),
(343,35,cs)
);
},
{
closed = 1;
nodes = (
(60,525,ls),
(35,525,o),
(25,538,o),
(29,563,cs),
(34,588,o),
(48,600,o),
(73,600,cs),
(579,600,ls),
(604,600,o),
(614,588,o),
(609,563,cs),
(605,538,o),
(591,525,o),
(566,525,cs)
);
}
);
width = 600;
},
{
layerId = "4966EE82-C4DA-425A-8D74-1CF207294ED7";
shapes = (
{
closed = 1;
nodes = (
(423,355,l),
(143,355,l),
(83,15,ls),
(80,-2,o),
(70,-10,o),
(53,-10,cs),
(36,-10,o),
(30,-2,o),
(33,15,cs),
(154,705,ls),
(157,722,o),
(167,730,o),
(184,730,cs),
(201,730,o),
(207,722,o),
(204,705,cs),
(151,405,l),
(431,405,l),
(484,705,ls),
(487,722,o),
(497,730,o),
(514,730,cs),
(531,730,o),
(537,722,o),
(534,705,cs),
(413,15,ls),
(410,-2,o),
(400,-10,o),
(383,-10,cs),
(366,-10,o),
(360,-2,o),
(363,15,cs)
);
},
{
closed = 1;
nodes = (
(47,540,ls),
(32,540,o),
(26,547,o),
(29,562,cs),
(32,577,o),
(40,584,o),
(55,584,cs),
(591,584,ls),
(606,584,o),
(612,577,o),
(609,562,cs),
(606,547,o),
(598,540,o),
(583,540,cs)
);
}
);
width = 600;
}
);
unicode = 294;
},
{
glyphname = Hcircumflex;
layers = (
{
layerId = "0892077F-E13C-4B35-A2A2-3732A46C3F7E";
shapes = (
{
closed = 1;
nodes = (
(358,309,l),
(190,309,l),
(147,65,ls),
(139,15,o),
(109,-10,o),
(59,-10,cs),
(9,-10,o),
(-11,15,o),
(-3,65,cs),
(103,665,ls),
(112,715,o),
(141,740,o),
(191,740,cs),
(241,740,o),
(262,715,o),
(253,665,cs),
(215,449,l),
(383,449,l),
(421,665,ls),
(430,715,o),
(459,740,o),
(509,740,cs),
(559,740,o),
(580,715,o),
(571,665,cs),
(465,65,ls),
(457,15,o),
(427,-10,o),
(377,-10,cs),
(327,-10,o),
(307,15,o),
(315,65,cs)
);
},
{
closed = 1;
nodes = (
(188,810,o),
(183,831,o),
(232,875,cs),
(260,900,ls),
(299,934,o),
(341,950,o),
(388,950,cs),
(435,950,o),
(471,934,o),
(498,900,cs),
(517,875,ls),
(552,832,o),
(538,810,o),
(478,810,cs),
(448,810,o),
(425,820,o),
(406,841,cs),
(403,845,ls),
(383,868,o),
(359,868,o),
(332,844,cs),
(331,843,ls),
(306,821,o),
(279,810,o),
(249,810,cs)
);
}
);
width = 600;
},
{
layerId = "8BB99DCB-260E-4CD5-8804-53D8F723A4FE";
shapes = (
{
closed = 1;
nodes = (
(396,332,l),
(162,332,l),
(109,35,ls),
(104,5,o),
(86,-10,o),
(56,-10,cs),
(26,-10,o),
(14,5,o),
(19,35,cs),
(136,695,ls),
(141,725,o),
(158,740,o),
(188,740,cs),
(218,740,o),
(231,725,o),
(226,695,cs),
(177,422,l),
(411,422,l),
(460,695,ls),
(465,725,o),
(482,740,o),
(512,740,cs),
(542,740,o),
(555,725,o),
(550,695,cs),
(433,35,ls),
(428,5,o),
(410,-10,o),
(380,-10,cs),
(350,-10,o),
(338,5,o),
(343,35,cs)
);
},
{
closed = 1;
nodes = (
(205,810,o),
(201,826,o),
(238,858,cs),
(312,921,ls),
(336,941,o),
(360,950,o),
(388,950,cs),
(416,950,o),
(437,941,o),
(453,921,cs),
(506,857,ls),
(532,826,o),
(523,810,o),
(479,810,cs),
(457,810,o),
(439,818,o),
(426,833,cs),
(402,860,ls),
(386,878,o),
(366,879,o),
(344,860,cs),
(312,834,ls),
(293,818,o),
(273,810,o),
(250,810,cs)
);
}
);
width = 600;
},
{
layerId = "4966EE82-C4DA-425A-8D74-1CF207294ED7";
shapes = (
{
closed = 1;
nodes = (
(423,355,l),
(143,355,l),
(83,15,ls),
(80,-2,o),
(70,-10,o),
(53,-10,cs),
(36,-10,o),
(30,-2,o),
(33,15,cs),
(154,705,ls),
(157,722,o),
(167,730,o),
(184,730,cs),
(201,730,o),
(207,722,o),
(204,705,cs),
(151,405,l),
(431,405,l),
(484,705,ls),
(487,722,o),
(497,730,o),
(514,730,cs),
(531,730,o),
(537,722,o),
(534,705,cs),
(413,15,ls),
(410,-2,o),
(400,-10,o),
(383,-10,cs),
(366,-10,o),
(360,-2,o),
(363,15,cs)
);
},
{
closed = 1;
nodes = (
(224,810,o),
(221,819,o),
(239,836,cs),
(333,927,ls),
(349,942,o),
(368,950,o),
(388,950,cs),
(408,950,o),
(423,942,o),
(433,927,cs),
(496,835,ls),
(507,818,o),
(502,810,o),
(480,810,cs),
(469,810,o),
(461,814,o),
(455,822,cs),
(398,897,ls),
(387,912,o),
(375,912,o),
(358,897,cs),
(277,823,ls),
(268,815,o),
(258,810,o),
(247,810,cs)
);
}
);
width = 600;
}
);
unicode = 292;
},
{
color = (153, 254, 255, 255);
glyphname = I;
layers = (
{
layerId = "0892077F-E13C-4B35-A2A2-3732A46C3F7E";
shapes = (
{
closed = 1;
nodes = (
(319,135,l),
(396,135,ls),
(441,135,o),
(460,113,o),
(452,68,cs),
(444,23,o),
(417,0,o),
(372,0,cs),
(68,0,ls),
(23,0,o),
(4,23,o),
(12,68,cs),
(20,113,o),
(47,135,o),
(92,135,cs),
(169,135,l),
(250,595,l),
(173,595,ls),
(128,595,o),
(109,618,o),
(117,663,cs),
(125,708,o),
(152,730,o),
(197,730,cs),
(501,730,ls),
(546,730,o),
(565,708,o),
(557,663,cs),
(549,618,o),
(522,595,o),
(477,595,cs),
(400,595,l)
);
}
);
width = 600;
},
{
layerId = "8BB99DCB-260E-4CD5-8804-53D8F723A4FE";
shapes = (
{
closed = 1;
nodes = (
(282,90,l),
(386,90,ls),
(413,90,o),
(428,72,o),
(423,45,cs),
(418,18,o),
(397,0,o),
(370,0,cs),
(70,0,ls),
(43,0,o),
(28,18,o),
(33,45,cs),
(38,72,o),
(59,90,o),
(86,90,cs),
(190,90,l),
(287,640,l),
(183,640,ls),
(156,640,o),
(141,658,o),
(146,685,cs),
(151,712,o),
(172,730,o),
(199,730,cs),
(499,730,ls),
(526,730,o),
(541,712,o),
(536,685,cs),
(531,658,o),
(510,640,o),
(483,640,cs),
(379,640,l)
);
}
);
width = 600;
},
{
layerId = "4966EE82-C4DA-425A-8D74-1CF207294ED7";
shapes = (
{
closed = 1;
nodes = (
(253,50,l),
(384,50,ls),
(399,50,o),
(407,40,o),
(404,25,cs),
(402,10,o),
(390,0,o),
(375,0,cs),
(65,0,ls),
(50,0,o),
(42,10,o),
(44,25,cs),
(47,40,o),
(59,50,o),
(74,50,cs),
(205,50,l),
(316,680,l),
(185,680,ls),
(170,680,o),
(162,690,o),
(164,705,cs),
(167,720,o),
(179,730,o),
(194,730,cs),
(504,730,ls),
(519,730,o),
(527,720,o),
(524,705,cs),
(522,690,o),
(510,680,o),
(495,680,cs),
(364,680,l)
);
}
);
width = 600;
}
);
unicode = 73;
},
